<?xml version="1.0" encoding="utf-8"?>
<!-- Generator: Adobe Illustrator 19.2.1, SVG Export Plug-In . SVG Version: 6.00 Build 0)  -->
<svg version="1.1" id="Слой_1" xmlns="http://www.w3.org/2000/svg" xmlns:xlink="http://www.w3.org/1999/xlink" x="0px" y="0px"
	 viewBox="0 0 595.3 841.9" style="enable-background:new 0 0 595.3 841.9;" xml:space="preserve">
<style type="text/css">
	.st0{fill:#20201E;}
	.st1{fill:#435367;}
	.st2{fill:#E5BE5B;}
	.st3{fill:#F5F5F5;}
	.st4{fill:#ECEBEB;}
	.st5{fill:#CE7D6F;}
	.st6{fill:#8CBDC3;}
	.st7{fill:#3C4657;}
	.st8{fill:#D9AA48;}
	.st9{fill:#E6D098;}
	.st10{fill:#AFAFB0;}
	.st11{fill:#C96F65;}
	.st12{fill:#FFFFFF;}
</style>
<g id="XMLID_4372_">
	<g id="XMLID_4685_">
		<g id="XMLID_4687_">
			<path id="XMLID_5000_" class="st0" d="M93,440.2c-0.2,0-0.5-0.1-0.6-0.3l-4.3-4.3c-0.4-0.4-0.4-0.9,0-1.3c0.4-0.4,0.9-0.4,1.3,0
				L93,438l3.7-3.7c0.4-0.4,0.9-0.4,1.3,0c0.4,0.4,0.4,0.9,0,1.3l-4.3,4.3C93.5,440.1,93.3,440.2,93,440.2z"/>
		</g>
		<g id="XMLID_4686_">
			<path id="XMLID_4999_" class="st0" d="M93,440.2c-0.5,0-0.9-0.4-0.9-0.9v-24.4c0-0.5,0.4-0.9,0.9-0.9c0.5,0,0.9,0.4,0.9,0.9v24.4
				C93.9,439.8,93.5,440.2,93,440.2z"/>
		</g>
	</g>
	<g id="XMLID_4665_">
		<g id="XMLID_4667_">
			<g id="XMLID_4672_">
				<g id="XMLID_4681_">
					<g id="XMLID_4684_">
						<path id="XMLID_5669_" class="st1" d="M125.1,464.5l-1.3-8.2c-0.1-0.9,0.6-1.7,1.5-1.7h6.4c0.9,0,1.6,0.8,1.5,1.7l-1.3,8.2
							H125.1z"/>
					</g>
					<g id="XMLID_4683_">
						<path id="XMLID_5667_" class="st2" d="M132.1,463.4h-7.2l-0.4-3l0,0c2.6-0.6,5.4-0.6,8,0l0,0L132.1,463.4z"/>
					</g>
					<g id="XMLID_4682_">
						<path id="XMLID_5665_" class="st1" d="M149.2,503.1v-19.5c0-11.4-9.3-20.7-20.7-20.7h0c-11.4,0-20.7,9.3-20.7,20.7V501
							c0,1.2-1,2.1-2.1,2.1h-1c-1.2,0-2.1,1-2.1,2.1l0,0c0,1.2,1,2.1,2.1,2.1h47.7c1.2,0,2.1-1,2.1-2.1l0,0c0-1.2-1-2.1-2.1-2.1
							H149.2z"/>
					</g>
				</g>
				<g id="XMLID_4673_">
					<g id="XMLID_4680_">
						<circle id="XMLID_5662_" class="st2" cx="128.5" cy="483.1" r="7.9"/>
					</g>
					<g id="XMLID_4679_">
						<path id="XMLID_4996_" class="st2" d="M128.5,493.6c-5.8,0-10.5-4.7-10.5-10.5c0-5.8,4.7-10.5,10.5-10.5s10.5,4.7,10.5,10.5
							C139,488.9,134.3,493.6,128.5,493.6z M128.5,474c-5,0-9.1,4.1-9.1,9.1c0,5,4.1,9.1,9.1,9.1s9.1-4.1,9.1-9.1
							C137.6,478.1,133.5,474,128.5,474z"/>
					</g>
					<g id="XMLID_4674_">
						<g id="XMLID_4675_">
							<path id="XMLID_5653_" class="st3" d="M127.9,488.5v-1c-0.8-0.1-1.5-0.4-2.2-0.9c-0.5-0.3-0.5-1-0.2-1.4l0,0
								c0.3-0.4,0.9-0.5,1.3-0.2c0.4,0.3,0.8,0.5,1.2,0.6v-1.9c-0.9-0.2-1.6-0.6-2-0.9c-0.4-0.4-0.6-1-0.6-1.7
								c0-0.7,0.2-1.4,0.7-1.8c0.5-0.5,1.1-0.8,1.9-0.9v-0.6h1.4v0.7c0.6,0.1,1.1,0.3,1.7,0.5c0.5,0.3,0.7,0.9,0.4,1.4l0,0
								c-0.3,0.4-0.8,0.5-1.2,0.3c-0.3-0.2-0.6-0.3-0.8-0.4v1.9c0.9,0.2,1.6,0.6,2.1,1c0.4,0.4,0.7,1,0.7,1.7c0,0.7-0.3,1.4-0.8,1.9
								c-0.5,0.5-1.2,0.8-2,0.9v0.9H127.9z M127.9,480.2c-0.4,0.1-0.6,0.4-0.6,0.7c0,0.3,0.2,0.6,0.6,0.8V480.2z M130,484.9
								c0-0.2,0-0.3-0.1-0.5c-0.1-0.1-0.3-0.2-0.5-0.3v1.6C129.8,485.6,130,485.3,130,484.9z"/>
						</g>
					</g>
				</g>
			</g>
			<g id="XMLID_4671_">
				<path id="XMLID_4995_" class="st3" d="M113.2,489.8c-0.7,0-1.4-0.6-1.4-1.4v-6.1c0-8.6,7-15.6,15.6-15.6c0.7,0,1.4,0.6,1.4,1.4
					c0,0.7-0.6,1.4-1.4,1.4c-7.1,0-12.9,5.8-12.9,12.9v6.1C114.5,489.2,113.9,489.8,113.2,489.8z"/>
			</g>
			<g id="XMLID_4670_">
				<path id="XMLID_4994_" class="st3" d="M113.2,497.7c-0.7,0-1.4-0.6-1.4-1.4v-3.4c0-0.7,0.6-1.4,1.4-1.4c0.7,0,1.4,0.6,1.4,1.4
					v3.4C114.5,497.1,113.9,497.7,113.2,497.7z"/>
			</g>
			<g id="XMLID_4669_">
				<path id="XMLID_4993_" class="st3" d="M134,504.4h-1.7c-0.7,0-1.4-0.6-1.4-1.4c0-0.7,0.6-1.4,1.4-1.4h1.7c0.7,0,1.4,0.6,1.4,1.4
					C135.4,503.8,134.8,504.4,134,504.4z"/>
			</g>
			<g id="XMLID_4668_">
				<path id="XMLID_4992_" class="st3" d="M145.9,504.4h-8.2c-0.7,0-1.4-0.6-1.4-1.4c0-0.7,0.6-1.4,1.4-1.4h8.2
					c0.7,0,1.4,0.6,1.4,1.4C147.2,503.8,146.6,504.4,145.9,504.4z"/>
			</g>
		</g>
		<g id="XMLID_4666_">
			<path id="XMLID_4989_" class="st0" d="M152.3,508.2h-47.7c-1.7,0-3-1.4-3-3s1.4-3,3-3h1c0.7,0,1.2-0.5,1.2-1.2v-17.4
				c0-10.2,7.1-19,17-21.1l-0.9-6.1c-0.1-0.7,0.1-1.4,0.5-1.9c0.5-0.5,1.1-0.8,1.8-0.8h6.4c0.7,0,1.4,0.3,1.8,0.8
				c0.5,0.5,0.7,1.2,0.5,1.9l-0.9,6.1c9.9,2.2,17,10.9,17,21.1v18.6h2.2c1.7,0,3,1.4,3,3S154,508.2,152.3,508.2z M104.7,504
				c-0.7,0-1.2,0.6-1.2,1.2c0,0.7,0.6,1.2,1.2,1.2h47.7c0.7,0,1.2-0.5,1.2-1.2c0-0.7-0.6-1.2-1.2-1.2h-3.1c-0.5,0-0.9-0.4-0.9-0.9
				v-19.5c0-9.6-6.9-17.8-16.3-19.5c-0.5-0.1-0.8-0.5-0.7-1l1-6.9c0-0.2-0.1-0.4-0.1-0.5c-0.1-0.1-0.2-0.2-0.4-0.2h-6.4
				c-0.2,0-0.4,0.1-0.4,0.2c-0.1,0.1-0.2,0.2-0.1,0.5l1.1,6.9c0.1,0.5-0.3,0.9-0.7,1c-9.5,1.7-16.4,9.9-16.4,19.5v17.4
				c0,1.7-1.4,3-3,3H104.7z"/>
		</g>
	</g>
	<g id="XMLID_4637_">
		<g id="XMLID_4661_">
			<g id="XMLID_4664_">
				<rect id="XMLID_4984_" x="381.8" y="423.2" class="st4" width="64.7" height="84.1"/>
				<path id="XMLID_4985_" class="st0" d="M446.5,508.3h-64.7c-0.5,0-0.9-0.4-0.9-0.9v-84.1c0-0.5,0.4-0.9,0.9-0.9h64.7
					c0.5,0,0.9,0.4,0.9,0.9v84.1C447.4,507.9,447,508.3,446.5,508.3z M382.7,506.5h62.8v-82.3h-62.8V506.5z"/>
			</g>
			<g id="XMLID_4663_">
				<path id="XMLID_4980_" class="st2" d="M421,416.4v-1.5c0-4-3.3-7.3-7.3-7.3l0,0c-4,0-7.3,3.3-7.3,7.3v1.5h-10.2
					c-4,0-7.3,3.3-7.3,7.3v4.1h49.7v-4.1c0-4-3.3-7.3-7.3-7.3H421z"/>
				<path id="XMLID_4981_" class="st0" d="M438.5,428.7h-49.7c-0.5,0-0.9-0.4-0.9-0.9v-4.1c0-4.5,3.7-8.2,8.2-8.2h9.3v-0.6
					c0-4.5,3.7-8.2,8.2-8.2c4.5,0,8.2,3.7,8.2,8.2v0.6h9.3c4.5,0,8.2,3.7,8.2,8.2v4.1C439.4,428.3,439,428.7,438.5,428.7z
					 M389.7,426.9h47.9v-3.2c0-3.5-2.9-6.4-6.4-6.4H421c-0.5,0-0.9-0.4-0.9-0.9v-1.5c0-3.5-2.9-6.4-6.4-6.4c-3.5,0-6.4,2.9-6.4,6.4
					v1.5c0,0.5-0.4,0.9-0.9,0.9h-10.2c-3.5,0-6.4,2.9-6.4,6.4V426.9z"/>
			</g>
			<g id="XMLID_4662_">
				<circle id="XMLID_5624_" class="st0" cx="413.6" cy="414.5" r="2.5"/>
			</g>
		</g>
		<g id="XMLID_4639_">
			<g id="XMLID_4654_">
				<g id="XMLID_4660_">
					<rect id="XMLID_4963_" x="430.1" y="443.4" class="st5" width="6.3" height="6.3"/>
					<path id="XMLID_4977_" class="st0" d="M436.4,450.6h-6.3c-0.5,0-0.9-0.4-0.9-0.9v-6.3c0-0.5,0.4-0.9,0.9-0.9h6.3
						c0.5,0,0.9,0.4,0.9,0.9v6.3C437.3,450.1,436.9,450.6,436.4,450.6z M431,448.7h4.5v-4.5H431V448.7z"/>
				</g>
				<g id="XMLID_4655_">
					<g id="XMLID_4658_">
						<g id="XMLID_4659_">
							<path id="XMLID_4976_" class="st0" d="M422.1,444.8h-30.2c-0.5,0-0.9-0.4-0.9-0.9s0.4-0.9,0.9-0.9h30.2
								c0.5,0,0.9,0.4,0.9,0.9S422.6,444.8,422.1,444.8z"/>
						</g>
					</g>
					<g id="XMLID_4656_">
						<g id="XMLID_4657_">
							<path id="XMLID_4975_" class="st0" d="M422.1,450h-30.2c-0.5,0-0.9-0.4-0.9-0.9c0-0.5,0.4-0.9,0.9-0.9h30.2
								c0.5,0,0.9,0.4,0.9,0.9C423,449.6,422.6,450,422.1,450z"/>
						</g>
					</g>
				</g>
			</g>
			<g id="XMLID_4647_">
				<g id="XMLID_4653_">
					<path id="XMLID_4972_" class="st0" d="M437,468.8h-6.3c-0.5,0-0.9-0.4-0.9-0.9v-6.3c0-0.5,0.4-0.9,0.9-0.9h6.3
						c0.5,0,0.9,0.4,0.9,0.9v6.3C437.9,468.4,437.5,468.8,437,468.8z M431.6,467h4.5v-4.5h-4.5V467z"/>
				</g>
				<g id="XMLID_4648_">
					<g id="XMLID_4651_">
						<g id="XMLID_4652_">
							<path id="XMLID_4971_" class="st0" d="M421.5,463h-30.2c-0.5,0-0.9-0.4-0.9-0.9s0.4-0.9,0.9-0.9h30.2c0.5,0,0.9,0.4,0.9,0.9
								S422,463,421.5,463z"/>
						</g>
					</g>
					<g id="XMLID_4649_">
						<g id="XMLID_4650_">
							<path id="XMLID_4970_" class="st0" d="M421.5,468.3h-30.2c-0.5,0-0.9-0.4-0.9-0.9s0.4-0.9,0.9-0.9h30.2
								c0.5,0,0.9,0.4,0.9,0.9S422,468.3,421.5,468.3z"/>
						</g>
					</g>
				</g>
			</g>
			<g id="XMLID_4640_">
				<g id="XMLID_4646_">
					<path id="XMLID_4967_" class="st0" d="M437,487h-6.3c-0.5,0-0.9-0.4-0.9-0.9v-6.3c0-0.5,0.4-0.9,0.9-0.9h6.3
						c0.5,0,0.9,0.4,0.9,0.9v6.3C437.9,486.6,437.5,487,437,487z M431.6,485.2h4.5v-4.5h-4.5V485.2z"/>
				</g>
				<g id="XMLID_4641_">
					<g id="XMLID_4644_">
						<g id="XMLID_4645_">
							<path id="XMLID_4966_" class="st0" d="M421.5,481.3h-30.2c-0.5,0-0.9-0.4-0.9-0.9c0-0.5,0.4-0.9,0.9-0.9h30.2
								c0.5,0,0.9,0.4,0.9,0.9C422.4,480.9,422,481.3,421.5,481.3z"/>
						</g>
					</g>
					<g id="XMLID_4642_">
						<g id="XMLID_4643_">
							<path id="XMLID_4965_" class="st0" d="M421.5,486.5h-30.2c-0.5,0-0.9-0.4-0.9-0.9s0.4-0.9,0.9-0.9h30.2
								c0.5,0,0.9,0.4,0.9,0.9S422,486.5,421.5,486.5z"/>
						</g>
					</g>
				</g>
			</g>
		</g>
		<g id="XMLID_4638_">
			<path id="XMLID_4964_" class="st3" d="M410.4,424.6h-17.3c-0.7,0-1.4-0.6-1.4-1.4c0-0.7,0.6-1.4,1.4-1.4h17.3
				c0.7,0,1.4,0.6,1.4,1.4C411.8,424,411.2,424.6,410.4,424.6z"/>
		</g>
	</g>
	<g id="XMLID_4622_">
		<g id="XMLID_4629_">
			<g id="XMLID_4636_">
				<path id="XMLID_4957_" class="st6" d="M220.1,497.3h-73.3c-4.1,0-7.5-3.3-7.5-7.5v-73.3c0-4.1,3.3-7.5,7.5-7.5h73.3
					c4.1,0,7.5,3.3,7.5,7.5v73.3C227.5,494,224.2,497.3,220.1,497.3z"/>
				<path id="XMLID_4958_" class="st0" d="M219.9,498.2H147c-4.7,0-8.6-3.9-8.6-8.6v-72.8c0-4.7,3.9-8.6,8.6-8.6h72.8
					c4.7,0,8.6,3.9,8.6,8.6v72.8C228.4,494.4,224.6,498.2,219.9,498.2z M147,410c-3.7,0-6.8,3-6.8,6.8v72.8c0,3.7,3,6.8,6.8,6.8
					h72.8c3.7,0,6.8-3,6.8-6.8v-72.8c0-3.7-3-6.8-6.8-6.8H147z"/>
			</g>
			<g id="XMLID_4635_">
				<path id="XMLID_4953_" class="st7" d="M216.1,445.5h-19.2c-1.6,0-2.8-1.3-2.8-2.8l0,0c0-1.6,1.3-2.8,2.8-2.8h19.2
					c1.6,0,2.8,1.3,2.8,2.8l0,0C218.9,444.2,217.7,445.5,216.1,445.5z"/>
				<path id="XMLID_4954_" class="st0" d="M216.1,446.4h-19.2c-2.1,0-3.7-1.7-3.7-3.7c0-2.1,1.7-3.7,3.7-3.7h19.2
					c2.1,0,3.7,1.7,3.7,3.7C219.9,444.7,218.2,446.4,216.1,446.4z M196.9,440.7c-1.1,0-1.9,0.9-1.9,1.9c0,1.1,0.9,1.9,1.9,1.9h19.2
					c1.1,0,1.9-0.9,1.9-1.9c0-1.1-0.9-1.9-1.9-1.9H196.9z"/>
			</g>
			<g id="XMLID_4634_">
				<path id="XMLID_4949_" class="st7" d="M216.1,456h-19.2c-1.6,0-2.8-1.3-2.8-2.8l0,0c0-1.6,1.3-2.8,2.8-2.8h19.2
					c1.6,0,2.8,1.3,2.8,2.8l0,0C218.9,454.8,217.7,456,216.1,456z"/>
				<path id="XMLID_4950_" class="st0" d="M216.1,456.9h-19.2c-2.1,0-3.7-1.7-3.7-3.7c0-2.1,1.7-3.7,3.7-3.7h19.2
					c2.1,0,3.7,1.7,3.7,3.7C219.9,455.3,218.2,456.9,216.1,456.9z M196.9,451.3c-1.1,0-1.9,0.9-1.9,1.9c0,1.1,0.9,1.9,1.9,1.9h19.2
					c1.1,0,1.9-0.9,1.9-1.9c0-1.1-0.9-1.9-1.9-1.9H196.9z"/>
			</g>
			<g id="XMLID_4633_">
				<path id="XMLID_4945_" class="st7" d="M216.1,466.6h-19.2c-1.6,0-2.8-1.3-2.8-2.8l0,0c0-1.6,1.3-2.8,2.8-2.8h19.2
					c1.6,0,2.8,1.3,2.8,2.8l0,0C218.9,465.3,217.7,466.6,216.1,466.6z"/>
				<path id="XMLID_4946_" class="st0" d="M216.1,467.5h-19.2c-2.1,0-3.7-1.7-3.7-3.7c0-2.1,1.7-3.7,3.7-3.7h19.2
					c2.1,0,3.7,1.7,3.7,3.7C219.9,465.8,218.2,467.5,216.1,467.5z M196.9,461.8c-1.1,0-1.9,0.9-1.9,1.9c0,1.1,0.9,1.9,1.9,1.9h19.2
					c1.1,0,1.9-0.9,1.9-1.9c0-1.1-0.9-1.9-1.9-1.9H196.9z"/>
			</g>
			<g id="XMLID_4632_">
				<circle id="XMLID_4937_" class="st2" cx="167.4" cy="469.3" r="16.1"/>
				<path id="XMLID_4942_" class="st0" d="M167.4,486.2c-9.4,0-17-7.6-17-17c0-9.4,7.6-17,17-17c9.4,0,17,7.6,17,17
					C184.3,478.6,176.7,486.2,167.4,486.2z M167.4,454.1c-8.4,0-15.2,6.8-15.2,15.2c0,8.4,6.8,15.2,15.2,15.2s15.2-6.8,15.2-15.2
					C182.5,460.9,175.7,454.1,167.4,454.1z"/>
			</g>
			<g id="XMLID_4631_">
				<path id="XMLID_4939_" class="st0" d="M167.4,478.1c-4.9,0-8.8-4-8.8-8.8c0-4.9,4-8.8,8.8-8.8c4.9,0,8.8,4,8.8,8.8
					C176.2,474.1,172.2,478.1,167.4,478.1z M167.4,462.3c-3.9,0-7,3.1-7,7s3.1,7,7,7c3.9,0,7-3.1,7-7S171.2,462.3,167.4,462.3z"/>
			</g>
			<g id="XMLID_4630_">
				<path id="XMLID_4938_" class="st0" d="M139.3,452.7c-0.5,0-0.9-0.4-0.9-0.9s0.4-0.9,0.9-0.9c3.2,0,5.9-2.6,5.9-5.9v-17.1
					c0-3.2-2.6-5.9-5.9-5.9c-0.5,0-0.9-0.4-0.9-0.9c0-0.5,0.4-0.9,0.9-0.9c4.2,0,7.7,3.5,7.7,7.7V445
					C147,449.3,143.6,452.7,139.3,452.7z"/>
			</g>
		</g>
		<g id="XMLID_4626_">
			<g id="XMLID_4628_">
				<path id="XMLID_4933_" class="st7" d="M155.8,504.6L155.8,504.6c-2.3,0-4.1-1.8-4.1-4.1v-3.2h8.2v3.2
					C159.9,502.7,158.1,504.6,155.8,504.6z"/>
				<path id="XMLID_4934_" class="st0" d="M155.8,505.5c-2.7,0-5-2.2-5-5v-3.2c0-0.5,0.4-0.9,0.9-0.9h8.2c0.5,0,0.9,0.4,0.9,0.9v3.2
					C160.8,503.2,158.6,505.5,155.8,505.5z M152.7,498.2v2.3c0,1.7,1.4,3.2,3.2,3.2c1.7,0,3.2-1.4,3.2-3.2v-2.3H152.7z"/>
			</g>
			<g id="XMLID_4627_">
				<path id="XMLID_4894_" class="st7" d="M211,504.6L211,504.6c-2.3,0-4.1-1.8-4.1-4.1v-3.2h8.1v3.2
					C215.1,502.7,213.3,504.6,211,504.6z"/>
				<path id="XMLID_4930_" class="st0" d="M211,505.5c-2.7,0-5-2.2-5-5v-3.2c0-0.5,0.4-0.9,0.9-0.9h8.2c0.5,0,0.9,0.4,0.9,0.9v3.2
					C216,503.2,213.8,505.5,211,505.5z M207.9,498.2v2.3c0,1.7,1.4,3.2,3.2,3.2c1.7,0,3.2-1.4,3.2-3.2v-2.3H207.9z"/>
			</g>
		</g>
		<g id="XMLID_4625_">
			<path id="XMLID_4929_" class="st3" d="M185,420h-29.3c-0.7,0-1.4-0.6-1.4-1.4c0-0.7,0.6-1.4,1.4-1.4H185c0.7,0,1.4,0.6,1.4,1.4
				C186.4,419.4,185.8,420,185,420z"/>
		</g>
		<g id="XMLID_4624_">
			<path id="XMLID_4928_" class="st3" d="M176,429.7h-17.3c-0.7,0-1.4-0.6-1.4-1.4c0-0.7,0.6-1.4,1.4-1.4H176c0.7,0,1.4,0.6,1.4,1.4
				C177.4,429.1,176.8,429.7,176,429.7z"/>
		</g>
		<g id="XMLID_4623_">
			<path id="XMLID_4927_" class="st3" d="M170.4,493.2h-17.3c-0.7,0-1.4-0.6-1.4-1.4c0-0.7,0.6-1.4,1.4-1.4h17.3
				c0.7,0,1.4,0.6,1.4,1.4C171.7,492.6,171.1,493.2,170.4,493.2z"/>
		</g>
	</g>
	<g id="XMLID_4560_">
		<g id="XMLID_4590_">
			<g id="XMLID_4616_">
				<g id="XMLID_4621_">
					<rect id="XMLID_5530_" x="99.7" y="496.5" class="st2" width="11.9" height="2.7"/>
				</g>
				<g id="XMLID_4620_">
					<rect id="XMLID_5528_" x="102.8" y="496.5" class="st8" width="7.1" height="2.7"/>
				</g>
				<g id="XMLID_4619_">
					<path id="XMLID_4926_" class="st9" d="M105.6,499.5c-0.1,0-0.2-0.1-0.2-0.2v-2.7c0-0.1,0.1-0.2,0.2-0.2c0.1,0,0.2,0.1,0.2,0.2
						v2.7C105.9,499.4,105.8,499.5,105.6,499.5z"/>
				</g>
				<g id="XMLID_4618_">
					<path id="XMLID_4925_" class="st9" d="M106.4,499.5c-0.1,0-0.2-0.1-0.2-0.2v-2.7c0-0.1,0.1-0.2,0.2-0.2s0.2,0.1,0.2,0.2v2.7
						C106.6,499.4,106.5,499.5,106.4,499.5z"/>
				</g>
				<g id="XMLID_4617_">
					<path id="XMLID_4924_" class="st9" d="M107.5,499.5c-0.1,0-0.2-0.1-0.2-0.2v-2.7c0-0.1,0.1-0.2,0.2-0.2c0.1,0,0.2,0.1,0.2,0.2
						v2.7C107.7,499.4,107.6,499.5,107.5,499.5z"/>
				</g>
			</g>
			<g id="XMLID_4609_">
				<g id="XMLID_4615_">
					<rect id="XMLID_5519_" x="100.3" y="504.7" class="st2" width="11.9" height="2.7"/>
				</g>
				<g id="XMLID_4614_">
					<rect id="XMLID_5517_" x="104.8" y="504.7" class="st8" width="5.7" height="2.7"/>
				</g>
				<g id="XMLID_4613_">
					<path id="XMLID_4923_" class="st9" d="M106.2,507.6c-0.1,0-0.2-0.1-0.2-0.2v-2.7c0-0.1,0.1-0.2,0.2-0.2c0.1,0,0.2,0.1,0.2,0.2
						v2.7C106.4,507.5,106.3,507.6,106.2,507.6z"/>
				</g>
				<g id="XMLID_4612_">
					<path id="XMLID_4922_" class="st9" d="M107,507.6c-0.1,0-0.2-0.1-0.2-0.2v-2.7c0-0.1,0.1-0.2,0.2-0.2c0.1,0,0.2,0.1,0.2,0.2
						v2.7C107.2,507.5,107.1,507.6,107,507.6z"/>
				</g>
				<g id="XMLID_4611_">
					<path id="XMLID_4921_" class="st9" d="M108.1,507.6c-0.1,0-0.2-0.1-0.2-0.2v-2.7c0-0.1,0.1-0.2,0.2-0.2s0.2,0.1,0.2,0.2v2.7
						C108.3,507.5,108.2,507.6,108.1,507.6z"/>
				</g>
				<g id="XMLID_4610_">
					<path id="XMLID_4920_" class="st9" d="M109.3,507.6c-0.1,0-0.2-0.1-0.2-0.2v-2.7c0-0.1,0.1-0.2,0.2-0.2s0.2,0.1,0.2,0.2v2.7
						C109.6,507.5,109.5,507.6,109.3,507.6z"/>
				</g>
			</g>
			<g id="XMLID_4604_">
				<g id="XMLID_4608_">
					<rect id="XMLID_5506_" x="100.4" y="499.2" class="st2" width="11.9" height="2.7"/>
				</g>
				<g id="XMLID_4607_">
					<rect id="XMLID_5504_" x="105.1" y="499.2" class="st8" width="5.5" height="2.7"/>
				</g>
				<g id="XMLID_4606_">
					<path id="XMLID_4919_" class="st9" d="M107.3,502.2c-0.1,0-0.2-0.1-0.2-0.2v-2.7c0-0.1,0.1-0.2,0.2-0.2c0.1,0,0.2,0.1,0.2,0.2
						v2.7C107.5,502.1,107.4,502.2,107.3,502.2z"/>
				</g>
				<g id="XMLID_4605_">
					<path id="XMLID_4918_" class="st9" d="M108,502.2c-0.1,0-0.2-0.1-0.2-0.2v-2.7c0-0.1,0.1-0.2,0.2-0.2c0.1,0,0.2,0.1,0.2,0.2
						v2.7C108.3,502.1,108.1,502.2,108,502.2z"/>
				</g>
			</g>
			<g id="XMLID_4600_">
				<g id="XMLID_4603_">
					<rect id="XMLID_5497_" x="99.7" y="501.9" class="st2" width="11.9" height="2.7"/>
				</g>
				<g id="XMLID_4602_">
					<rect id="XMLID_5495_" x="104.4" y="501.9" class="st8" width="3.7" height="2.7"/>
				</g>
				<g id="XMLID_4601_">
					<path id="XMLID_4917_" class="st9" d="M106.5,504.9c-0.1,0-0.2-0.1-0.2-0.2v-2.7c0-0.1,0.1-0.2,0.2-0.2s0.2,0.1,0.2,0.2v2.7
						C106.8,504.8,106.7,504.9,106.5,504.9z"/>
				</g>
			</g>
			<g id="XMLID_4595_">
				<g id="XMLID_4599_">
					
						<rect id="XMLID_5490_" x="99.3" y="493.8" transform="matrix(-1 -1.224647e-016 1.224647e-016 -1 210.5247 990.3202)" class="st2" width="11.9" height="2.7"/>
				</g>
				<g id="XMLID_4598_">
					
						<rect id="XMLID_5488_" x="101" y="493.8" transform="matrix(-1 -1.224647e-016 1.224647e-016 -1 207.471 990.3202)" class="st8" width="5.5" height="2.7"/>
				</g>
				<g id="XMLID_4597_">
					<path id="XMLID_4916_" class="st9" d="M104.4,496.7c-0.1,0-0.2-0.1-0.2-0.2v-2.7c0-0.1,0.1-0.2,0.2-0.2s0.2,0.1,0.2,0.2v2.7
						C104.6,496.6,104.5,496.7,104.4,496.7z"/>
				</g>
				<g id="XMLID_4596_">
					<path id="XMLID_4915_" class="st9" d="M103.6,496.7c-0.1,0-0.2-0.1-0.2-0.2v-2.7c0-0.1,0.1-0.2,0.2-0.2c0.1,0,0.2,0.1,0.2,0.2
						v2.7C103.8,496.6,103.7,496.7,103.6,496.7z"/>
				</g>
			</g>
			<g id="XMLID_4591_">
				<g id="XMLID_4594_">
					
						<rect id="XMLID_5481_" x="100.4" y="491.1" transform="matrix(-1 -1.224647e-016 1.224647e-016 -1 212.7303 984.8914)" class="st2" width="11.9" height="2.7"/>
				</g>
				<g id="XMLID_4593_">
					
						<rect id="XMLID_5479_" x="104" y="491.1" transform="matrix(-1 -1.224647e-016 1.224647e-016 -1 211.5615 984.8914)" class="st8" width="3.7" height="2.7"/>
				</g>
				<g id="XMLID_4592_">
					<path id="XMLID_4914_" class="st9" d="M105.5,494c-0.1,0-0.2-0.1-0.2-0.2v-2.7c0-0.1,0.1-0.2,0.2-0.2c0.1,0,0.2,0.1,0.2,0.2
						v2.7C105.7,493.9,105.6,494,105.5,494z"/>
				</g>
			</g>
		</g>
		<g id="XMLID_4573_">
			<g id="XMLID_4583_">
				<g id="XMLID_4589_">
					
						<rect id="XMLID_5473_" x="86.5" y="499.2" transform="matrix(-1 -1.224647e-016 1.224647e-016 -1 184.8659 1001.1778)" class="st2" width="11.9" height="2.7"/>
				</g>
				<g id="XMLID_4588_">
					
						<rect id="XMLID_5471_" x="88.1" y="499.2" transform="matrix(-1 -1.224647e-016 1.224647e-016 -1 181.9629 1001.1778)" class="st8" width="5.7" height="2.7"/>
				</g>
				<g id="XMLID_4587_">
					<path id="XMLID_4913_" class="st9" d="M92.4,502.2c-0.1,0-0.2-0.1-0.2-0.2v-2.7c0-0.1,0.1-0.2,0.2-0.2c0.1,0,0.2,0.1,0.2,0.2
						v2.7C92.7,502.1,92.6,502.2,92.4,502.2z"/>
				</g>
				<g id="XMLID_4586_">
					<path id="XMLID_4912_" class="st9" d="M91.7,502.2c-0.1,0-0.2-0.1-0.2-0.2v-2.7c0-0.1,0.1-0.2,0.2-0.2s0.2,0.1,0.2,0.2v2.7
						C91.9,502.1,91.8,502.2,91.7,502.2z"/>
				</g>
				<g id="XMLID_4585_">
					<path id="XMLID_4911_" class="st9" d="M90.6,502.2c-0.1,0-0.2-0.1-0.2-0.2v-2.7c0-0.1,0.1-0.2,0.2-0.2c0.1,0,0.2,0.1,0.2,0.2
						v2.7C90.8,502.1,90.7,502.2,90.6,502.2z"/>
				</g>
				<g id="XMLID_4584_">
					<path id="XMLID_4910_" class="st9" d="M89.3,502.2c-0.1,0-0.2-0.1-0.2-0.2v-2.7c0-0.1,0.1-0.2,0.2-0.2s0.2,0.1,0.2,0.2v2.7
						C89.5,502.1,89.4,502.2,89.3,502.2z"/>
				</g>
			</g>
			<g id="XMLID_4578_">
				<g id="XMLID_4582_">
					
						<rect id="XMLID_5460_" x="86.3" y="504.7" transform="matrix(-1 -1.224647e-016 1.224647e-016 -1 184.5641 1012.0355)" class="st2" width="11.9" height="2.7"/>
				</g>
				<g id="XMLID_4581_">
					
						<rect id="XMLID_5458_" x="88" y="504.7" transform="matrix(-1 -1.224647e-016 1.224647e-016 -1 181.5105 1012.0355)" class="st8" width="5.5" height="2.7"/>
				</g>
				<g id="XMLID_4580_">
					<path id="XMLID_4909_" class="st9" d="M91.4,507.6c-0.1,0-0.2-0.1-0.2-0.2v-2.7c0-0.1,0.1-0.2,0.2-0.2s0.2,0.1,0.2,0.2v2.7
						C91.6,507.5,91.5,507.6,91.4,507.6z"/>
				</g>
				<g id="XMLID_4579_">
					<path id="XMLID_4908_" class="st9" d="M90.6,507.6c-0.1,0-0.2-0.1-0.2-0.2v-2.7c0-0.1,0.1-0.2,0.2-0.2s0.2,0.1,0.2,0.2v2.7
						C90.8,507.5,90.7,507.6,90.6,507.6z"/>
				</g>
			</g>
			<g id="XMLID_4574_">
				<g id="XMLID_4577_">
					
						<rect id="XMLID_5451_" x="87.1" y="501.9" transform="matrix(-1 -1.224647e-016 1.224647e-016 -1 186.0345 1006.6066)" class="st2" width="11.9" height="2.7"/>
				</g>
				<g id="XMLID_4576_">
					
						<rect id="XMLID_5449_" x="90.6" y="501.9" transform="matrix(-1 -1.224647e-016 1.224647e-016 -1 184.8659 1006.6066)" class="st8" width="3.7" height="2.7"/>
				</g>
				<g id="XMLID_4575_">
					<path id="XMLID_4907_" class="st9" d="M92.1,504.9c-0.1,0-0.2-0.1-0.2-0.2v-2.7c0-0.1,0.1-0.2,0.2-0.2c0.1,0,0.2,0.1,0.2,0.2
						v2.7C92.3,504.8,92.2,504.9,92.1,504.9z"/>
				</g>
			</g>
		</g>
		<g id="XMLID_4565_">
			<g id="XMLID_4572_">
				<circle id="XMLID_5443_" class="st2" cx="108.2" cy="485.9" r="5.9"/>
			</g>
			<g id="XMLID_4571_">
				<path id="XMLID_4904_" class="st9" d="M108.2,490.7c-2.6,0-4.8-2.2-4.8-4.8c0-2.6,2.2-4.8,4.8-4.8c2.6,0,4.8,2.2,4.8,4.8
					C113,488.5,110.9,490.7,108.2,490.7z M108.2,481.6c-2.4,0-4.3,1.9-4.3,4.3c0,2.4,1.9,4.3,4.3,4.3c2.4,0,4.3-1.9,4.3-4.3
					C112.6,483.5,110.6,481.6,108.2,481.6z"/>
			</g>
			<g id="XMLID_4566_">
				<g id="XMLID_4567_">
					<path id="XMLID_5434_" class="st8" d="M107.8,488.8v-0.5c-0.4-0.1-0.8-0.2-1.2-0.5c-0.2-0.2-0.3-0.5-0.1-0.7l0,0
						c0.2-0.2,0.5-0.2,0.7-0.1c0.2,0.2,0.4,0.3,0.6,0.3v-1c-0.5-0.1-0.8-0.3-1.1-0.5c-0.2-0.2-0.3-0.5-0.3-0.9c0-0.4,0.1-0.7,0.4-1
						c0.3-0.3,0.6-0.4,1-0.5V483h0.7v0.4c0.3,0,0.6,0.1,0.9,0.3c0.3,0.1,0.4,0.5,0.2,0.7l0,0c-0.1,0.2-0.4,0.3-0.6,0.2
						c-0.2-0.1-0.3-0.1-0.5-0.2v1c0.5,0.1,0.9,0.3,1.1,0.5c0.2,0.2,0.4,0.5,0.4,0.9c0,0.4-0.1,0.7-0.4,1c-0.3,0.3-0.6,0.4-1.1,0.5
						v0.5H107.8z M107.8,484.3c-0.2,0.1-0.3,0.2-0.3,0.4c0,0.2,0.1,0.3,0.3,0.4V484.3z M108.9,486.9c0-0.1,0-0.2-0.1-0.2
						c-0.1-0.1-0.1-0.1-0.3-0.2v0.9C108.8,487.2,108.9,487.1,108.9,486.9z"/>
				</g>
			</g>
		</g>
		<g id="XMLID_4561_">
			<g id="XMLID_4564_">
				<path id="XMLID_4901_" class="st0" d="M112.2,508.3h-11.9c-0.5,0-0.9-0.4-0.9-0.9v-1.9c-0.3-0.1-0.6-0.5-0.6-0.8v-2.7
					c0-0.4,0.3-0.8,0.7-0.9v-0.9c-0.4-0.1-0.7-0.4-0.7-0.9v-2c-0.2-0.2-0.4-0.4-0.4-0.7v-2.7c0-0.5,0.4-0.9,0.9-0.9h0.2v-1.8
					c0-0.5,0.4-0.9,0.9-0.9h11.9c0.5,0,0.9,0.4,0.9,0.9v2.7c0,0.5-0.4,0.9-0.9,0.9h-0.2v1.1c0.2,0.2,0.4,0.4,0.4,0.7v1.8
					c0.4,0.1,0.7,0.4,0.7,0.9v2.7c0,0.4-0.3,0.8-0.7,0.9v1c0.3,0.1,0.6,0.5,0.6,0.8v2.7C113.1,507.9,112.7,508.3,112.2,508.3z
					 M101.2,506.5h10.1v-1c-0.3-0.1-0.6-0.5-0.6-0.8v-2.7c0-0.4,0.3-0.8,0.7-0.9v-0.9c-0.4-0.1-0.7-0.4-0.7-0.9v-2
					c-0.2-0.2-0.4-0.4-0.4-0.7v-2.7c0-0.5,0.4-0.9,0.9-0.9h0.2V492h-10.1v1.8c0,0.5-0.4,0.9-0.9,0.9h-0.2v1.1
					c0.2,0.2,0.4,0.4,0.4,0.7v1.8c0.4,0.1,0.7,0.4,0.7,0.9v2.7c0,0.4-0.3,0.8-0.7,0.9v1c0.3,0.1,0.6,0.5,0.6,0.8V506.5z"/>
			</g>
			<g id="XMLID_4563_">
				<path id="XMLID_4898_" class="st0" d="M98.2,508.3H86.3c-0.5,0-0.9-0.4-0.9-0.9v-2.7c0-0.4,0.3-0.8,0.7-0.9v-1
					c-0.3-0.1-0.6-0.5-0.6-0.8v-2.7c0-0.5,0.4-0.9,0.9-0.9h11.9c0.5,0,0.9,0.4,0.9,0.9v1.9c0.3,0.1,0.6,0.5,0.6,0.8v2.7
					c0,0.4-0.3,0.8-0.7,0.9v1.8C99.1,507.9,98.7,508.3,98.2,508.3z M87.2,506.5h10.1v-1.8c0-0.4,0.3-0.8,0.7-0.9v-1
					c-0.3-0.1-0.6-0.5-0.6-0.8v-1.8H87.4v1c0.3,0.1,0.6,0.5,0.6,0.8v2.7c0,0.4-0.3,0.8-0.7,0.9V506.5z"/>
			</g>
			<g id="XMLID_4562_">
				<path id="XMLID_4895_" class="st0" d="M108.6,491.9c-3.7,0-6.8-3.1-6.8-6.8c0-3.7,3.1-6.8,6.8-6.8s6.8,3.1,6.8,6.8
					C115.4,488.9,112.4,491.9,108.6,491.9z M108.6,480.1c-2.8,0-5,2.2-5,5c0,2.8,2.2,5,5,5c2.8,0,5-2.2,5-5
					C113.6,482.4,111.4,480.1,108.6,480.1z"/>
			</g>
		</g>
	</g>
	<g id="XMLID_4534_">
		<g id="XMLID_4559_">
			<path id="XMLID_4890_" class="st7" d="M323.6,507.4H196.7c-6.2,0-9.7-7-6.1-12l0,0h139.2l0,0
				C333.3,500.4,329.8,507.4,323.6,507.4z"/>
			<path id="XMLID_4891_" class="st0" d="M323.6,508.3H196.7c-3.2,0-6.1-1.8-7.5-4.6c-1.5-2.8-1.2-6.2,0.6-8.8
				c0.2-0.2,0.4-0.4,0.7-0.4h139.2c0.3,0,0.6,0.1,0.7,0.4c1.9,2.6,2.1,6,0.6,8.8C329.7,506.5,326.8,508.3,323.6,508.3z M191,496.3
				c-1.2,2-1.3,4.4-0.3,6.5c1.2,2.3,3.4,3.6,5.9,3.6h126.9c2.5,0,4.8-1.4,5.9-3.6c1.1-2.1,1-4.5-0.3-6.5H191z"/>
		</g>
		<g id="XMLID_4558_">
			<path id="XMLID_4886_" class="st10" d="M314.5,495.4H205.8v-63.6c0-5.7,4.6-10.3,10.3-10.3h88.2c5.7,0,10.3,4.6,10.3,10.3V495.4z
				"/>
			<path id="XMLID_4887_" class="st0" d="M314.5,496.3H205.8c-0.5,0-0.9-0.4-0.9-0.9V432c0-6.3,5.1-11.4,11.4-11.4H304
				c6.3,0,11.4,5.1,11.4,11.4v63.4C315.4,495.9,315,496.3,314.5,496.3z M206.7,494.5h107V432c0-5.3-4.3-9.6-9.6-9.6h-87.8
				c-5.3,0-9.6,4.3-9.6,9.6V494.5z"/>
		</g>
		<g id="XMLID_4557_">
			<path id="XMLID_4882_" class="st4" d="M209.8,491.3V432c0-3.6,2.9-6.5,6.5-6.5H304c3.6,0,6.5,2.9,6.5,6.5v59.3H209.8z"/>
			<path id="XMLID_4883_" class="st0" d="M310.5,492.2H209.8c-0.5,0-0.9-0.4-0.9-0.9V432c0-4,3.3-7.3,7.3-7.3H304
				c4,0,7.3,3.3,7.3,7.3v59.3C311.4,491.8,311,492.2,310.5,492.2z M210.7,490.4h98.8V432c0-3-2.5-5.5-5.5-5.5h-87.8
				c-3,0-5.5,2.5-5.5,5.5V490.4z"/>
		</g>
		<g id="XMLID_4554_">
			<g id="XMLID_4556_">
				<path id="XMLID_4878_" class="st11" d="M228.6,465.5l2.1-10.4c-0.7-0.1-1.4-0.2-2.1-0.2c-5.8,0-10.6,4.7-10.6,10.6
					c0,5.8,4.7,10.6,10.6,10.6c5.8,0,10.6-4.7,10.6-10.6c0-0.7-0.1-1.4-0.2-2.1L228.6,465.5z"/>
				<path id="XMLID_4879_" class="st0" d="M228.6,476.9c-6.3,0-11.5-5.2-11.5-11.5c0-6.3,5.2-11.5,11.5-11.5c0.7,0,1.5,0.1,2.3,0.2
					c0.2,0,0.4,0.2,0.6,0.4c0.1,0.2,0.2,0.4,0.1,0.7l-1.8,9l9-1.8c0.2,0,0.5,0,0.7,0.1c0.2,0.1,0.3,0.3,0.4,0.6
					c0.1,0.7,0.2,1.5,0.2,2.3C240.1,471.8,234.9,476.9,228.6,476.9z M228.6,455.8c-5.3,0-9.7,4.3-9.7,9.7c0,5.3,4.3,9.7,9.7,9.7
					c5.3,0,9.7-4.3,9.7-9.7c0-0.3,0-0.7-0.1-1l-9.5,1.9c-0.3,0.1-0.6,0-0.8-0.2c-0.2-0.2-0.3-0.5-0.2-0.8l1.9-9.5
					C229.3,455.8,228.9,455.8,228.6,455.8z"/>
			</g>
			<g id="XMLID_4555_">
				<path id="XMLID_4871_" class="st6" d="M242.1,460.2c-0.8-4.2-4.1-7.5-8.3-8.3l-2.1,10.4L242.1,460.2z"/>
				<path id="XMLID_4875_" class="st0" d="M231.8,463.2c-0.2,0-0.5-0.1-0.6-0.3c-0.2-0.2-0.3-0.5-0.2-0.8l2.1-10.4
					c0.1-0.5,0.6-0.8,1.1-0.7c4.6,0.9,8.1,4.4,9,9c0.1,0.5-0.2,1-0.7,1.1l-10.4,2.1C231.9,463.2,231.8,463.2,231.8,463.2z
					 M234.5,453l-1.6,8.1l8.1-1.6C240.1,456.4,237.7,454,234.5,453z"/>
			</g>
		</g>
		<g id="XMLID_4551_">
			<g id="XMLID_4553_">
				<path id="XMLID_4874_" class="st0" d="M237.2,436.6H220c-0.5,0-0.9-0.4-0.9-0.9s0.4-0.9,0.9-0.9h17.3c0.5,0,0.9,0.4,0.9,0.9
					S237.7,436.6,237.2,436.6z"/>
			</g>
			<g id="XMLID_4552_">
				<path id="XMLID_4873_" class="st0" d="M239,444.8h-20.7c-0.5,0-0.9-0.4-0.9-0.9c0-0.5,0.4-0.9,0.9-0.9H239
					c0.5,0,0.9,0.4,0.9,0.9C239.9,444.4,239.5,444.8,239,444.8z"/>
			</g>
		</g>
		<g id="XMLID_4537_">
			<g id="XMLID_4550_">
				<path id="XMLID_4872_" class="st0" d="M304.9,486.7h-49.3c-0.5,0-0.9-0.4-0.9-0.9v-46c0-0.5,0.4-0.9,0.9-0.9
					c0.5,0,0.9,0.4,0.9,0.9v45.1h48.4c0.5,0,0.9,0.4,0.9,0.9C305.8,486.3,305.4,486.7,304.9,486.7z"/>
			</g>
			<g id="XMLID_4546_">
				<g id="XMLID_4549_">
					<rect id="XMLID_4867_" x="261.4" y="460.6" class="st11" width="9.1" height="25.2"/>
					<path id="XMLID_4868_" class="st0" d="M270.5,486.7h-9.1c-0.5,0-0.9-0.4-0.9-0.9v-25.2c0-0.5,0.4-0.9,0.9-0.9h9.1
						c0.5,0,0.9,0.4,0.9,0.9v25.2C271.4,486.3,271,486.7,270.5,486.7z M262.3,484.9h7.3v-23.4h-7.3V484.9z"/>
				</g>
				<g id="XMLID_4548_">
					<rect id="XMLID_4863_" x="275.8" y="467.6" class="st2" width="9.1" height="18.2"/>
					<path id="XMLID_4864_" class="st0" d="M284.8,486.7h-9.1c-0.5,0-0.9-0.4-0.9-0.9v-18.2c0-0.5,0.4-0.9,0.9-0.9h9.1
						c0.5,0,0.9,0.4,0.9,0.9v18.2C285.7,486.3,285.3,486.7,284.8,486.7z M276.7,484.9h7.3v-16.4h-7.3V484.9z"/>
				</g>
				<g id="XMLID_4547_">
					<rect id="XMLID_4850_" x="290.1" y="451.9" class="st6" width="9.1" height="33.8"/>
					<path id="XMLID_4860_" class="st0" d="M299.2,486.7h-9.1c-0.5,0-0.9-0.4-0.9-0.9v-33.8c0-0.5,0.4-0.9,0.9-0.9h9.1
						c0.5,0,0.9,0.4,0.9,0.9v33.8C300.1,486.3,299.7,486.7,299.2,486.7z M291,484.9h7.3v-32H291V484.9z"/>
				</g>
			</g>
			<g id="XMLID_4545_">
				<path id="XMLID_4859_" class="st0" d="M260.3,458.8c-0.3,0-0.6-0.2-0.8-0.5c-0.2-0.4-0.1-1,0.3-1.2l12.2-7
					c0.4-0.2,0.9-0.1,1.2,0.2l4.5,6.1l16.1-17.3c0.3-0.4,0.9-0.4,1.3,0c0.4,0.3,0.4,0.9,0,1.3l-16.8,18.1c-0.2,0.2-0.4,0.3-0.7,0.3
					c-0.3,0-0.5-0.1-0.7-0.4l-4.7-6.3l-11.5,6.6C260.6,458.8,260.5,458.8,260.3,458.8z"/>
			</g>
			<g id="XMLID_4544_">
				<path id="XMLID_4858_" class="st0" d="M294.5,446.8c-0.5,0-0.9-0.4-0.9-0.9v-5.2h-5.2c-0.5,0-0.9-0.4-0.9-0.9s0.4-0.9,0.9-0.9
					h6.1c0.5,0,0.9,0.4,0.9,0.9v6.1C295.4,446.4,295,446.8,294.5,446.8z"/>
			</g>
			<g id="XMLID_4538_">
				<g id="XMLID_4543_">
					<path id="XMLID_4857_" class="st0" d="M255.7,480.2h-5.4c-0.5,0-0.9-0.4-0.9-0.9c0-0.5,0.4-0.9,0.9-0.9h5.4
						c0.5,0,0.9,0.4,0.9,0.9C256.6,479.8,256.2,480.2,255.7,480.2z"/>
				</g>
				<g id="XMLID_4542_">
					<path id="XMLID_4856_" class="st0" d="M255.7,471.4h-5.4c-0.5,0-0.9-0.4-0.9-0.9c0-0.5,0.4-0.9,0.9-0.9h5.4
						c0.5,0,0.9,0.4,0.9,0.9C256.6,471,256.2,471.4,255.7,471.4z"/>
				</g>
				<g id="XMLID_4541_">
					<path id="XMLID_4855_" class="st0" d="M255.7,462.6h-5.4c-0.5,0-0.9-0.4-0.9-0.9s0.4-0.9,0.9-0.9h5.4c0.5,0,0.9,0.4,0.9,0.9
						S256.2,462.6,255.7,462.6z"/>
				</g>
				<g id="XMLID_4540_">
					<path id="XMLID_4854_" class="st0" d="M255.7,453.9h-5.4c-0.5,0-0.9-0.4-0.9-0.9c0-0.5,0.4-0.9,0.9-0.9h5.4
						c0.5,0,0.9,0.4,0.9,0.9C256.6,453.5,256.2,453.9,255.7,453.9z"/>
				</g>
				<g id="XMLID_4539_">
					<path id="XMLID_4853_" class="st0" d="M255.7,445.1h-5.4c-0.5,0-0.9-0.4-0.9-0.9c0-0.5,0.4-0.9,0.9-0.9h5.4
						c0.5,0,0.9,0.4,0.9,0.9C256.6,444.7,256.2,445.1,255.7,445.1z"/>
				</g>
			</g>
		</g>
		<g id="XMLID_4536_">
			<path id="XMLID_4852_" class="st0" d="M267.4,499.5h-14.6c-0.5,0-0.9-0.4-0.9-0.9s0.4-0.9,0.9-0.9h14.6c0.5,0,0.9,0.4,0.9,0.9
				S267.9,499.5,267.4,499.5z"/>
		</g>
		<g id="XMLID_4535_">
			<path id="XMLID_4851_" class="st3" d="M319.3,504.4H279c-0.7,0-1.4-0.6-1.4-1.4c0-0.7,0.6-1.4,1.4-1.4h40.2
				c0.7,0,1.4,0.6,1.4,1.4C320.6,503.8,320,504.4,319.3,504.4z"/>
		</g>
	</g>
	<g id="XMLID_4527_">
		<g id="XMLID_4533_">
			<path id="XMLID_4846_" class="st10" d="M287.7,392.2c0-4.1,3.3-7.4,7.4-7.4h13.9v36.7h-21.3V392.2z"/>
			<path id="XMLID_4847_" class="st0" d="M308.9,422.4h-21.3c-0.5,0-0.9-0.4-0.9-0.9v-29.3c0-4.6,3.7-8.3,8.3-8.3h13.9
				c0.5,0,0.9,0.4,0.9,0.9v36.7C309.8,422,309.4,422.4,308.9,422.4z M288.6,420.6H308v-34.8h-13c-3.6,0-6.5,2.9-6.5,6.5V420.6z"/>
		</g>
		<g id="XMLID_4532_">
			<path id="XMLID_4842_" class="st4" d="M309.3,469.4c-4.1,0-7.4-3.3-7.4-7.4l0.1-69.8c0-4.1-3.3-7.4-7.4-7.4h46
				c4.1,0,7.4,3.3,7.4,7.4v77.2H309.3z"/>
			<path id="XMLID_4843_" class="st0" d="M348,470.3h-38.7c-4.6,0-8.3-3.7-8.3-8.3l0.1-69.8c0-3.6-2.9-6.5-6.5-6.5
				c-0.5,0-0.9-0.4-0.9-0.9c0-0.5,0.4-0.9,0.9-0.9h46c4.6,0,8.3,3.7,8.3,8.3v77.2C348.9,469.9,348.5,470.3,348,470.3z M299.8,385.8
				c1.9,1.5,3.1,3.9,3.1,6.5l-0.1,69.8c0,3.6,2.9,6.5,6.5,6.5h37.8v-76.3c0-3.6-2.9-6.5-6.5-6.5H299.8z"/>
		</g>
		<g id="XMLID_4531_">
			<path id="XMLID_4838_" class="st10" d="M337.4,469.4v-49.5h-13.9c-4.1,0-7.4,3.3-7.4,7.4v4V462c0,4.1-3.3,7.4-7.4,7.4H337.4z"/>
			<path id="XMLID_4839_" class="st0" d="M337.4,470.3h-28.6c-0.5,0-0.9-0.4-0.9-0.9c0-0.5,0.4-0.9,0.9-0.9c3.6,0,6.5-2.9,6.5-6.5
				v-34.7c0-4.6,3.7-8.3,8.3-8.3h13.9c0.5,0,0.9,0.4,0.9,0.9v49.5C338.4,469.9,337.9,470.3,337.4,470.3z M314,468.5h22.6v-47.7h-13
				c-3.6,0-6.5,2.9-6.5,6.5V462C317.1,464.7,315.9,467,314,468.5z"/>
		</g>
		<g id="XMLID_4528_">
			<g id="XMLID_4530_">
				<path id="XMLID_4834_" class="st4" d="M323,419.9c4.1,0,7.4,3.3,7.4,7.4V500c0,4.1,3.3,7.4,7.4,7.4h38.6v-80.1
					c0-4.1-3.3-7.4-7.4-7.4H323z"/>
				<path id="XMLID_4835_" class="st0" d="M376.4,508.3h-38.6c-4.6,0-8.3-3.7-8.3-8.3v-72.7c0-3.6-2.9-6.5-6.5-6.5
					c-0.5,0-0.9-0.4-0.9-0.9s0.4-0.9,0.9-0.9h46c4.6,0,8.3,3.7,8.3,8.3v80.1C377.3,507.9,376.9,508.3,376.4,508.3z M328.2,420.8
					c1.9,1.5,3.1,3.9,3.1,6.5V500c0,3.6,2.9,6.5,6.5,6.5h37.7v-79.2c0-3.6-2.9-6.5-6.5-6.5H328.2z"/>
			</g>
			<g id="XMLID_4529_">
				<path id="XMLID_4821_" class="st10" d="M390.8,496v4c0,4.1-3.3,7.4-7.4,7.4h-46c4.1,0,7.4-3.3,7.4-7.4v-4H390.8z"/>
				<path id="XMLID_4831_" class="st0" d="M383.4,508.3h-46c-0.5,0-0.9-0.4-0.9-0.9c0-0.5,0.4-0.9,0.9-0.9c3.6,0,6.5-2.9,6.5-6.5v-4
					c0-0.5,0.4-0.9,0.9-0.9h46c0.5,0,0.9,0.4,0.9,0.9v4C391.7,504.6,388,508.3,383.4,508.3z M342.6,506.5h40.8
					c3.6,0,6.5-2.9,6.5-6.5v-3.1h-44.2v3.1C345.7,502.6,344.5,504.9,342.6,506.5z"/>
			</g>
		</g>
	</g>
	<g id="XMLID_4508_">
		<g id="XMLID_4525_">
			<g id="XMLID_4526_">
				<path id="XMLID_4830_" class="st0" d="M359.6,441h-23.7c-0.5,0-0.9-0.4-0.9-0.9s0.4-0.9,0.9-0.9h23.7c0.5,0,0.9,0.4,0.9,0.9
					S360.1,441,359.6,441z"/>
			</g>
		</g>
		<g id="XMLID_4523_">
			<g id="XMLID_4524_">
				<path id="XMLID_4829_" class="st0" d="M359.6,456.1h-23.7c-0.5,0-0.9-0.4-0.9-0.9s0.4-0.9,0.9-0.9h23.7c0.5,0,0.9,0.4,0.9,0.9
					S360.1,456.1,359.6,456.1z"/>
			</g>
		</g>
		<g id="XMLID_4521_">
			<g id="XMLID_4522_">
				<path id="XMLID_4828_" class="st0" d="M359.6,463.7h-23.7c-0.5,0-0.9-0.4-0.9-0.9s0.4-0.9,0.9-0.9h23.7c0.5,0,0.9,0.4,0.9,0.9
					S360.1,463.7,359.6,463.7z"/>
			</g>
		</g>
		<g id="XMLID_4519_">
			<g id="XMLID_4520_">
				<path id="XMLID_4827_" class="st0" d="M359.6,448.6h-23.7c-0.5,0-0.9-0.4-0.9-0.9s0.4-0.9,0.9-0.9h23.7c0.5,0,0.9,0.4,0.9,0.9
					S360.1,448.6,359.6,448.6z"/>
			</g>
		</g>
		<g id="XMLID_4517_">
			<g id="XMLID_4518_">
				<path id="XMLID_4826_" class="st0" d="M339.9,396.9h-23.7c-0.5,0-0.9-0.4-0.9-0.9c0-0.5,0.4-0.9,0.9-0.9h23.7
					c0.5,0,0.9,0.4,0.9,0.9C340.8,396.5,340.4,396.9,339.9,396.9z"/>
			</g>
		</g>
		<g id="XMLID_4515_">
			<g id="XMLID_4516_">
				<path id="XMLID_4825_" class="st0" d="M339.9,412h-23.7c-0.5,0-0.9-0.4-0.9-0.9c0-0.5,0.4-0.9,0.9-0.9h23.7
					c0.5,0,0.9,0.4,0.9,0.9C340.8,411.6,340.4,412,339.9,412z"/>
			</g>
		</g>
		<g id="XMLID_4513_">
			<g id="XMLID_4514_">
				<path id="XMLID_4824_" class="st0" d="M339.9,404.4h-23.7c-0.5,0-0.9-0.4-0.9-0.9s0.4-0.9,0.9-0.9h23.7c0.5,0,0.9,0.4,0.9,0.9
					S340.4,404.4,339.9,404.4z"/>
			</g>
		</g>
		<g id="XMLID_4511_">
			<g id="XMLID_4512_">
				<path id="XMLID_4823_" class="st0" d="M359.6,471.3h-23.7c-0.5,0-0.9-0.4-0.9-0.9s0.4-0.9,0.9-0.9h23.7c0.5,0,0.9,0.4,0.9,0.9
					S360.1,471.3,359.6,471.3z"/>
			</g>
		</g>
		<g id="XMLID_4509_">
			<g id="XMLID_4510_">
				<path id="XMLID_4822_" class="st0" d="M359.6,478.8h-23.7c-0.5,0-0.9-0.4-0.9-0.9c0-0.5,0.4-0.9,0.9-0.9h23.7
					c0.5,0,0.9,0.4,0.9,0.9C360.5,478.4,360.1,478.8,359.6,478.8z"/>
			</g>
		</g>
	</g>
	<g id="XMLID_4503_">
		<g id="XMLID_4507_">
			<circle id="XMLID_4815_" class="st2" cx="365" cy="430.3" r="5"/>
			<path id="XMLID_4818_" class="st0" d="M365,436.3c-3.3,0-5.9-2.7-5.9-5.9c0-3.3,2.7-5.9,5.9-5.9c3.3,0,5.9,2.7,5.9,5.9
				C370.9,433.6,368.2,436.3,365,436.3z M365,426.2c-2.3,0-4.1,1.8-4.1,4.1c0,2.3,1.8,4.1,4.1,4.1c2.3,0,4.1-1.8,4.1-4.1
				C369.1,428.1,367.2,426.2,365,426.2z"/>
		</g>
		<g id="XMLID_4504_">
			<g id="XMLID_4506_">
				<path id="XMLID_4817_" class="st0" d="M367.1,431.2h-4.2c-0.5,0-0.9-0.4-0.9-0.9c0-0.5,0.4-0.9,0.9-0.9h4.2
					c0.5,0,0.9,0.4,0.9,0.9C368,430.8,367.6,431.2,367.1,431.2z"/>
			</g>
			<g id="XMLID_4505_">
				<path id="XMLID_4816_" class="st0" d="M365,433.3c-0.5,0-0.9-0.4-0.9-0.9v-4.2c0-0.5,0.4-0.9,0.9-0.9c0.5,0,0.9,0.4,0.9,0.9v4.2
					C365.9,432.9,365.5,433.3,365,433.3z"/>
			</g>
		</g>
	</g>
	<g id="XMLID_4499_">
		<g id="XMLID_4502_">
			<circle id="XMLID_4810_" class="st11" cx="342" cy="488.3" r="5"/>
			<path id="XMLID_4812_" class="st0" d="M342,494.2c-3.3,0-5.9-2.7-5.9-5.9c0-3.3,2.7-5.9,5.9-5.9c3.3,0,5.9,2.7,5.9,5.9
				C347.9,491.5,345.3,494.2,342,494.2z M342,484.2c-2.3,0-4.1,1.8-4.1,4.1c0,2.3,1.8,4.1,4.1,4.1c2.3,0,4.1-1.8,4.1-4.1
				C346.1,486,344.3,484.2,342,484.2z"/>
		</g>
		<g id="XMLID_4500_">
			<g id="XMLID_4501_">
				<path id="XMLID_4811_" class="st0" d="M344.1,489.2h-4.2c-0.5,0-0.9-0.4-0.9-0.9s0.4-0.9,0.9-0.9h4.2c0.5,0,0.9,0.4,0.9,0.9
					S344.6,489.2,344.1,489.2z"/>
			</g>
		</g>
	</g>
	<g id="XMLID_4475_">
		<g id="XMLID_4498_">
			<path id="XMLID_4806_" class="st7" d="M401,491.2h-35c-1.1,0-2-0.9-2-2v-47.6c0-1.1,0.9-2,2-2h35c1.1,0,2,0.9,2,2v47.6
				C402.9,490.3,402.1,491.2,401,491.2z"/>
			<path id="XMLID_4807_" class="st0" d="M400.5,492.1h-34.1c-1.8,0-3.3-1.5-3.3-3.3v-46.7c0-1.8,1.5-3.3,3.3-3.3h34.1
				c1.8,0,3.3,1.5,3.3,3.3v46.7C403.9,490.6,402.4,492.1,400.5,492.1z M366.5,440.6c-0.8,0-1.5,0.7-1.5,1.5v46.7
				c0,0.8,0.7,1.5,1.5,1.5h34.1c0.8,0,1.5-0.7,1.5-1.5v-46.7c0-0.8-0.7-1.5-1.5-1.5H366.5z"/>
		</g>
		<g id="XMLID_4476_">
			<g id="XMLID_4497_">
				<path id="XMLID_5266_" class="st4" d="M395.9,453.4h-24.7c-1.8,0-3.2-1.4-3.2-3.2V447c0-1.8,1.4-3.2,3.2-3.2h24.7
					c1.8,0,3.2,1.4,3.2,3.2v3.2C399.1,451.9,397.6,453.4,395.9,453.4z"/>
			</g>
			<g id="XMLID_4492_">
				<g id="XMLID_4496_">
					<path id="XMLID_5264_" class="st11" d="M372,462.9h-2c-1.1,0-2-0.9-2-2v-2c0-1.1,0.9-2,2-2h2c1.1,0,2,0.9,2,2v2
						C374,462,373.1,462.9,372,462.9z"/>
				</g>
				<g id="XMLID_4495_">
					<path id="XMLID_5262_" class="st11" d="M380.3,462.9h-2c-1.1,0-2-0.9-2-2v-2c0-1.1,0.9-2,2-2h2c1.1,0,2,0.9,2,2v2
						C382.3,462,381.4,462.9,380.3,462.9z"/>
				</g>
				<g id="XMLID_4494_">
					<path id="XMLID_5260_" class="st11" d="M388.7,462.9h-2c-1.1,0-2-0.9-2-2v-2c0-1.1,0.9-2,2-2h2c1.1,0,2,0.9,2,2v2
						C390.7,462,389.8,462.9,388.7,462.9z"/>
				</g>
				<g id="XMLID_4493_">
					<path id="XMLID_5258_" class="st2" d="M397,462.9h-2c-1.1,0-2-0.9-2-2v-2c0-1.1,0.9-2,2-2h2c1.1,0,2,0.9,2,2v2
						C399.1,462,398.2,462.9,397,462.9z"/>
				</g>
			</g>
			<g id="XMLID_4487_">
				<g id="XMLID_4491_">
					<path id="XMLID_5255_" class="st12" d="M372,471h-2c-1.1,0-2-0.9-2-2v-2c0-1.1,0.9-2,2-2h2c1.1,0,2,0.9,2,2v2
						C374,470.1,373.1,471,372,471z"/>
				</g>
				<g id="XMLID_4490_">
					<path id="XMLID_5253_" class="st12" d="M380.3,471h-2c-1.1,0-2-0.9-2-2v-2c0-1.1,0.9-2,2-2h2c1.1,0,2,0.9,2,2v2
						C382.3,470.1,381.4,471,380.3,471z"/>
				</g>
				<g id="XMLID_4489_">
					<path id="XMLID_5251_" class="st12" d="M388.7,471h-2c-1.1,0-2-0.9-2-2v-2c0-1.1,0.9-2,2-2h2c1.1,0,2,0.9,2,2v2
						C390.7,470.1,389.8,471,388.7,471z"/>
				</g>
				<g id="XMLID_4488_">
					<path id="XMLID_5249_" class="st11" d="M397,471h-2c-1.1,0-2-0.9-2-2v-2c0-1.1,0.9-2,2-2h2c1.1,0,2,0.9,2,2v2
						C399.1,470.1,398.2,471,397,471z"/>
				</g>
			</g>
			<g id="XMLID_4482_">
				<g id="XMLID_4486_">
					<path id="XMLID_5246_" class="st12" d="M372,479.1h-2c-1.1,0-2-0.9-2-2v-2c0-1.1,0.9-2,2-2h2c1.1,0,2,0.9,2,2v2
						C374,478.2,373.1,479.1,372,479.1z"/>
				</g>
				<g id="XMLID_4485_">
					<path id="XMLID_5244_" class="st12" d="M380.3,479.1h-2c-1.1,0-2-0.9-2-2v-2c0-1.1,0.9-2,2-2h2c1.1,0,2,0.9,2,2v2
						C382.3,478.2,381.4,479.1,380.3,479.1z"/>
				</g>
				<g id="XMLID_4484_">
					<path id="XMLID_5242_" class="st12" d="M388.7,479.1h-2c-1.1,0-2-0.9-2-2v-2c0-1.1,0.9-2,2-2h2c1.1,0,2,0.9,2,2v2
						C390.7,478.2,389.8,479.1,388.7,479.1z"/>
				</g>
				<g id="XMLID_4483_">
					<path id="XMLID_5240_" class="st11" d="M397,479.1h-2c-1.1,0-2-0.9-2-2v-2c0-1.1,0.9-2,2-2h2c1.1,0,2,0.9,2,2v2
						C399.1,478.2,398.2,479.1,397,479.1z"/>
				</g>
			</g>
			<g id="XMLID_4477_">
				<g id="XMLID_4481_">
					<path id="XMLID_5237_" class="st12" d="M372,487.2h-2c-1.1,0-2-0.9-2-2v-2c0-1.1,0.9-2,2-2h2c1.1,0,2,0.9,2,2v2
						C374,486.3,373.1,487.2,372,487.2z"/>
				</g>
				<g id="XMLID_4480_">
					<path id="XMLID_5235_" class="st12" d="M380.3,487.2h-2c-1.1,0-2-0.9-2-2v-2c0-1.1,0.9-2,2-2h2c1.1,0,2,0.9,2,2v2
						C382.3,486.3,381.4,487.2,380.3,487.2z"/>
				</g>
				<g id="XMLID_4479_">
					<path id="XMLID_5233_" class="st12" d="M388.7,487.2h-2c-1.1,0-2-0.9-2-2v-2c0-1.1,0.9-2,2-2h2c1.1,0,2,0.9,2,2v2
						C390.7,486.3,389.8,487.2,388.7,487.2z"/>
				</g>
				<g id="XMLID_4478_">
					<path id="XMLID_5231_" class="st11" d="M397,487.2h-2c-1.1,0-2-0.9-2-2v-2c0-1.1,0.9-2,2-2h2c1.1,0,2,0.9,2,2v2
						C399.1,486.3,398.2,487.2,397,487.2z"/>
				</g>
			</g>
		</g>
	</g>
	<g id="XMLID_4468_">
		<g id="XMLID_4474_">
			<path id="XMLID_4459_" class="st6" d="M439.1,452.3l5.4-9.1c-2.4-3.6-3.8-8-3.8-12.6c0-12.6,10.2-22.7,22.7-22.7
				c12.6,0,22.7,10.2,22.7,22.7c0,12.6-10.2,22.7-22.7,22.7c-4.7,0-9.1-1.4-12.8-3.9l-9.7,4.8C439.6,454.8,438.4,453.5,439.1,452.3z
				"/>
			<path id="XMLID_4803_" class="st0" d="M440.2,455.2c-0.6,0-1.2-0.2-1.6-0.7c-0.7-0.7-0.8-1.8-0.3-2.7l5.1-8.6
				c-2.4-3.8-3.7-8.2-3.7-12.7c0-13,10.6-23.6,23.6-23.6c13,0,23.6,10.6,23.6,23.6c0,13-10.6,23.6-23.6,23.6c-4.6,0-9-1.3-12.8-3.8
				l-9.3,4.6C440.9,455.2,440.6,455.2,440.2,455.2z M463.3,408.7c-12,0-21.8,9.8-21.8,21.8c0,4.3,1.3,8.5,3.7,12.1
				c0.2,0.3,0.2,0.7,0,1l-5.4,9.1l0,0c-0.1,0.3,0,0.4,0.1,0.5c0.1,0.1,0.3,0.2,0.5,0.1l9.7-4.8c0.3-0.1,0.6-0.1,0.9,0.1
				c3.6,2.5,7.9,3.8,12.3,3.8c12,0,21.8-9.8,21.8-21.8C485.2,418.5,475.4,408.7,463.3,408.7z"/>
		</g>
		<g id="XMLID_4469_">
			<g id="XMLID_4470_">
				<path id="XMLID_5218_" class="st3" d="M461.8,446.3v-2.7c-2.3-0.4-4.4-1.2-6.4-2.5c-1.3-0.9-1.5-2.7-0.5-3.9l0,0
					c0.9-1.1,2.4-1.3,3.6-0.5c1.2,0.8,2.3,1.4,3.3,1.7v-5.5c-2.6-0.7-4.5-1.6-5.7-2.7c-1.2-1.1-1.8-2.7-1.8-4.8
					c0-2.1,0.7-3.9,2.1-5.2c1.4-1.4,3.2-2.2,5.4-2.5v-1.8h3.9v1.9c1.6,0.2,3.1,0.7,4.7,1.5c1.5,0.7,2,2.6,1.1,3.9l0,0
					c-0.8,1.1-2.2,1.5-3.4,0.8c-0.8-0.5-1.6-0.8-2.4-1v5.3c2.7,0.7,4.6,1.6,5.9,2.8c1.3,1.2,1.9,2.8,1.9,4.9c0,2.1-0.7,3.9-2.1,5.3
					c-1.4,1.4-3.3,2.2-5.7,2.5v2.6H461.8z M461.8,422.8c-1.1,0.4-1.6,1-1.6,2c0,1,0.5,1.7,1.6,2.3V422.8z M467.7,436.3
					c0-0.5-0.1-0.9-0.4-1.3c-0.3-0.3-0.8-0.7-1.5-1v4.6C467,438.2,467.7,437.4,467.7,436.3z"/>
			</g>
		</g>
	</g>
	<g id="XMLID_4461_">
		<g id="XMLID_4465_">
			<g id="XMLID_4467_">
				<path id="XMLID_4802_" class="st0" d="M78.9,421.5c-0.2,0-0.5-0.1-0.6-0.3c-0.4-0.4-0.4-0.9,0-1.3l4.3-4.3
					c0.2-0.2,0.4-0.3,0.6-0.3l0,0c0.2,0,0.5,0.1,0.6,0.3l4.3,4.3c0.4,0.4,0.4,0.9,0,1.3c-0.4,0.4-0.9,0.4-1.3,0l-3.7-3.7l-3.7,3.7
					C79.4,421.4,79.2,421.5,78.9,421.5z"/>
			</g>
			<g id="XMLID_4466_">
				<path id="XMLID_4801_" class="st0" d="M83.3,441.5c-0.5,0-0.9-0.4-0.9-0.9v-24.4c0-0.5,0.4-0.9,0.9-0.9c0.5,0,0.9,0.4,0.9,0.9
					v24.4C84.2,441.1,83.8,441.5,83.3,441.5z"/>
			</g>
		</g>
		<g id="XMLID_4462_">
			<g id="XMLID_4464_">
				<path id="XMLID_4800_" class="st0" d="M93,440.2c-0.2,0-0.5-0.1-0.6-0.3l-4.3-4.3c-0.4-0.4-0.4-0.9,0-1.3c0.4-0.4,0.9-0.4,1.3,0
					L93,438l3.7-3.7c0.4-0.4,0.9-0.4,1.3,0c0.4,0.4,0.4,0.9,0,1.3l-4.3,4.3C93.5,440.1,93.3,440.2,93,440.2z"/>
			</g>
			<g id="XMLID_4463_">
				<path id="XMLID_4460_" class="st0" d="M93,440.2c-0.5,0-0.9-0.4-0.9-0.9v-24.4c0-0.5,0.4-0.9,0.9-0.9c0.5,0,0.9,0.4,0.9,0.9
					v24.4C93.9,439.8,93.5,440.2,93,440.2z"/>
			</g>
		</g>
	</g>
	<g id="XMLID_4457_">
		<g id="XMLID_4458_">
			<path id="XMLID_4455_" class="st2" d="M147.4,353l1.8,1.8c0.7,0.7,1.8,0.9,2.7,0.4c0.5-0.2,0.9-0.4,1.4-0.6
				c1-0.3,1.6-1.2,1.6-2.2l0-2.5c0-1.3,1.1-2.4,2.4-2.4l0,0c1.3,0,2.4,1.1,2.4,2.4v2.5c0,1,0.7,1.9,1.6,2.2c0.5,0.2,1,0.4,1.4,0.6
				c0.9,0.4,2,0.3,2.7-0.4l1.8-1.8c0.9-0.9,2.4-0.9,3.3,0l0,0c0.9,0.9,0.9,2.4,0,3.3l-1.8,1.8c-0.7,0.7-0.9,1.8-0.4,2.7
				c0.2,0.5,0.4,0.9,0.6,1.4c0.3,1,1.2,1.6,2.2,1.6h2.5c1.3,0,2.4,1.1,2.4,2.4l0,0c0,1.3-1.1,2.4-2.4,2.4h-2.5c-1,0-1.9,0.7-2.2,1.6
				c-0.2,0.5-0.4,1-0.6,1.4c-0.4,0.9-0.3,2,0.4,2.7l1.8,1.8c0.9,0.9,0.9,2.4,0,3.3v0c-0.9,0.9-2.4,0.9-3.3,0l-1.8-1.8
				c-0.7-0.7-1.8-0.9-2.7-0.4c-0.5,0.2-0.9,0.4-1.4,0.6c-1,0.3-1.6,1.2-1.6,2.2v2.5c0,1.3-1.1,2.4-2.4,2.4h0c-1.3,0-2.4-1.1-2.4-2.4
				v-2.5c0-1-0.7-1.9-1.6-2.2c-0.5-0.2-1-0.4-1.4-0.6c-0.9-0.4-2-0.3-2.7,0.4l-1.8,1.8c-0.9,0.9-2.4,0.9-3.3,0h0
				c-0.9-0.9-0.9-2.4,0-3.3l1.8-1.8c0.7-0.7,0.9-1.8,0.4-2.7c-0.2-0.5-0.4-0.9-0.6-1.4c-0.3-1-1.2-1.6-2.2-1.6H141
				c-1.3,0-2.4-1.1-2.4-2.4v0c0-1.3,1.1-2.4,2.4-2.4l2.5,0c1,0,1.9-0.7,2.2-1.6c0.2-0.5,0.4-1,0.6-1.4c0.4-0.9,0.3-2-0.4-2.7
				l-1.8-1.8c-0.9-0.9-0.9-2.4,0-3.3h0C145,352.1,146.5,352.1,147.4,353z M152.1,371.5c2.9,2.9,7.6,2.9,10.5,0
				c2.9-2.9,2.9-7.6,0-10.5s-7.6-2.9-10.5,0S149.2,368.6,152.1,371.5z"/>
			<path id="XMLID_4795_" class="st0" d="M157.3,385.8c-1.8,0-3.3-1.5-3.3-3.3v-2.5c0-0.6-0.4-1.2-1-1.4c-0.5-0.2-1-0.4-1.5-0.6
				c-0.6-0.3-1.3-0.2-1.7,0.3l-1.8,1.8c-1.3,1.3-3.3,1.3-4.6,0c-0.6-0.6-1-1.4-1-2.3c0-0.9,0.3-1.7,1-2.3l1.8-1.8
				c0.4-0.4,0.5-1.1,0.3-1.7c-0.2-0.5-0.5-1-0.6-1.5c-0.2-0.6-0.8-1-1.4-1H141c-1.8,0-3.3-1.5-3.3-3.3s1.5-3.3,3.3-3.3h2.5
				c0.6,0,1.2-0.4,1.4-1c0.2-0.5,0.4-1,0.6-1.5c0.3-0.6,0.2-1.3-0.3-1.7l-1.8-1.8c-1.3-1.3-1.3-3.3,0-4.6c1.3-1.3,3.3-1.3,4.6,0v0
				l1.8,1.8c0.4,0.4,1.1,0.5,1.7,0.3c0.5-0.2,1-0.5,1.5-0.6c0.6-0.2,1-0.8,1-1.4v-2.5c0-1.8,1.5-3.3,3.3-3.3s3.3,1.5,3.3,3.3v2.5
				c0,0.6,0.4,1.2,1,1.4c0.5,0.2,1,0.4,1.5,0.6c0.6,0.3,1.3,0.2,1.7-0.3l1.8-1.8c1.3-1.3,3.3-1.3,4.6,0c0.6,0.6,1,1.4,1,2.3
				s-0.3,1.7-1,2.3l-1.8,1.8c-0.4,0.4-0.5,1.1-0.3,1.7c0.2,0.5,0.5,1,0.6,1.5c0.2,0.6,0.8,1,1.4,1h2.5c1.8,0,3.3,1.5,3.3,3.3
				s-1.5,3.3-3.3,3.3h-2.5c-0.6,0-1.2,0.4-1.4,1c-0.2,0.5-0.4,1-0.6,1.5c-0.3,0.6-0.2,1.3,0.3,1.7l1.8,1.8c0.6,0.6,1,1.4,1,2.3
				c0,0.9-0.3,1.7-1,2.3c-1.3,1.3-3.3,1.3-4.6,0l-1.8-1.8c-0.4-0.4-1.1-0.5-1.7-0.3c-0.5,0.2-1,0.5-1.5,0.6c-0.6,0.2-1,0.8-1,1.4
				l0,2.5C160.6,384.4,159.1,385.8,157.3,385.8z M150.9,376.1c0.5,0,1,0.1,1.5,0.3c0.4,0.2,0.9,0.4,1.3,0.5c1.3,0.5,2.2,1.7,2.2,3.1
				v2.5c0,0.8,0.6,1.4,1.4,1.4c0.8,0,1.4-0.6,1.4-1.4l0-2.5c0-1.4,0.9-2.6,2.2-3.1c0.4-0.2,0.9-0.3,1.3-0.5c1.3-0.6,2.8-0.4,3.8,0.6
				l1.8,1.8c0.6,0.6,1.5,0.6,2,0c0.3-0.3,0.4-0.6,0.4-1c0-0.4-0.2-0.8-0.4-1l-1.8-1.8c-1-1-1.2-2.5-0.6-3.8c0.2-0.4,0.4-0.9,0.5-1.3
				c0.5-1.3,1.7-2.2,3.1-2.2h2.5c0.8,0,1.4-0.6,1.4-1.4s-0.6-1.4-1.4-1.4h-2.5c-1.4,0-2.6-0.9-3.1-2.2c-0.2-0.4-0.3-0.9-0.5-1.3
				c-0.6-1.3-0.4-2.8,0.6-3.8l1.8-1.8c0.3-0.3,0.4-0.6,0.4-1c0-0.4-0.2-0.8-0.4-1c-0.6-0.6-1.5-0.6-2,0l-1.8,1.8
				c-1,1-2.5,1.2-3.8,0.6c-0.4-0.2-0.9-0.4-1.3-0.5c-1.3-0.5-2.2-1.7-2.2-3.1v-2.5c0-0.8-0.6-1.4-1.4-1.4s-1.4,0.6-1.4,1.4v2.5
				c0,1.4-0.9,2.6-2.2,3.1c-0.4,0.2-0.9,0.3-1.3,0.5c-1.3,0.6-2.8,0.4-3.8-0.6l-1.8-1.8c-0.6-0.6-1.5-0.6-2,0c-0.6,0.6-0.6,1.5,0,2
				l1.8,1.8c1,1,1.2,2.5,0.6,3.8c-0.2,0.4-0.4,0.9-0.5,1.3c-0.5,1.3-1.7,2.2-3.1,2.2H141c-0.8,0-1.4,0.6-1.4,1.4
				c0,0.8,0.6,1.4,1.4,1.4h2.5c1.4,0,2.6,0.9,3.1,2.2c0.2,0.4,0.3,0.9,0.5,1.3c0.6,1.3,0.4,2.8-0.6,3.8l-1.8,1.8
				c-0.3,0.3-0.4,0.6-0.4,1c0,0.4,0.2,0.8,0.4,1c0.6,0.6,1.5,0.6,2,0l1.8-1.8C149.2,376.4,150,376.1,150.9,376.1z M157.3,374.6
				c-2.1,0-4.3-0.8-5.9-2.4c-3.3-3.3-3.3-8.6,0-11.8c3.3-3.3,8.6-3.3,11.8,0c3.3,3.3,3.3,8.6,0,11.8
				C161.6,373.8,159.5,374.6,157.3,374.6z M157.3,359.7c-1.7,0-3.4,0.6-4.6,1.9c-2.6,2.6-2.6,6.7,0,9.3c2.6,2.6,6.7,2.6,9.3,0
				c2.6-2.6,2.6-6.7,0-9.3C160.7,360.3,159,359.7,157.3,359.7z"/>
		</g>
	</g>
	<g id="XMLID_4453_">
		<g id="XMLID_4454_">
			<path id="XMLID_4785_" class="st6" d="M174,375.8l0.8,1.7c0.3,0.7,1.1,1.1,1.9,1c0.4,0,0.8-0.1,1.2-0.1c0.8,0,1.5-0.4,1.8-1.2
				l0.7-1.8c0.3-0.9,1.4-1.4,2.3-1.1l0,0c0.9,0.3,1.4,1.4,1.1,2.3l-0.7,1.8c-0.3,0.7,0,1.5,0.6,2c0.3,0.2,0.6,0.5,0.9,0.8
				c0.5,0.6,1.4,0.7,2.1,0.4l1.7-0.8c0.9-0.4,2,0,2.4,0.9v0c0.4,0.9,0,2-0.9,2.4l-1.7,0.8c-0.7,0.3-1.1,1.1-1,1.9
				c0,0.4,0.1,0.8,0.1,1.2c0,0.8,0.4,1.5,1.2,1.8l1.8,0.7c0.9,0.3,1.4,1.4,1.1,2.3v0c-0.3,0.9-1.4,1.4-2.3,1.1l-1.8-0.7
				c-0.7-0.3-1.5,0-2,0.6c-0.2,0.3-0.5,0.6-0.8,0.9c-0.6,0.5-0.7,1.4-0.4,2.1l0.8,1.7c0.4,0.9,0,2-0.9,2.4h0c-0.9,0.4-2,0-2.4-0.9
				l-0.8-1.7c-0.3-0.7-1.1-1.1-1.9-1c-0.4,0-0.8,0.1-1.2,0.1c-0.8,0-1.5,0.4-1.8,1.2l-0.7,1.8c-0.3,0.9-1.4,1.4-2.3,1.1h0
				c-0.9-0.3-1.4-1.4-1.1-2.3l0.7-1.8c0.3-0.7,0-1.5-0.6-2c-0.3-0.2-0.6-0.5-0.9-0.8c-0.5-0.6-1.4-0.7-2.1-0.4l-1.7,0.8
				c-0.9,0.4-2,0-2.4-0.9l0,0c-0.4-0.9,0-2,0.9-2.4l1.7-0.8c0.7-0.3,1.1-1.1,1-1.9c0-0.4-0.1-0.8-0.1-1.2c0-0.8-0.4-1.5-1.2-1.8
				l-1.8-0.7c-0.9-0.3-1.4-1.4-1.1-2.3v0c0.3-0.9,1.4-1.4,2.3-1.1l1.8,0.7c0.7,0.3,1.5,0,2-0.6c0.2-0.3,0.5-0.6,0.8-0.9
				c0.6-0.5,0.7-1.4,0.4-2.1l-0.8-1.7c-0.4-0.9,0-2,0.9-2.4h0C172.5,374.5,173.6,374.9,174,375.8z M172.6,390.3
				c1.3,2.8,4.7,4.1,7.6,2.7c2.8-1.3,4.1-4.7,2.7-7.6c-1.3-2.8-4.7-4.1-7.6-2.7C172.5,384.1,171.2,387.5,172.6,390.3z"/>
			<path id="XMLID_4789_" class="st0" d="M173.5,402.4c-0.3,0-0.6-0.1-0.9-0.2c-0.7-0.2-1.2-0.7-1.5-1.4c-0.3-0.7-0.3-1.4-0.1-2.1
				l0.7-1.8c0.1-0.4,0-0.8-0.3-1c-0.3-0.3-0.7-0.6-0.9-0.9c-0.3-0.3-0.7-0.4-1-0.2l-1.7,0.8c-0.7,0.3-1.4,0.3-2.1,0.1
				c-0.7-0.2-1.2-0.7-1.5-1.4c-0.6-1.3-0.1-3,1.3-3.6l1.7-0.8c0.3-0.2,0.5-0.5,0.5-0.9c0-0.4-0.1-0.9-0.1-1.3c0-0.4-0.2-0.8-0.6-0.9
				l-1.8-0.7c-0.7-0.2-1.2-0.7-1.5-1.4c-0.3-0.7-0.3-1.4-0.1-2.1c0.2-0.7,0.7-1.2,1.4-1.5c0.7-0.3,1.4-0.3,2.1-0.1l1.8,0.7
				c0.4,0.1,0.8,0,1-0.3c0.3-0.3,0.6-0.7,0.9-0.9c0.3-0.3,0.4-0.7,0.2-1l-0.8-1.7c-0.3-0.7-0.3-1.4-0.1-2.1c0.2-0.7,0.7-1.2,1.4-1.5
				c1.3-0.6,3-0.1,3.6,1.3l0.8,1.7c0.2,0.3,0.5,0.5,0.9,0.5c0.4,0,0.9-0.1,1.3-0.1c0.4,0,0.8-0.2,0.9-0.6l0.7-1.8
				c0.2-0.7,0.7-1.2,1.4-1.5c0.7-0.3,1.4-0.3,2.1-0.1c1.4,0.5,2.1,2.1,1.6,3.5l-0.7,1.8c-0.1,0.4,0,0.8,0.3,1
				c0.3,0.3,0.7,0.6,0.9,0.9c0.3,0.3,0.7,0.4,1,0.2l1.7-0.8c0.7-0.3,1.4-0.3,2.1-0.1c0.7,0.2,1.2,0.7,1.5,1.4c0.6,1.3,0.1,3-1.3,3.6
				l-1.7,0.8c-0.3,0.2-0.5,0.5-0.5,0.9c0,0.4,0.1,0.9,0.1,1.3c0,0.4,0.2,0.8,0.6,0.9l1.8,0.7c1.4,0.5,2.1,2.1,1.6,3.5
				c-0.5,1.4-2.1,2.1-3.5,1.6l-1.8-0.7c-0.4-0.1-0.8,0-1,0.3c-0.3,0.3-0.6,0.7-0.9,0.9c-0.3,0.3-0.4,0.7-0.2,1l0.8,1.7
				c0.6,1.3,0.1,3-1.3,3.6c-1.3,0.6-3,0.1-3.6-1.3l-0.8-1.7c-0.2-0.3-0.5-0.5-0.9-0.5c-0.4,0-0.9,0.1-1.3,0.1
				c-0.4,0-0.8,0.2-0.9,0.6l-0.7,1.8C175.6,401.7,174.6,402.4,173.5,402.4z M169.7,393c0.7,0,1.4,0.3,2,0.8c0.2,0.3,0.5,0.5,0.8,0.7
				c0.9,0.7,1.3,2,0.9,3l-0.7,1.8c-0.1,0.2-0.1,0.5,0,0.7c0.1,0.2,0.3,0.4,0.5,0.5c0.5,0.2,1-0.1,1.1-0.5l0.7-1.8
				c0.4-1.1,1.5-1.8,2.6-1.8c0.4,0,0.7,0,1.1-0.1c1.2-0.1,2.3,0.5,2.8,1.5l0.8,1.7c0.1,0.2,0.3,0.4,0.5,0.5c0.2,0.1,0.5,0.1,0.7,0
				c0.2-0.1,0.4-0.3,0.5-0.5c0.1-0.2,0.1-0.5,0-0.7l-0.8-1.7c-0.5-1-0.3-2.3,0.6-3.1c0.3-0.2,0.5-0.5,0.7-0.8c0.7-0.9,2-1.3,3-0.9
				l1.8,0.7c0.5,0.2,1-0.1,1.1-0.5c0.2-0.5-0.1-1-0.5-1.1l-1.8-0.7c-1.1-0.4-1.8-1.4-1.8-2.6c0-0.4,0-0.7-0.1-1.1
				c-0.1-1.2,0.5-2.3,1.5-2.8l1.7-0.8c0.4-0.2,0.6-0.7,0.4-1.2c-0.1-0.2-0.3-0.4-0.5-0.5c-0.2-0.1-0.5-0.1-0.7,0l-1.7,0.8
				c-1,0.5-2.3,0.3-3.1-0.6c-0.2-0.3-0.5-0.5-0.8-0.7c-0.9-0.7-1.3-2-0.9-3l0.7-1.8c0.2-0.5-0.1-1-0.5-1.1c-0.2-0.1-0.5-0.1-0.7,0
				c-0.2,0.1-0.4,0.3-0.5,0.5l-0.7,1.8c-0.4,1.1-1.5,1.8-2.6,1.8c-0.3,0-0.7,0-1.1,0.1c-1.2,0.1-2.3-0.5-2.8-1.5l-0.8-1.7l0,0
				c-0.1-0.2-0.3-0.4-0.5-0.5c-0.2-0.1-0.5-0.1-0.7,0c-0.2,0.1-0.4,0.3-0.5,0.5c-0.1,0.2-0.1,0.5,0,0.7l0.8,1.7
				c0.5,1,0.3,2.3-0.6,3.1c-0.3,0.2-0.5,0.5-0.7,0.8c-0.7,0.9-2,1.3-3,0.9l-1.8-0.7c-0.5-0.2-1,0.1-1.1,0.5c-0.1,0.2-0.1,0.5,0,0.7
				c0.1,0.2,0.3,0.4,0.5,0.5l1.8,0.7c1.1,0.4,1.8,1.4,1.8,2.6c0,0.4,0,0.7,0.1,1.1c0.1,1.2-0.5,2.3-1.5,2.8l-1.7,0.8
				c-0.2,0.1-0.4,0.3-0.5,0.5c-0.1,0.2-0.1,0.5,0,0.7c0.1,0.2,0.3,0.4,0.5,0.5c0.2,0.1,0.5,0.1,0.7,0l1.7-0.8
				C168.9,393.1,169.3,393,169.7,393z M177.7,394.5c-0.8,0-1.5-0.1-2.2-0.4c-1.7-0.6-3-1.8-3.7-3.4c-0.7-1.6-0.8-3.4-0.2-5
				c0.6-1.7,1.8-3,3.4-3.7c1.6-0.8,3.4-0.8,5-0.2c1.7,0.6,3,1.8,3.7,3.4c0.8,1.6,0.8,3.4,0.2,5c-0.6,1.7-1.8,3-3.4,3.7
				C179.7,394.3,178.7,394.5,177.7,394.5z M177.7,383.1c-0.7,0-1.4,0.2-2,0.5c-1.2,0.5-2,1.5-2.5,2.7c-0.4,1.2-0.4,2.5,0.2,3.7v0
				c0.5,1.2,1.5,2,2.7,2.5c1.2,0.4,2.5,0.4,3.7-0.2c1.2-0.5,2-1.5,2.5-2.7c0.4-1.2,0.4-2.5-0.2-3.7c-0.5-1.2-1.5-2-2.7-2.5
				C178.8,383.2,178.3,383.1,177.7,383.1z"/>
		</g>
	</g>
	<g id="XMLID_4452_">
		<path id="XMLID_4786_" class="st0" d="M468.5,508.2H77.2c-0.5,0-0.9-0.4-0.9-0.9c0-0.5,0.4-0.9,0.9-0.9h391.4
			c0.5,0,0.9,0.4,0.9,0.9C469.4,507.8,469,508.2,468.5,508.2z"/>
	</g>
	<g id="XMLID_4451_">
		<circle id="XMLID_4781_" class="st4" cx="272.8" cy="407.6" r="3.4"/>
		<path id="XMLID_4782_" class="st0" d="M272.8,411.9c-2.3,0-4.3-1.9-4.3-4.3c0-2.3,1.9-4.3,4.3-4.3c2.3,0,4.3,1.9,4.3,4.3
			C277.1,410,275.2,411.9,272.8,411.9z M272.8,405.2c-1.3,0-2.4,1.1-2.4,2.4c0,1.3,1.1,2.4,2.4,2.4c1.3,0,2.4-1.1,2.4-2.4
			C275.3,406.3,274.2,405.2,272.8,405.2z"/>
	</g>
	<g id="XMLID_4450_">
		<circle id="XMLID_4777_" class="st4" cx="94.3" cy="473.3" r="3.4"/>
		<path id="XMLID_4778_" class="st0" d="M94.3,477.6c-2.3,0-4.3-1.9-4.3-4.3s1.9-4.3,4.3-4.3c2.3,0,4.3,1.9,4.3,4.3
			S96.6,477.6,94.3,477.6z M94.3,470.9c-1.3,0-2.4,1.1-2.4,2.4s1.1,2.4,2.4,2.4c1.3,0,2.4-1.1,2.4-2.4S95.6,470.9,94.3,470.9z"/>
	</g>
	<g id="XMLID_4449_">
		<circle id="XMLID_4773_" class="st4" cx="220" cy="374.3" r="3.4"/>
		<path id="XMLID_4774_" class="st0" d="M220,378.6c-2.3,0-4.3-1.9-4.3-4.3c0-2.3,1.9-4.3,4.3-4.3c2.3,0,4.3,1.9,4.3,4.3
			C224.2,376.7,222.3,378.6,220,378.6z M220,371.9c-1.3,0-2.4,1.1-2.4,2.4c0,1.3,1.1,2.4,2.4,2.4c1.3,0,2.4-1.1,2.4-2.4
			C222.4,373,221.3,371.9,220,371.9z"/>
	</g>
	<g id="XMLID_4448_">
		<circle id="XMLID_4769_" class="st4" cx="430.7" cy="387.9" r="3.4"/>
		<path id="XMLID_4770_" class="st0" d="M430.7,392.2c-2.3,0-4.3-1.9-4.3-4.3c0-2.3,1.9-4.3,4.3-4.3c2.3,0,4.3,1.9,4.3,4.3
			C435,390.3,433.1,392.2,430.7,392.2z M430.7,385.5c-1.3,0-2.4,1.1-2.4,2.4c0,1.3,1.1,2.4,2.4,2.4c1.3,0,2.4-1.1,2.4-2.4
			C433.2,386.6,432.1,385.5,430.7,385.5z"/>
	</g>
	<g id="XMLID_5013_">
		<circle id="XMLID_5017_" class="st4" cx="401.8" cy="346.6" r="3.4"/>
		<path id="XMLID_5014_" class="st0" d="M401.8,350.9c-2.3,0-4.3-1.9-4.3-4.3c0-2.3,1.9-4.3,4.3-4.3c2.3,0,4.3,1.9,4.3,4.3
			C406.1,348.9,404.2,350.9,401.8,350.9z M401.8,344.2c-1.3,0-2.4,1.1-2.4,2.4c0,1.3,1.1,2.4,2.4,2.4c1.3,0,2.4-1.1,2.4-2.4
			C404.3,345.3,403.2,344.2,401.8,344.2z"/>
	</g>
	<g id="XMLID_5018_">
		<circle id="XMLID_5022_" class="st4" cx="323.4" cy="324.9" r="3.4"/>
		<path id="XMLID_5019_" class="st0" d="M323.4,329.1c-2.3,0-4.3-1.9-4.3-4.3c0-2.3,1.9-4.3,4.3-4.3c2.3,0,4.3,1.9,4.3,4.3
			C327.7,327.2,325.8,329.1,323.4,329.1z M323.4,322.4c-1.3,0-2.4,1.1-2.4,2.4c0,1.3,1.1,2.4,2.4,2.4c1.3,0,2.4-1.1,2.4-2.4
			C325.9,323.5,324.8,322.4,323.4,322.4z"/>
	</g>
	<g id="XMLID_4447_">
		<circle id="XMLID_4745_" class="st4" cx="521.7" cy="443.8" r="3.4"/>
		<path id="XMLID_4766_" class="st0" d="M521.7,448c-2.3,0-4.3-1.9-4.3-4.3c0-2.3,1.9-4.3,4.3-4.3c2.3,0,4.3,1.9,4.3,4.3
			C526,446.1,524.1,448,521.7,448z M521.7,441.3c-1.3,0-2.4,1.1-2.4,2.4c0,1.3,1.1,2.4,2.4,2.4c1.3,0,2.4-1.1,2.4-2.4
			C524.2,442.4,523.1,441.3,521.7,441.3z"/>
	</g>
	<g id="XMLID_4444_">
		<g id="XMLID_4446_">
			<path id="XMLID_4765_" class="st0" d="M351,365.3h-4.2c-0.5,0-0.9-0.4-0.9-0.9s0.4-0.9,0.9-0.9h4.2c0.5,0,0.9,0.4,0.9,0.9
				S351.5,365.3,351,365.3z"/>
		</g>
		<g id="XMLID_4445_">
			<path id="XMLID_4764_" class="st0" d="M348.9,367.4c-0.5,0-0.9-0.4-0.9-0.9v-4.2c0-0.5,0.4-0.9,0.9-0.9s0.9,0.4,0.9,0.9v4.2
				C349.8,367,349.4,367.4,348.9,367.4z"/>
		</g>
	</g>
	<g id="XMLID_5023_">
		<g id="XMLID_5026_">
			<path id="XMLID_5027_" class="st0" d="M455.9,370h-4.2c-0.5,0-0.9-0.4-0.9-0.9c0-0.5,0.4-0.9,0.9-0.9h4.2c0.5,0,0.9,0.4,0.9,0.9
				C456.8,369.6,456.4,370,455.9,370z"/>
		</g>
		<g id="XMLID_5024_">
			<path id="XMLID_5025_" class="st0" d="M453.8,372.1c-0.5,0-0.9-0.4-0.9-0.9V367c0-0.5,0.4-0.9,0.9-0.9c0.5,0,0.9,0.4,0.9,0.9v4.2
				C454.7,371.7,454.3,372.1,453.8,372.1z"/>
		</g>
	</g>
	<g id="XMLID_4441_">
		<g id="XMLID_4443_">
			<path id="XMLID_4763_" class="st0" d="M514.9,404.1h-4.2c-0.5,0-0.9-0.4-0.9-0.9s0.4-0.9,0.9-0.9h4.2c0.5,0,0.9,0.4,0.9,0.9
				S515.4,404.1,514.9,404.1z"/>
		</g>
		<g id="XMLID_4442_">
			<path id="XMLID_4762_" class="st0" d="M512.8,406.2c-0.5,0-0.9-0.4-0.9-0.9v-4.2c0-0.5,0.4-0.9,0.9-0.9c0.5,0,0.9,0.4,0.9,0.9
				v4.2C513.7,405.8,513.3,406.2,512.8,406.2z"/>
		</g>
	</g>
	<g id="XMLID_4438_">
		<g id="XMLID_4440_">
			<path id="XMLID_4761_" class="st0" d="M271.6,376.2h-4.2c-0.5,0-0.9-0.4-0.9-0.9c0-0.5,0.4-0.9,0.9-0.9h4.2
				c0.5,0,0.9,0.4,0.9,0.9C272.5,375.8,272.1,376.2,271.6,376.2z"/>
		</g>
		<g id="XMLID_4439_">
			<path id="XMLID_4760_" class="st0" d="M269.5,378.3c-0.5,0-0.9-0.4-0.9-0.9v-4.2c0-0.5,0.4-0.9,0.9-0.9c0.5,0,0.9,0.4,0.9,0.9
				v4.2C270.4,377.9,270,378.3,269.5,378.3z"/>
		</g>
	</g>
	<g id="XMLID_4435_">
		<g id="XMLID_4437_">
			<path id="XMLID_4759_" class="st0" d="M460.7,463h-4.2c-0.5,0-0.9-0.4-0.9-0.9s0.4-0.9,0.9-0.9h4.2c0.5,0,0.9,0.4,0.9,0.9
				S461.2,463,460.7,463z"/>
		</g>
		<g id="XMLID_4436_">
			<path id="XMLID_4758_" class="st0" d="M458.6,465.1c-0.5,0-0.9-0.4-0.9-0.9V460c0-0.5,0.4-0.9,0.9-0.9c0.5,0,0.9,0.4,0.9,0.9v4.2
				C459.6,464.7,459.1,465.1,458.6,465.1z"/>
		</g>
	</g>
	<g id="XMLID_4432_">
		<g id="XMLID_4434_">
			<path id="XMLID_4757_" class="st0" d="M233.9,406.7h-4.2c-0.5,0-0.9-0.4-0.9-0.9c0-0.5,0.4-0.9,0.9-0.9h4.2
				c0.5,0,0.9,0.4,0.9,0.9C234.8,406.3,234.4,406.7,233.9,406.7z"/>
		</g>
		<g id="XMLID_4433_">
			<path id="XMLID_4756_" class="st0" d="M231.8,408.8c-0.5,0-0.9-0.4-0.9-0.9v-4.2c0-0.5,0.4-0.9,0.9-0.9c0.5,0,0.9,0.4,0.9,0.9
				v4.2C232.7,408.4,232.3,408.8,231.8,408.8z"/>
		</g>
	</g>
	<g id="XMLID_4429_">
		<g id="XMLID_4431_">
			<path id="XMLID_4755_" class="st0" d="M79.3,483.2h-4.2c-0.5,0-0.9-0.4-0.9-0.9c0-0.5,0.4-0.9,0.9-0.9h4.2c0.5,0,0.9,0.4,0.9,0.9
				C80.2,482.8,79.8,483.2,79.3,483.2z"/>
		</g>
		<g id="XMLID_4430_">
			<path id="XMLID_4754_" class="st0" d="M77.2,485.3c-0.5,0-0.9-0.4-0.9-0.9v-4.2c0-0.5,0.4-0.9,0.9-0.9c0.5,0,0.9,0.4,0.9,0.9v4.2
				C78.1,484.9,77.7,485.3,77.2,485.3z"/>
		</g>
	</g>
	<g id="XMLID_4426_">
		<g id="XMLID_4428_">
			<path id="XMLID_4753_" class="st0" d="M191.2,366.2H187c-0.5,0-0.9-0.4-0.9-0.9s0.4-0.9,0.9-0.9h4.2c0.5,0,0.9,0.4,0.9,0.9
				S191.7,366.2,191.2,366.2z"/>
		</g>
		<g id="XMLID_4427_">
			<path id="XMLID_4752_" class="st0" d="M189.1,368.3c-0.5,0-0.9-0.4-0.9-0.9v-4.2c0-0.5,0.4-0.9,0.9-0.9s0.9,0.4,0.9,0.9v4.2
				C190,367.9,189.6,368.3,189.1,368.3z"/>
		</g>
	</g>
	<g id="XMLID_4423_">
		<g id="XMLID_4425_">
			<path id="XMLID_4751_" class="st0" d="M110.3,456.1h-4.2c-0.5,0-0.9-0.4-0.9-0.9s0.4-0.9,0.9-0.9h4.2c0.5,0,0.9,0.4,0.9,0.9
				S110.8,456.1,110.3,456.1z"/>
		</g>
		<g id="XMLID_4424_">
			<path id="XMLID_4750_" class="st0" d="M108.2,458.2c-0.5,0-0.9-0.4-0.9-0.9v-4.2c0-0.5,0.4-0.9,0.9-0.9c0.5,0,0.9,0.4,0.9,0.9
				v4.2C109.1,457.8,108.7,458.2,108.2,458.2z"/>
		</g>
	</g>
	<g id="XMLID_4422_">
		<path id="XMLID_4749_" class="st0" d="M72.7,508.3h-9c-0.5,0-0.9-0.4-0.9-0.9c0-0.5,0.4-0.9,0.9-0.9h9c0.5,0,0.9,0.4,0.9,0.9
			C73.6,507.9,73.2,508.3,72.7,508.3z"/>
	</g>
	<g id="XMLID_4421_">
		<path id="XMLID_4748_" class="st0" d="M495.6,508.2h-22c-0.5,0-0.9-0.4-0.9-0.9c0-0.5,0.4-0.9,0.9-0.9h22c0.5,0,0.9,0.4,0.9,0.9
			C496.5,507.8,496.1,508.2,495.6,508.2z"/>
	</g>
	<g id="XMLID_4420_">
		<path id="XMLID_4747_" class="st0" d="M512.2,508.3h-9c-0.5,0-0.9-0.4-0.9-0.9c0-0.5,0.4-0.9,0.9-0.9h9c0.5,0,0.9,0.4,0.9,0.9
			C513.1,507.9,512.7,508.3,512.2,508.3z"/>
	</g>
	<g id="XMLID_4419_">
		<path id="XMLID_4746_" class="st0" d="M524.7,508.2h-5.9c-0.5,0-0.9-0.4-0.9-0.9c0-0.5,0.4-0.9,0.9-0.9h5.9c0.5,0,0.9,0.4,0.9,0.9
			C525.6,507.8,525.2,508.2,524.7,508.2z"/>
	</g>
	<g id="XMLID_4418_">
		<line id="XMLID_4743_" class="st11" x1="465.4" y1="483.5" x2="470.9" y2="483.5"/>
		<path id="XMLID_4744_" class="st0" d="M470.9,484.4h-5.5c-0.5,0-0.9-0.4-0.9-0.9c0-0.5,0.4-0.9,0.9-0.9h5.5c0.5,0,0.9,0.4,0.9,0.9
			C471.8,484,471.4,484.4,470.9,484.4z"/>
	</g>
	<g id="XMLID_4417_">
		<line id="XMLID_4741_" class="st11" x1="479.7" y1="498.1" x2="479.7" y2="494.8"/>
		<path id="XMLID_4742_" class="st0" d="M479.7,499c-0.5,0-0.9-0.4-0.9-0.9v-3.2c0-0.5,0.4-0.9,0.9-0.9c0.5,0,0.9,0.4,0.9,0.9v3.2
			C480.6,498.6,480.2,499,479.7,499z"/>
	</g>
	<g id="XMLID_4408_">
		<g id="XMLID_4412_">
			<g id="XMLID_4416_">
				<path id="XMLID_4730_" class="st11" d="M524.7,478.9c0-12.2-13.4-22.1-30-22.1c-4,0-7.8,0.6-11.2,1.6v0l-7.3-6.7
					c-1-0.9-2.5-0.2-2.5,1.1c0.1,4.1,0.1,10.3-0.1,10.4l0,0c-4.1,3-7,6.8-8.2,11.1h-4.9c-1.4,0-2.6,1.2-2.6,2.6v4.1
					c0,1.4,1.2,2.6,2.6,2.6h4.9c1.8,6.2,7.1,11.4,14.3,14.5v5.9c0,1.9,1.5,3.4,3.4,3.4h0.7c1.9,0,3.4-1.5,3.4-3.4v-3.6
					c2.4,0.5,4.9,0.7,7.5,0.7s5.1-0.2,7.5-0.7v3.6c0,1.9,1.5,3.4,3.4,3.4h0.7c1.9,0,3.4-1.5,3.4-3.4v-5.9
					C518.7,494.2,524.7,487.1,524.7,478.9z"/>
				<path id="XMLID_4738_" class="st0" d="M506.3,508.3h-0.7c-2.4,0-4.3-1.9-4.3-4.3v-2.5c-4.3,0.7-8.9,0.7-13.2,0v2.5
					c0,2.4-1.9,4.3-4.3,4.3h-0.7c-2.4,0-4.3-1.9-4.3-4.3v-5.3c-7-3.2-12.1-8.3-14.1-14.2h-4.2c-1.9,0-3.5-1.6-3.5-3.5v-4.1
					c0-1.9,1.6-3.5,3.5-3.5h4.2c1.3-4,4.1-7.7,8-10.7c0-0.7,0.1-2.8,0-9.9c0-1,0.5-1.8,1.4-2.2c0.9-0.4,1.9-0.2,2.6,0.4l6.9,6.4
					c3.5-1,7.2-1.5,11-1.5c17,0,30.9,10.3,30.9,23c0,8.1-5.7,15.6-15,19.8v5.3C510.6,506.3,508.7,508.3,506.3,508.3z M502.2,499.4
					c0.2,0,0.4,0.1,0.6,0.2c0.2,0.2,0.3,0.4,0.3,0.7v3.6c0,1.4,1.1,2.5,2.5,2.5h0.7c1.4,0,2.5-1.1,2.5-2.5v-5.9
					c0-0.4,0.2-0.7,0.5-0.8c8.9-3.8,14.4-10.8,14.4-18.3c0-11.7-13-21.2-29.1-21.2c-3.8,0-7.5,0.5-11,1.6c-0.3,0.1-0.6,0-0.9-0.2
					l-7.3-6.7c-0.3-0.2-0.5-0.2-0.6-0.1c-0.1,0-0.4,0.2-0.3,0.5c0.2,10.7,0.1,10.8-0.4,11.2c-4,2.9-6.7,6.6-7.9,10.6
					c-0.1,0.4-0.5,0.7-0.9,0.7h-4.9c-0.9,0-1.7,0.8-1.7,1.7v4.1c0,0.9,0.8,1.7,1.7,1.7h4.9c0.4,0,0.8,0.3,0.9,0.7
					c1.7,5.8,6.7,10.9,13.8,13.9c0.3,0.1,0.5,0.5,0.5,0.8v5.9c0,1.4,1.1,2.5,2.5,2.5h0.7c1.4,0,2.5-1.1,2.5-2.5v-3.6
					c0-0.3,0.1-0.5,0.3-0.7c0.2-0.2,0.5-0.2,0.7-0.2c4.8,0.9,9.9,0.9,14.7,0C502.1,499.4,502.1,499.4,502.2,499.4z"/>
			</g>
			<g id="XMLID_4415_">
				<path id="XMLID_4737_" class="st0" d="M509,465.2c-0.1,0-0.2,0-0.4-0.1c-4.5-2-9.6-3-14.9-3c-0.5,0-0.9-0.4-0.9-0.9
					c0-0.5,0.4-0.9,0.9-0.9c5.5,0,10.9,1.1,15.6,3.1c0.5,0.2,0.7,0.7,0.5,1.2C509.7,465,509.4,465.2,509,465.2z"/>
			</g>
			<g id="XMLID_4414_">
				<path id="XMLID_4736_" class="st0" d="M483.3,472.2c-2.6,0-4.8-2.1-4.8-4.8c0-0.5,0.4-0.9,0.9-0.9s0.9,0.4,0.9,0.9
					c0,1.6,1.3,2.9,2.9,2.9c1.6,0,2.9-1.3,2.9-2.9c0-0.5,0.4-0.9,0.9-0.9s0.9,0.4,0.9,0.9C488.1,470,485.9,472.2,483.3,472.2z"/>
			</g>
			<g id="XMLID_4413_">
				<path id="XMLID_4735_" class="st0" d="M528.5,483.2c-2.6,0-4.8-2.1-4.8-4.8c0-0.5,0.4-0.9,0.9-0.9c0.5,0,0.9,0.4,0.9,0.9
					c0,1.6,1.3,2.9,2.9,2.9c1.6,0,2.9-1.3,2.9-2.9c0-0.5,0.4-0.9,0.9-0.9c0.5,0,0.9,0.4,0.9,0.9C533.3,481,531.2,483.2,528.5,483.2z
					"/>
			</g>
		</g>
		<g id="XMLID_4409_">
			<g id="XMLID_4411_">
				<path id="XMLID_4734_" class="st3" d="M508.7,495c-0.5,0-1-0.3-1.2-0.8c-0.3-0.7,0-1.5,0.7-1.8c6.8-2.9,11-8.2,11-13.9
					c0-0.7,0.6-1.4,1.4-1.4c0.7,0,1.4,0.6,1.4,1.4c0,6.8-4.8,13-12.6,16.4C509.1,495,508.9,495,508.7,495z"/>
			</g>
			<g id="XMLID_4410_">
				<path id="XMLID_4733_" class="st3" d="M468.5,480.8h-6c-0.7,0-1.4-0.6-1.4-1.4c0-0.7,0.6-1.4,1.4-1.4h6c0.7,0,1.4,0.6,1.4,1.4
					C469.9,480.2,469.3,480.8,468.5,480.8z"/>
			</g>
		</g>
	</g>
	<g id="XMLID_4405_">
		<g id="XMLID_4407_">
			<path id="XMLID_4732_" class="st0" d="M504.8,436.3c-0.2,0-0.5-0.1-0.6-0.3l-4.3-4.3c-0.4-0.4-0.4-0.9,0-1.3
				c0.4-0.4,0.9-0.4,1.3,0l3.7,3.7l3.7-3.7c0.4-0.4,0.9-0.4,1.3,0c0.4,0.4,0.4,0.9,0,1.3l-4.3,4.3
				C505.3,436.2,505.1,436.3,504.8,436.3z"/>
		</g>
		<g id="XMLID_4406_">
			<path id="XMLID_4731_" class="st0" d="M504.8,436.3c-0.5,0-0.9-0.4-0.9-0.9V411c0-0.5,0.4-0.9,0.9-0.9s0.9,0.4,0.9,0.9v24.4
				C505.7,435.9,505.3,436.3,504.8,436.3z"/>
		</g>
	</g>
	<g id="XMLID_4397_">
		<g id="XMLID_4404_">
			<circle id="XMLID_4722_" class="st2" cx="503.1" cy="450" r="9.7"/>
			<path id="XMLID_4727_" class="st0" d="M503.1,460.7c-5.9,0-10.6-4.8-10.6-10.6c0-5.9,4.8-10.6,10.6-10.6
				c5.9,0,10.6,4.8,10.6,10.6C513.7,455.9,509,460.7,503.1,460.7z M503.1,441.2c-4.9,0-8.8,4-8.8,8.8c0,4.9,4,8.8,8.8,8.8
				c4.9,0,8.8-4,8.8-8.8C511.9,445.2,508,441.2,503.1,441.2z"/>
		</g>
		<g id="XMLID_4403_">
			<path id="XMLID_4724_" class="st9" d="M503.1,457.8c-4.3,0-7.8-3.5-7.8-7.8c0-4.3,3.5-7.8,7.8-7.8c4.3,0,7.8,3.5,7.8,7.8
				C510.9,454.3,507.4,457.8,503.1,457.8z M503.1,442.7c-4,0-7.3,3.3-7.3,7.3c0,4,3.3,7.3,7.3,7.3c4,0,7.3-3.3,7.3-7.3
				C510.4,446,507.1,442.7,503.1,442.7z"/>
		</g>
		<g id="XMLID_4398_">
			<g id="XMLID_4399_">
				<path id="XMLID_5067_" class="st8" d="M502.5,454.8v-0.8c-0.7-0.1-1.4-0.4-2-0.8c-0.4-0.3-0.5-0.8-0.2-1.2l0,0
					c0.3-0.3,0.8-0.4,1.1-0.2c0.4,0.3,0.7,0.4,1,0.5v-1.7c-0.8-0.2-1.4-0.5-1.8-0.8c-0.4-0.3-0.6-0.9-0.6-1.5c0-0.7,0.2-1.2,0.6-1.6
					c0.4-0.4,1-0.7,1.7-0.8v-0.6h1.2v0.6c0.5,0.1,1,0.2,1.5,0.5c0.5,0.2,0.6,0.8,0.3,1.2l0,0c-0.2,0.3-0.7,0.5-1,0.3
					c-0.3-0.1-0.5-0.2-0.7-0.3v1.7c0.8,0.2,1.4,0.5,1.8,0.9c0.4,0.4,0.6,0.9,0.6,1.5c0,0.7-0.2,1.2-0.7,1.6c-0.4,0.4-1,0.7-1.8,0.8
					v0.8H502.5z M502.5,447.5c-0.3,0.1-0.5,0.3-0.5,0.6c0,0.3,0.2,0.5,0.5,0.7V447.5z M504.3,451.6c0-0.2,0-0.3-0.1-0.4
					c-0.1-0.1-0.2-0.2-0.5-0.3v1.4C504.1,452.2,504.3,452,504.3,451.6z"/>
			</g>
		</g>
	</g>
	<g id="XMLID_4396_">
		<path id="XMLID_4723_" class="st3" d="M155.4,470.7c-0.7,0-1.4-0.6-1.4-1.4c0-7.8,6.3-14.1,14.1-14.1c0.7,0,1.4,0.6,1.4,1.4
			c0,0.7-0.6,1.4-1.4,1.4c-6.3,0-11.4,5.1-11.4,11.4C156.7,470,156.1,470.7,155.4,470.7z"/>
	</g>
	<g id="XMLID_4390_">
		<g id="XMLID_4395_">
			<path id="XMLID_4718_" class="st6" d="M448.4,507.4h-1.9c-5.6,0-10.2-4.6-10.2-10.2v0c0-5.6,4.6-10.2,10.2-10.2h1.9
				c5.6,0,10.2,4.6,10.2,10.2v0C458.6,502.8,454.1,507.4,448.4,507.4z"/>
			<path id="XMLID_4719_" class="st0" d="M451.5,508.3h-8.1c-4.4,0-8-3.6-8-8V494c0-4.4,3.6-8,8-8h8.1c4.4,0,8,3.6,8,8v6.2
				C459.6,504.7,456,508.3,451.5,508.3z M443.5,487.8c-3.4,0-6.2,2.8-6.2,6.2v6.2c0,3.4,2.8,6.2,6.2,6.2h8.1c3.4,0,6.2-2.8,6.2-6.2
				V494c0-3.4-2.8-6.2-6.2-6.2H443.5z"/>
		</g>
		<g id="XMLID_4393_">
			<g id="XMLID_4394_">
				<path id="XMLID_4714_" class="st6" d="M454.8,486.9h-3.1v-5.5c0-2.4-1.9-4.3-4.3-4.3c-2.4,0-4.3,1.9-4.3,4.3v5.5H440v-5.5
					c0-4.1,3.3-7.4,7.4-7.4c4.1,0,7.4,3.3,7.4,7.4V486.9z"/>
				<path id="XMLID_4715_" class="st0" d="M454.8,487.8h-3.1c-0.5,0-0.9-0.4-0.9-0.9v-5.5c0-1.9-1.5-3.4-3.4-3.4
					c-1.9,0-3.4,1.5-3.4,3.4v5.5c0,0.5-0.4,0.9-0.9,0.9H440c-0.5,0-0.9-0.4-0.9-0.9v-5.5c0-4.6,3.7-8.3,8.3-8.3s8.3,3.7,8.3,8.3v5.5
					C455.7,487.4,455.3,487.8,454.8,487.8z M452.6,486h1.3v-4.6c0-3.6-2.9-6.5-6.5-6.5c-3.6,0-6.5,2.9-6.5,6.5v4.6h1.3v-4.6
					c0-2.9,2.3-5.2,5.2-5.2c2.9,0,5.2,2.3,5.2,5.2V486z"/>
			</g>
		</g>
		<g id="XMLID_4392_">
			<path id="XMLID_4388_" class="st2" d="M450.3,494.8c0-1.6-1.3-2.8-2.8-2.8c-1.6,0-2.8,1.3-2.8,2.8c0,0.9,0.4,1.6,1,2.1l-0.4,5.4
				h4.5l-0.4-5.4C449.9,496.4,450.3,495.6,450.3,494.8z"/>
			<path id="XMLID_4711_" class="st0" d="M449.7,503.2h-4.5c-0.3,0-0.5-0.1-0.7-0.3s-0.3-0.4-0.2-0.7l0.3-5c-0.6-0.7-1-1.6-1-2.5
				c0-2.1,1.7-3.7,3.7-3.7c2.1,0,3.7,1.7,3.7,3.7c0,0.9-0.3,1.8-1,2.5l0.4,5c0,0.3-0.1,0.5-0.2,0.7
				C450.2,503.1,450,503.2,449.7,503.2z M446.2,501.4h2.5l-0.3-4.4c0-0.3,0.1-0.6,0.3-0.7c0.4-0.4,0.7-0.9,0.7-1.5
				c0-1.1-0.9-1.9-1.9-1.9c-1.1,0-1.9,0.9-1.9,1.9c0,0.6,0.2,1.1,0.7,1.5c0.2,0.2,0.3,0.5,0.3,0.7L446.2,501.4z"/>
		</g>
		<g id="XMLID_4391_">
			<path id="XMLID_4389_" class="st3" d="M452.2,504.9c-0.7,0-1.4-0.6-1.4-1.4c0-0.7,0.6-1.4,1.4-1.4c1,0,1.9-0.8,1.9-1.9V496
				c0-0.7,0.6-1.4,1.4-1.4s1.4,0.6,1.4,1.4v4.4C456.8,502.9,454.7,504.9,452.2,504.9z"/>
		</g>
	</g>
	<g id="XMLID_4381_">
		<g id="XMLID_4386_">
			<g id="XMLID_4387_">
				<path id="XMLID_4384_" class="st2" d="M514.9,364.2L514.9,364.2c0.8,0.8,0.8,2,0,2.8l-1.5,1.5c-0.6,0.6-0.7,1.5-0.4,2.3
					c0.2,0.4,0.4,0.8,0.5,1.2c0.3,0.8,1,1.4,1.9,1.4h2.1c1.1,0,2,0.9,2,2v0c0,1.1-0.9,2-2,2h-2.1c-0.9,0-1.6,0.6-1.9,1.4
					c-0.1,0.4-0.3,0.8-0.5,1.2c-0.4,0.8-0.2,1.7,0.4,2.3l1.5,1.5c0.8,0.8,0.8,2,0,2.8l0,0c-0.8,0.8-2,0.8-2.8,0l-1.5-1.5
					c-0.6-0.6-1.5-0.7-2.3-0.4c-0.4,0.2-0.8,0.4-1.2,0.5c-0.8,0.3-1.4,1-1.4,1.9v2.1c0,1.1-0.9,2-2,2h0c-1.1,0-2-0.9-2-2v-2.1
					c0-0.9-0.6-1.6-1.4-1.9c-0.4-0.1-0.8-0.3-1.2-0.5c-0.8-0.4-1.7-0.2-2.3,0.4l-1.5,1.5c-0.8,0.8-2,0.8-2.8,0v0
					c-0.8-0.8-0.8-2,0-2.8l1.5-1.5c0.6-0.6,0.7-1.5,0.4-2.3c-0.2-0.4-0.4-0.8-0.5-1.2c-0.3-0.8-1-1.4-1.9-1.4h-2.1c-1.1,0-2-0.9-2-2
					l0,0c0-1.1,0.9-2,2-2h2.1c0.9,0,1.6-0.6,1.9-1.4c0.1-0.4,0.3-0.8,0.5-1.2c0.4-0.8,0.2-1.7-0.4-2.3l-1.5-1.5
					c-0.8-0.8-0.8-2,0-2.8l0,0c0.8-0.8,2-0.8,2.8,0l1.5,1.5c0.6,0.6,1.5,0.7,2.3,0.4c0.4-0.2,0.8-0.4,1.2-0.5c0.8-0.3,1.4-1,1.4-1.9
					v-2.1c0-1.1,0.9-2,2-2l0,0c1.1,0,2,0.9,2,2v2.1c0,0.9,0.6,1.6,1.4,1.9c0.4,0.1,0.8,0.3,1.2,0.5c0.8,0.4,1.7,0.2,2.3-0.4l1.5-1.5
					C512.9,363.4,514.1,363.4,514.9,364.2z M508.2,370.9c-2.4-2.4-6.4-2.4-8.8,0c-2.4,2.4-2.4,6.4,0,8.8c2.4,2.4,6.4,2.4,8.8,0
					C510.7,377.3,510.7,373.3,508.2,370.9z"/>
				<path id="XMLID_4706_" class="st0" d="M503.8,391.9c-1.6,0-2.9-1.3-2.9-2.9v-2.1c0-0.5-0.3-0.9-0.8-1c-0.4-0.2-0.9-0.3-1.3-0.5
					c-0.4-0.2-0.9-0.1-1.2,0.2l-1.5,1.5c-0.5,0.5-1.3,0.8-2,0.8s-1.5-0.3-2-0.8c-0.5-0.5-0.8-1.3-0.8-2c0-0.8,0.3-1.5,0.8-2l1.5-1.5
					c0.3-0.3,0.4-0.8,0.2-1.2c-0.2-0.4-0.4-0.8-0.5-1.3c-0.2-0.5-0.6-0.8-1-0.8h-2.1c-1.6,0-2.9-1.3-2.9-2.9c0-1.6,1.3-2.9,2.9-2.9
					h2.1c0.5,0,0.9-0.3,1-0.8c0.2-0.4,0.3-0.9,0.5-1.3c0.2-0.4,0.1-0.9-0.2-1.2l-1.5-1.5c-1.1-1.1-1.1-2.9,0-4.1
					c1.1-1.1,2.9-1.1,4.1,0l1.5,1.5c0.3,0.3,0.8,0.4,1.2,0.2c0.4-0.2,0.8-0.4,1.3-0.5c0.5-0.2,0.8-0.6,0.8-1v-2.1
					c0-1.6,1.3-2.9,2.9-2.9s2.9,1.3,2.9,2.9v2.1c0,0.5,0.3,0.9,0.8,1c0.4,0.1,0.9,0.3,1.3,0.5c0.4,0.2,0.9,0.1,1.2-0.2l1.5-1.5
					c1.1-1.1,2.9-1.1,4.1,0c1.1,1.1,1.1,2.9,0,4.1l-1.5,1.5c-0.3,0.3-0.4,0.8-0.2,1.2c0.2,0.4,0.4,0.8,0.5,1.3
					c0.2,0.5,0.6,0.8,1,0.8h2.1c1.6,0,2.9,1.3,2.9,2.9c0,1.6-1.3,2.9-2.9,2.9h-2.1c-0.5,0-0.9,0.3-1,0.8c-0.1,0.4-0.3,0.9-0.5,1.3
					c-0.2,0.4-0.1,0.9,0.2,1.2l1.5,1.5c0.5,0.5,0.8,1.3,0.8,2c0,0.8-0.3,1.5-0.8,2c-1.1,1.1-2.9,1.1-4.1,0l-1.5-1.5
					c-0.3-0.3-0.8-0.4-1.2-0.2c-0.4,0.2-0.8,0.4-1.3,0.5c-0.5,0.2-0.8,0.6-0.8,1v2.1C506.7,390.6,505.4,391.9,503.8,391.9z
					 M498.4,383.4c0.4,0,0.9,0.1,1.3,0.3c0.3,0.2,0.7,0.3,1.1,0.4c1.2,0.4,2,1.5,2,2.7v2.1c0,0.6,0.5,1.1,1.1,1.1s1.1-0.5,1.1-1.1
					v-2.1c0-1.2,0.8-2.3,2-2.7c0.4-0.1,0.7-0.3,1.1-0.4c1.1-0.6,2.5-0.3,3.3,0.5l1.5,1.5c0.4,0.4,1.1,0.4,1.5,0
					c0.2-0.2,0.3-0.5,0.3-0.8c0-0.3-0.1-0.6-0.3-0.8l-1.5-1.5c-0.9-0.9-1.1-2.2-0.5-3.3c0.2-0.3,0.3-0.7,0.4-1.1
					c0.4-1.2,1.5-2,2.7-2h2.1c0.6,0,1.1-0.5,1.1-1.1c0-0.6-0.5-1.1-1.1-1.1h-2.1c-1.2,0-2.3-0.8-2.7-2c-0.1-0.4-0.3-0.7-0.4-1.1
					c-0.6-1.1-0.3-2.5,0.5-3.3l1.5-1.5c0.4-0.4,0.4-1.1,0-1.5c-0.4-0.4-1.1-0.4-1.5,0l-1.5,1.5c-0.9,0.9-2.2,1.1-3.3,0.5
					c-0.3-0.2-0.7-0.3-1.1-0.4c-1.2-0.4-2-1.5-2-2.7v-2.1c0-0.6-0.5-1.1-1.1-1.1s-1.1,0.5-1.1,1.1v2.1c0,1.2-0.8,2.3-2,2.7
					c-0.4,0.1-0.7,0.3-1.1,0.4c-1.1,0.6-2.5,0.3-3.3-0.5l-1.5-1.5c-0.4-0.4-1.1-0.4-1.5,0c-0.4,0.4-0.4,1.1,0,1.5l1.5,1.5
					c0.9,0.9,1.1,2.2,0.5,3.3c-0.2,0.3-0.3,0.7-0.4,1.1c-0.4,1.2-1.5,2-2.7,2h-2.1c-0.6,0-1.1,0.5-1.1,1.1c0,0.6,0.5,1.1,1.1,1.1
					h2.1c1.2,0,2.3,0.8,2.7,2c0.1,0.4,0.3,0.7,0.4,1.1c0.6,1.1,0.3,2.5-0.5,3.3l-1.5,1.5c-0.2,0.2-0.3,0.5-0.3,0.8
					c0,0.3,0.1,0.6,0.3,0.8c0.2,0.2,0.5,0.3,0.8,0.3h0c0.3,0,0.6-0.1,0.8-0.3l1.5-1.5C496.9,383.7,497.7,383.4,498.4,383.4z
					 M503.8,382.4c-1.8,0-3.7-0.7-5-2.1c-1.3-1.3-2.1-3.1-2.1-5c0-1.9,0.7-3.7,2.1-5c2.8-2.8,7.3-2.8,10.1,0l0,0l0,0
					c1.3,1.3,2.1,3.1,2.1,5c0,1.9-0.7,3.7-2.1,5C507.5,381.7,505.7,382.4,503.8,382.4z M503.8,370c-1.4,0-2.7,0.5-3.8,1.6
					c-1,1-1.6,2.3-1.6,3.8c0,1.4,0.6,2.8,1.6,3.8c2.1,2.1,5.5,2.1,7.5,0c1-1,1.6-2.3,1.6-3.8c0-1.4-0.6-2.8-1.6-3.8l0,0
					C506.6,370.5,505.2,370,503.8,370z"/>
			</g>
		</g>
		<g id="XMLID_4382_">
			<g id="XMLID_4383_">
				<path id="XMLID_4376_" class="st6" d="M491.9,382.6L491.9,382.6c0.8,0.4,1.1,1.3,0.7,2l-0.7,1.5c-0.3,0.6-0.1,1.3,0.3,1.7
					c0.2,0.2,0.5,0.5,0.7,0.7c0.4,0.5,1.1,0.7,1.7,0.5l1.5-0.5c0.8-0.3,1.6,0.1,1.9,0.9l0,0c0.3,0.8-0.1,1.6-0.9,1.9l-1.5,0.5
					c-0.6,0.2-1,0.8-1,1.5c0,0.3,0,0.7,0,1c-0.1,0.6,0.3,1.3,0.8,1.6l1.5,0.7c0.8,0.4,1.1,1.3,0.7,2l0,0c-0.4,0.8-1.3,1.1-2,0.7
					l-1.5-0.7c-0.6-0.3-1.3-0.1-1.7,0.3c-0.2,0.2-0.5,0.5-0.7,0.7c-0.5,0.4-0.7,1.1-0.5,1.7l0.5,1.5c0.3,0.8-0.1,1.6-0.9,1.9h0
					c-0.8,0.3-1.6-0.1-1.9-0.9l-0.5-1.5c-0.2-0.6-0.8-1-1.5-1c-0.3,0-0.7,0-1,0c-0.6-0.1-1.3,0.3-1.6,0.8l-0.7,1.5
					c-0.4,0.8-1.3,1.1-2,0.7v0c-0.8-0.4-1.1-1.3-0.7-2l0.7-1.5c0.3-0.6,0.1-1.3-0.3-1.7c-0.2-0.2-0.5-0.5-0.7-0.7
					c-0.4-0.5-1.1-0.7-1.7-0.5l-1.5,0.5c-0.8,0.3-1.6-0.1-1.9-0.9h0c-0.3-0.8,0.1-1.6,0.9-1.9l1.5-0.5c0.6-0.2,1-0.8,1-1.5
					c0-0.3,0-0.7,0-1c0.1-0.6-0.3-1.3-0.8-1.6l-1.5-0.7c-0.8-0.4-1.1-1.3-0.7-2l0,0c0.4-0.8,1.3-1.1,2-0.7l1.5,0.7
					c0.6,0.3,1.3,0.1,1.7-0.3c0.2-0.2,0.5-0.5,0.7-0.7c0.5-0.4,0.7-1.1,0.5-1.7l-0.5-1.5c-0.3-0.8,0.1-1.6,0.9-1.9l0,0
					c0.8-0.3,1.6,0.1,1.9,0.9l0.5,1.5c0.2,0.6,0.8,1,1.5,1c0.3,0,0.7,0,1,0c0.6,0.1,1.3-0.3,1.6-0.8l0.7-1.5
					C490.2,382.6,491.1,382.3,491.9,382.6z M488.8,389.1c-2.4-1.1-5.2-0.1-6.3,2.3c-1.1,2.4-0.1,5.2,2.3,6.3
					c2.4,1.1,5.2,0.1,6.3-2.3C492.2,393.1,491.2,390.3,488.8,389.1z"/>
				<path id="XMLID_4700_" class="st0" d="M490.3,405.7c-1,0-1.9-0.6-2.3-1.6l-0.5-1.5c-0.1-0.2-0.3-0.4-0.6-0.4
					c-0.4,0-0.7,0-1.1-0.1c-0.3,0-0.5,0.1-0.6,0.3l-0.7,1.5c-0.3,0.6-0.8,1-1.4,1.2c-0.6,0.2-1.3,0.2-1.8-0.1
					c-0.6-0.3-1-0.8-1.2-1.4c-0.2-0.6-0.2-1.3,0.1-1.8l0.7-1.5c0.1-0.2,0.1-0.5-0.1-0.7c-0.3-0.3-0.5-0.5-0.7-0.8
					c-0.2-0.2-0.4-0.3-0.7-0.2l-1.5,0.5c-1.3,0.5-2.6-0.2-3.1-1.4c-0.2-0.6-0.2-1.3,0.1-1.8c0.3-0.6,0.8-1,1.4-1.2l1.5-0.5
					c0.2-0.1,0.4-0.3,0.4-0.6c0-0.4,0-0.7,0.1-1.1c0-0.3-0.1-0.5-0.3-0.6l-1.5-0.7c-0.6-0.3-1-0.8-1.2-1.4c-0.2-0.6-0.2-1.3,0.1-1.8
					c0.6-1.2,2-1.7,3.2-1.2l1.5,0.7c0.2,0.1,0.5,0.1,0.7-0.1c0.3-0.3,0.5-0.5,0.8-0.7c0.2-0.2,0.3-0.4,0.2-0.7l-0.5-1.5
					c-0.5-1.2,0.2-2.6,1.4-3.1c0.6-0.2,1.3-0.2,1.8,0.1c0.6,0.3,1,0.8,1.2,1.4l0.5,1.5c0.1,0.2,0.3,0.4,0.6,0.4c0.4,0,0.7,0,1.1,0.1
					c0.3,0,0.5-0.1,0.6-0.3l0.7-1.5c0.3-0.6,0.8-1,1.4-1.2c0.6-0.2,1.3-0.2,1.8,0.1c1.2,0.6,1.7,2,1.2,3.2l-0.7,1.5
					c-0.1,0.2-0.1,0.5,0.1,0.7c0.3,0.3,0.5,0.5,0.7,0.8c0.2,0.2,0.4,0.3,0.7,0.2l1.5-0.5c0.6-0.2,1.3-0.2,1.8,0.1
					c0.6,0.3,1,0.8,1.2,1.4c0.2,0.6,0.2,1.3-0.1,1.8c-0.3,0.6-0.8,1-1.4,1.2l-1.5,0.5c-0.2,0.1-0.4,0.3-0.4,0.6c0,0.4,0,0.7-0.1,1.1
					c0,0.3,0.1,0.5,0.3,0.6l1.5,0.7c1.2,0.6,1.7,2,1.2,3.2c-0.3,0.6-0.8,1-1.4,1.2c-0.6,0.2-1.3,0.2-1.8-0.1l-1.5-0.7
					c-0.2-0.1-0.5-0.1-0.7,0.1c-0.3,0.3-0.5,0.5-0.8,0.7c-0.2,0.2-0.3,0.4-0.2,0.7l0.5,1.5c0.2,0.6,0.2,1.3-0.1,1.8
					c-0.3,0.6-0.8,1-1.4,1.2C490.9,405.7,490.6,405.7,490.3,405.7z M486.9,400.4c1,0,1.9,0.6,2.3,1.6l0.5,1.5
					c0.1,0.3,0.5,0.5,0.8,0.4c0.2-0.1,0.3-0.2,0.3-0.3c0.1-0.1,0.1-0.3,0-0.5l-0.5-1.5c-0.3-1,0-2.1,0.8-2.7
					c0.2-0.2,0.4-0.4,0.6-0.6c0.7-0.8,1.8-1,2.8-0.5l1.5,0.7c0.3,0.1,0.7,0,0.8-0.3c0.1-0.3,0-0.7-0.3-0.8l-1.5-0.7
					c-0.9-0.4-1.5-1.4-1.4-2.5c0-0.3,0-0.6,0-0.9c0-1,0.6-2,1.6-2.3l1.5-0.5c0.3-0.1,0.5-0.5,0.4-0.8c-0.1-0.2-0.2-0.3-0.3-0.3
					c-0.1-0.1-0.3-0.1-0.5,0l-1.5,0.5c-1,0.3-2.1,0-2.7-0.8c-0.2-0.2-0.4-0.4-0.6-0.6c-0.8-0.7-1-1.8-0.5-2.8l0.7-1.5
					c0.1-0.3,0-0.7-0.3-0.8h0c-0.1-0.1-0.3-0.1-0.5,0c-0.2,0.1-0.3,0.2-0.3,0.3l-0.7,1.5c-0.4,0.9-1.4,1.5-2.5,1.4
					c-0.3,0-0.6,0-0.9,0c0,0,0,0,0,0c-1,0-1.9-0.6-2.3-1.6l-0.5-1.5c-0.1-0.2-0.2-0.3-0.3-0.3c-0.1-0.1-0.3-0.1-0.5,0
					c-0.3,0.1-0.5,0.5-0.4,0.8l0.5,1.5c0.3,1,0,2.1-0.8,2.7c-0.2,0.2-0.4,0.4-0.6,0.6c-0.7,0.8-1.8,1-2.8,0.5l-1.5-0.7
					c-0.3-0.1-0.7,0-0.8,0.3c-0.1,0.3,0,0.7,0.3,0.8l1.5,0.7c0.9,0.4,1.5,1.4,1.4,2.5c0,0.3,0,0.6,0,0.9c0,1-0.6,2-1.6,2.3l-1.5,0.5
					c-0.3,0.1-0.5,0.5-0.4,0.8c0.1,0.2,0.2,0.3,0.3,0.3c0.1,0.1,0.3,0.1,0.5,0l1.5-0.5c1-0.3,2.1,0,2.7,0.8c0.2,0.2,0.4,0.4,0.6,0.6
					c0.8,0.7,1,1.8,0.5,2.8l-0.7,1.5c-0.1,0.3,0,0.7,0.3,0.8c0.3,0.1,0.7,0,0.8-0.3l0.7-1.5c0.4-0.9,1.4-1.5,2.5-1.4
					C486.3,400.4,486.6,400.4,486.9,400.4C486.9,400.4,486.9,400.4,486.9,400.4z M486.8,399.1c-0.8,0-1.6-0.2-2.4-0.5
					c-2.8-1.3-4.1-4.7-2.7-7.5c0.6-1.4,1.8-2.4,3.2-2.9c1.4-0.5,3-0.4,4.3,0.2c1.4,0.6,2.4,1.8,2.9,3.2c0.5,1.4,0.4,3-0.2,4.3
					c-0.6,1.4-1.8,2.4-3.2,2.9C488.1,399,487.4,399.1,486.8,399.1z M486.8,389.6c-0.4,0-0.9,0.1-1.3,0.2c-1,0.3-1.7,1.1-2.2,2
					c-0.9,1.9-0.1,4.2,1.9,5.1c0.9,0.4,2,0.5,3,0.1c1-0.3,1.7-1.1,2.2-2c0.4-0.9,0.5-2,0.1-3c-0.3-1-1.1-1.7-2-2.2
					C487.9,389.7,487.3,389.6,486.8,389.6z"/>
			</g>
		</g>
	</g>
	<g id="XMLID_4380_">
		<path id="XMLID_4697_" class="st0" d="M379.3,521.3H252.9c-0.5,0-0.9-0.4-0.9-0.9c0-0.5,0.4-0.9,0.9-0.9h126.5
			c0.5,0,0.9,0.4,0.9,0.9C380.2,520.9,379.8,521.3,379.3,521.3z"/>
	</g>
	<g id="XMLID_4379_">
		<path id="XMLID_4696_" class="st0" d="M410.4,521.3h-24.1c-0.5,0-0.9-0.4-0.9-0.9c0-0.5,0.4-0.9,0.9-0.9h24.1
			c0.5,0,0.9,0.4,0.9,0.9C411.3,520.9,410.9,521.3,410.4,521.3z"/>
	</g>
	<g id="XMLID_4378_">
		<path id="XMLID_4695_" class="st0" d="M437,521.3h-18c-0.5,0-0.9-0.4-0.9-0.9c0-0.5,0.4-0.9,0.9-0.9h18c0.5,0,0.9,0.4,0.9,0.9
			C437.9,520.9,437.5,521.3,437,521.3z"/>
	</g>
	<g id="XMLID_4377_">
		<path id="XMLID_4694_" class="st0" d="M449.8,521.3h-4.7c-0.5,0-0.9-0.4-0.9-0.9c0-0.5,0.4-0.9,0.9-0.9h4.7c0.5,0,0.9,0.4,0.9,0.9
			C450.7,520.9,450.3,521.3,449.8,521.3z"/>
	</g>
	<g id="XMLID_4373_">
		<path id="XMLID_4693_" class="st0" d="M269.5,514.5h-69.3c-0.5,0-0.9-0.4-0.9-0.9s0.4-0.9,0.9-0.9h69.3c0.5,0,0.9,0.4,0.9,0.9
			S270,514.5,269.5,514.5z"/>
	</g>
	<g id="XMLID_4375_">
		<path id="XMLID_4692_" class="st0" d="M151.3,521.3h-36.1c-0.5,0-0.9-0.4-0.9-0.9c0-0.5,0.4-0.9,0.9-0.9h36.1
			c0.5,0,0.9,0.4,0.9,0.9C152.2,520.9,151.8,521.3,151.3,521.3z"/>
	</g>
	<g id="XMLID_4374_">
		<path id="XMLID_4691_" class="st0" d="M180.4,521.3h-15.6c-0.5,0-0.9-0.4-0.9-0.9c0-0.5,0.4-0.9,0.9-0.9h15.6
			c0.5,0,0.9,0.4,0.9,0.9C181.3,520.9,180.9,521.3,180.4,521.3z"/>
	</g>
	<g id="XMLID_4688_">
		<path id="XMLID_4690_" class="st0" d="M470.9,514.5h-60.5c-0.5,0-0.9-0.4-0.9-0.9s0.4-0.9,0.9-0.9h60.5c0.5,0,0.9,0.4,0.9,0.9
			S471.4,514.5,470.9,514.5z"/>
	</g>
	<g id="XMLID_4689_">
		<path id="XMLID_4960_" class="st0" d="M502.5,514.5h-9.1c-0.5,0-0.9-0.4-0.9-0.9s0.4-0.9,0.9-0.9h9.1c0.5,0,0.9,0.4,0.9,0.9
			S503,514.5,502.5,514.5z"/>
	</g>
	<g id="XMLID_4962_">
		<path id="XMLID_4988_" class="st0" d="M135.7,514.5H99.7c-0.5,0-0.9-0.4-0.9-0.9s0.4-0.9,0.9-0.9h36.1c0.5,0,0.9,0.4,0.9,0.9
			S136.2,514.5,135.7,514.5z"/>
	</g>
	<g id="XMLID_5001_">
		<g id="XMLID_5005_">
			<g id="XMLID_5010_">
				<path id="XMLID_5011_" class="st0" d="M388.1,392.3c0-0.2,0.1-0.5,0.3-0.6c0.4-0.4,0.9-0.4,1.3,0l4.3,4.3
					c0.2,0.2,0.3,0.4,0.3,0.6l0,0c0,0.2-0.1,0.5-0.3,0.6l-4.3,4.3c-0.4,0.4-0.9,0.4-1.3,0c-0.4-0.4-0.4-0.9,0-1.3l3.7-3.7l-3.7-3.7
					C388.2,392.7,388.1,392.5,388.1,392.3z"/>
			</g>
			<g id="XMLID_5007_">
				<path id="XMLID_5009_" class="st0" d="M368.1,396.6c0-0.5,0.4-0.9,0.9-0.9h24.4c0.5,0,0.9,0.4,0.9,0.9c0,0.5-0.4,0.9-0.9,0.9
					H369C368.5,397.5,368.1,397.1,368.1,396.6z"/>
			</g>
		</g>
		<g id="XMLID_5002_">
			<g id="XMLID_5003_">
				<path id="XMLID_5004_" class="st0" d="M369.4,406.4c0-0.2,0.1-0.5,0.3-0.6l4.3-4.3c0.4-0.4,0.9-0.4,1.3,0c0.4,0.4,0.4,0.9,0,1.3
					l-3.7,3.7l3.7,3.7c0.4,0.4,0.4,0.9,0,1.3c-0.4,0.4-0.9,0.4-1.3,0l-4.3-4.3C369.5,406.8,369.4,406.6,369.4,406.4z"/>
			</g>
			<g id="XMLID_5006_">
				<path id="XMLID_5008_" class="st0" d="M369.4,406.4c0-0.5,0.4-0.9,0.9-0.9h24.4c0.5,0,0.9,0.4,0.9,0.9c0,0.5-0.4,0.9-0.9,0.9
					h-24.4C369.8,407.3,369.4,406.9,369.4,406.4z"/>
			</g>
		</g>
	</g>
</g>
</svg>
