<?xml version="1.0" encoding="utf-8"?>
<!-- Generator: Adobe Illustrator 19.2.1, SVG Export Plug-In . SVG Version: 6.00 Build 0)  -->
<svg version="1.1" id="Слой_1" xmlns="http://www.w3.org/2000/svg" xmlns:xlink="http://www.w3.org/1999/xlink" x="0px" y="0px"
	 viewBox="0 0 470.6 200.7" style="enable-background:new 0 0 470.6 200.7;" xml:space="preserve">
<style type="text/css">
	.st0{fill:#20201E;}
	.st1{fill:#425367;}
	.st2{fill:#E4BD5A;}
	.st3{fill:#F4F4F4;}
	.st4{fill:#EBEAEA;}
	.st5{fill:#CC7C6F;}
	.st6{fill:#8ABCC1;}
	.st7{fill:#3C4556;}
	.st8{fill:#D8A948;}
	.st9{fill:#E5CF97;}
	.st10{fill:#AEAEAE;}
	.st11{fill:#C86E65;}
	.st12{fill:#FFFFFF;}
</style>
<g id="XMLID_4372_">
	<g id="XMLID_4685_">
		<g id="XMLID_4687_">
			<path id="XMLID_5000_" class="st0" d="M30.3,119.6c-0.2,0-0.5-0.1-0.6-0.3l-4.3-4.3c-0.4-0.4-0.4-0.9,0-1.3
				c0.4-0.4,0.9-0.4,1.3,0l3.7,3.7l3.7-3.7c0.4-0.4,0.9-0.4,1.3,0c0.4,0.4,0.4,0.9,0,1.3l-4.3,4.3C30.8,119.5,30.5,119.6,30.3,119.6
				z"/>
		</g>
		<g id="XMLID_4686_">
			<path id="XMLID_4999_" class="st0" d="M30.3,119.6c-0.5,0-0.9-0.4-0.9-0.9V94.3c0-0.5,0.4-0.9,0.9-0.9c0.5,0,0.9,0.4,0.9,0.9
				v24.4C31.2,119.2,30.8,119.6,30.3,119.6z"/>
		</g>
	</g>
	<g id="XMLID_4665_">
		<g id="XMLID_4667_">
			<g id="XMLID_4672_">
				<g id="XMLID_4681_">
					<g id="XMLID_4684_">
						<path id="XMLID_5669_" class="st1" d="M62.4,143.9l-1.3-8.2c-0.1-0.9,0.6-1.7,1.5-1.7H69c0.9,0,1.6,0.8,1.5,1.7l-1.3,8.2H62.4
							z"/>
					</g>
					<g id="XMLID_4683_">
						<path id="XMLID_5667_" class="st2" d="M69.4,142.8h-7.2l-0.4-3l0,0c2.6-0.6,5.4-0.6,8,0l0,0L69.4,142.8z"/>
					</g>
					<g id="XMLID_4682_">
						<path id="XMLID_5665_" class="st1" d="M86.5,182.5V163c0-11.4-9.3-20.7-20.7-20.7h0c-11.4,0-20.7,9.3-20.7,20.7v17.4
							c0,1.2-1,2.1-2.1,2.1h-1c-1.2,0-2.1,1-2.1,2.1l0,0c0,1.2,1,2.1,2.1,2.1h47.7c1.2,0,2.1-1,2.1-2.1l0,0c0-1.2-1-2.1-2.1-2.1
							H86.5z"/>
					</g>
				</g>
				<g id="XMLID_4673_">
					<g id="XMLID_4680_">
						<circle id="XMLID_5662_" class="st2" cx="65.8" cy="162.5" r="7.9"/>
					</g>
					<g id="XMLID_4679_">
						<path id="XMLID_4996_" class="st2" d="M65.8,173c-5.8,0-10.5-4.7-10.5-10.5c0-5.8,4.7-10.5,10.5-10.5s10.5,4.7,10.5,10.5
							C76.3,168.3,71.6,173,65.8,173z M65.8,153.4c-5,0-9.1,4.1-9.1,9.1c0,5,4.1,9.1,9.1,9.1s9.1-4.1,9.1-9.1
							C74.9,157.5,70.8,153.4,65.8,153.4z"/>
					</g>
					<g id="XMLID_4674_">
						<g id="XMLID_4675_">
							<path id="XMLID_5653_" class="st3" d="M65.2,167.9v-1c-0.8-0.1-1.5-0.4-2.2-0.9c-0.5-0.3-0.5-1-0.2-1.4l0,0
								c0.3-0.4,0.9-0.5,1.3-0.2c0.4,0.3,0.8,0.5,1.2,0.6v-1.9c-0.9-0.2-1.6-0.6-2-0.9c-0.4-0.4-0.6-1-0.6-1.7
								c0-0.7,0.2-1.4,0.7-1.8c0.5-0.5,1.1-0.8,1.9-0.9v-0.6h1.4v0.7c0.6,0.1,1.1,0.3,1.7,0.5c0.5,0.3,0.7,0.9,0.4,1.4l0,0
								c-0.3,0.4-0.8,0.5-1.2,0.3c-0.3-0.2-0.6-0.3-0.8-0.4v1.9c0.9,0.2,1.6,0.6,2.1,1c0.4,0.4,0.7,1,0.7,1.7c0,0.7-0.3,1.4-0.8,1.9
								c-0.5,0.5-1.2,0.8-2,0.9v0.9H65.2z M65.2,159.6c-0.4,0.1-0.6,0.4-0.6,0.7c0,0.3,0.2,0.6,0.6,0.8V159.6z M67.3,164.3
								c0-0.2,0-0.3-0.1-0.5c-0.1-0.1-0.3-0.2-0.5-0.3v1.6C67.1,165,67.3,164.7,67.3,164.3z"/>
						</g>
					</g>
				</g>
			</g>
			<g id="XMLID_4671_">
				<path id="XMLID_4995_" class="st3" d="M50.5,169.2c-0.7,0-1.4-0.6-1.4-1.4v-6.1c0-8.6,7-15.6,15.6-15.6c0.7,0,1.4,0.6,1.4,1.4
					s-0.6,1.4-1.4,1.4c-7.1,0-12.9,5.8-12.9,12.9v6.1C51.8,168.6,51.2,169.2,50.5,169.2z"/>
			</g>
			<g id="XMLID_4670_">
				<path id="XMLID_4994_" class="st3" d="M50.5,177.1c-0.7,0-1.4-0.6-1.4-1.4v-3.4c0-0.7,0.6-1.4,1.4-1.4s1.4,0.6,1.4,1.4v3.4
					C51.8,176.5,51.2,177.1,50.5,177.1z"/>
			</g>
			<g id="XMLID_4669_">
				<path id="XMLID_4993_" class="st3" d="M71.3,183.8h-1.7c-0.7,0-1.4-0.6-1.4-1.4c0-0.7,0.6-1.4,1.4-1.4h1.7
					c0.7,0,1.4,0.6,1.4,1.4C72.7,183.2,72.1,183.8,71.3,183.8z"/>
			</g>
			<g id="XMLID_4668_">
				<path id="XMLID_4992_" class="st3" d="M83.2,183.8H75c-0.7,0-1.4-0.6-1.4-1.4c0-0.7,0.6-1.4,1.4-1.4h8.2c0.7,0,1.4,0.6,1.4,1.4
					C84.5,183.2,83.9,183.8,83.2,183.8z"/>
			</g>
		</g>
		<g id="XMLID_4666_">
			<path id="XMLID_4989_" class="st0" d="M89.6,187.6H41.9c-1.7,0-3-1.4-3-3c0-1.7,1.4-3,3-3h1c0.7,0,1.2-0.6,1.2-1.2V163
				c0-10.2,7.1-19,17-21.1l-0.9-6.1c-0.1-0.7,0.1-1.4,0.5-1.9c0.5-0.5,1.1-0.8,1.8-0.8H69c0.7,0,1.4,0.3,1.8,0.8
				c0.5,0.5,0.7,1.2,0.5,1.9l-0.9,6.1c9.9,2.2,17,10.9,17,21.1v18.6h2.2c1.7,0,3,1.4,3,3C92.7,186.3,91.3,187.6,89.6,187.6z
				 M41.9,183.4c-0.7,0-1.2,0.6-1.2,1.2c0,0.7,0.6,1.2,1.2,1.2h47.7c0.7,0,1.2-0.6,1.2-1.2c0-0.7-0.6-1.2-1.2-1.2h-3.1
				c-0.5,0-0.9-0.4-0.9-0.9V163c0-9.6-6.9-17.8-16.3-19.5c-0.5-0.1-0.8-0.5-0.7-1l1-6.9c0-0.2-0.1-0.4-0.1-0.5
				c-0.1-0.1-0.2-0.2-0.4-0.2h-6.4c-0.2,0-0.4,0.1-0.4,0.2c-0.1,0.1-0.2,0.2-0.1,0.5l1.1,6.9c0.1,0.5-0.3,0.9-0.7,1
				C52.9,145.1,46,153.3,46,163v17.4c0,1.7-1.4,3-3,3H41.9z"/>
		</g>
	</g>
	<g id="XMLID_4637_">
		<g id="XMLID_4661_">
			<g id="XMLID_4664_">
				<rect id="XMLID_4984_" x="319.1" y="102.6" class="st4" width="64.7" height="84.1"/>
				<path id="XMLID_4985_" class="st0" d="M383.7,187.7h-64.7c-0.5,0-0.9-0.4-0.9-0.9v-84.1c0-0.5,0.4-0.9,0.9-0.9h64.7
					c0.5,0,0.9,0.4,0.9,0.9v84.1C384.7,187.2,384.2,187.7,383.7,187.7z M320,185.8h62.8v-82.3H320V185.8z"/>
			</g>
			<g id="XMLID_4663_">
				<path id="XMLID_4980_" class="st2" d="M358.2,95.8v-1.5c0-4-3.3-7.3-7.3-7.3l0,0c-4,0-7.3,3.3-7.3,7.3v1.5h-10.2
					c-4,0-7.3,3.3-7.3,7.3v4.1h49.7v-4.1c0-4-3.3-7.3-7.3-7.3H358.2z"/>
				<path id="XMLID_4981_" class="st0" d="M375.8,108.1h-49.7c-0.5,0-0.9-0.4-0.9-0.9v-4.1c0-4.5,3.7-8.2,8.2-8.2h9.3v-0.6
					c0-4.5,3.7-8.2,8.2-8.2s8.2,3.7,8.2,8.2v0.6h9.3c4.5,0,8.2,3.7,8.2,8.2v4.1C376.7,107.6,376.3,108.1,375.8,108.1z M327,106.2
					h47.9v-3.2c0-3.5-2.9-6.4-6.4-6.4h-10.2c-0.5,0-0.9-0.4-0.9-0.9v-1.5c0-3.5-2.9-6.4-6.4-6.4c-3.5,0-6.4,2.9-6.4,6.4v1.5
					c0,0.5-0.4,0.9-0.9,0.9h-10.2c-3.5,0-6.4,2.9-6.4,6.4V106.2z"/>
			</g>
			<g id="XMLID_4662_">
				<circle id="XMLID_5624_" class="st0" cx="350.9" cy="93.9" r="2.5"/>
			</g>
		</g>
		<g id="XMLID_4639_">
			<g id="XMLID_4654_">
				<g id="XMLID_4660_">
					<rect id="XMLID_4963_" x="367.4" y="122.7" class="st5" width="6.3" height="6.3"/>
					<path id="XMLID_4977_" class="st0" d="M373.7,129.9h-6.3c-0.5,0-0.9-0.4-0.9-0.9v-6.3c0-0.5,0.4-0.9,0.9-0.9h6.3
						c0.5,0,0.9,0.4,0.9,0.9v6.3C374.6,129.5,374.2,129.9,373.7,129.9z M368.3,128.1h4.5v-4.5h-4.5V128.1z"/>
				</g>
				<g id="XMLID_4655_">
					<g id="XMLID_4658_">
						<g id="XMLID_4659_">
							<path id="XMLID_4976_" class="st0" d="M359.4,124.2h-30.2c-0.5,0-0.9-0.4-0.9-0.9c0-0.5,0.4-0.9,0.9-0.9h30.2
								c0.5,0,0.9,0.4,0.9,0.9C360.3,123.8,359.9,124.2,359.4,124.2z"/>
						</g>
					</g>
					<g id="XMLID_4656_">
						<g id="XMLID_4657_">
							<path id="XMLID_4975_" class="st0" d="M359.4,129.4h-30.2c-0.5,0-0.9-0.4-0.9-0.9c0-0.5,0.4-0.9,0.9-0.9h30.2
								c0.5,0,0.9,0.4,0.9,0.9C360.3,129,359.9,129.4,359.4,129.4z"/>
						</g>
					</g>
				</g>
			</g>
			<g id="XMLID_4647_">
				<g id="XMLID_4653_">
					<path id="XMLID_4972_" class="st0" d="M374.3,148.2H368c-0.5,0-0.9-0.4-0.9-0.9V141c0-0.5,0.4-0.9,0.9-0.9h6.3
						c0.5,0,0.9,0.4,0.9,0.9v6.3C375.2,147.8,374.8,148.2,374.3,148.2z M368.9,146.4h4.5v-4.5h-4.5V146.4z"/>
				</g>
				<g id="XMLID_4648_">
					<g id="XMLID_4651_">
						<g id="XMLID_4652_">
							<path id="XMLID_4971_" class="st0" d="M358.8,142.4h-30.2c-0.5,0-0.9-0.4-0.9-0.9s0.4-0.9,0.9-0.9h30.2
								c0.5,0,0.9,0.4,0.9,0.9S359.3,142.4,358.8,142.4z"/>
						</g>
					</g>
					<g id="XMLID_4649_">
						<g id="XMLID_4650_">
							<path id="XMLID_4970_" class="st0" d="M358.8,147.6h-30.2c-0.5,0-0.9-0.4-0.9-0.9s0.4-0.9,0.9-0.9h30.2
								c0.5,0,0.9,0.4,0.9,0.9S359.3,147.6,358.8,147.6z"/>
						</g>
					</g>
				</g>
			</g>
			<g id="XMLID_4640_">
				<g id="XMLID_4646_">
					<path id="XMLID_4967_" class="st0" d="M374.3,166.4H368c-0.5,0-0.9-0.4-0.9-0.9v-6.3c0-0.5,0.4-0.9,0.9-0.9h6.3
						c0.5,0,0.9,0.4,0.9,0.9v6.3C375.2,166,374.8,166.4,374.3,166.4z M368.9,164.6h4.5v-4.5h-4.5V164.6z"/>
				</g>
				<g id="XMLID_4641_">
					<g id="XMLID_4644_">
						<g id="XMLID_4645_">
							<path id="XMLID_4966_" class="st0" d="M358.8,160.7h-30.2c-0.5,0-0.9-0.4-0.9-0.9c0-0.5,0.4-0.9,0.9-0.9h30.2
								c0.5,0,0.9,0.4,0.9,0.9C359.7,160.3,359.3,160.7,358.8,160.7z"/>
						</g>
					</g>
					<g id="XMLID_4642_">
						<g id="XMLID_4643_">
							<path id="XMLID_4965_" class="st0" d="M358.8,165.9h-30.2c-0.5,0-0.9-0.4-0.9-0.9c0-0.5,0.4-0.9,0.9-0.9h30.2
								c0.5,0,0.9,0.4,0.9,0.9C359.7,165.5,359.3,165.9,358.8,165.9z"/>
						</g>
					</g>
				</g>
			</g>
		</g>
		<g id="XMLID_4638_">
			<path id="XMLID_4964_" class="st3" d="M347.7,104h-17.3c-0.7,0-1.4-0.6-1.4-1.4c0-0.7,0.6-1.4,1.4-1.4h17.3
				c0.7,0,1.4,0.6,1.4,1.4C349.1,103.3,348.5,104,347.7,104z"/>
		</g>
	</g>
	<g id="XMLID_4622_">
		<g id="XMLID_4629_">
			<g id="XMLID_4636_">
				<path id="XMLID_4957_" class="st6" d="M157.4,176.7H84.1c-4.1,0-7.5-3.3-7.5-7.5V95.9c0-4.1,3.3-7.5,7.5-7.5h73.3
					c4.1,0,7.5,3.3,7.5,7.5v73.3C164.8,173.3,161.5,176.7,157.4,176.7z"/>
				<path id="XMLID_4958_" class="st0" d="M157.1,177.6H84.3c-4.7,0-8.6-3.9-8.6-8.6V96.2c0-4.7,3.9-8.6,8.6-8.6h72.8
					c4.7,0,8.6,3.9,8.6,8.6V169C165.7,173.7,161.9,177.6,157.1,177.6z M84.3,89.4c-3.7,0-6.8,3-6.8,6.8V169c0,3.7,3,6.8,6.8,6.8
					h72.8c3.7,0,6.8-3,6.8-6.8V96.2c0-3.7-3-6.8-6.8-6.8H84.3z"/>
			</g>
			<g id="XMLID_4635_">
				<path id="XMLID_4953_" class="st7" d="M153.4,124.9h-19.2c-1.6,0-2.8-1.3-2.8-2.8l0,0c0-1.6,1.3-2.8,2.8-2.8h19.2
					c1.6,0,2.8,1.3,2.8,2.8l0,0C156.2,123.6,155,124.9,153.4,124.9z"/>
				<path id="XMLID_4954_" class="st0" d="M153.4,125.8h-19.2c-2.1,0-3.7-1.7-3.7-3.7c0-2.1,1.7-3.7,3.7-3.7h19.2
					c2.1,0,3.7,1.7,3.7,3.7C157.1,124.1,155.5,125.8,153.4,125.8z M134.2,120.1c-1.1,0-1.9,0.9-1.9,1.9c0,1.1,0.9,1.9,1.9,1.9h19.2
					c1.1,0,1.9-0.9,1.9-1.9c0-1.1-0.9-1.9-1.9-1.9H134.2z"/>
			</g>
			<g id="XMLID_4634_">
				<path id="XMLID_4949_" class="st7" d="M153.4,135.4h-19.2c-1.6,0-2.8-1.3-2.8-2.8l0,0c0-1.6,1.3-2.8,2.8-2.8h19.2
					c1.6,0,2.8,1.3,2.8,2.8l0,0C156.2,134.1,155,135.4,153.4,135.4z"/>
				<path id="XMLID_4950_" class="st0" d="M153.4,136.3h-19.2c-2.1,0-3.7-1.7-3.7-3.7c0-2.1,1.7-3.7,3.7-3.7h19.2
					c2.1,0,3.7,1.7,3.7,3.7C157.1,134.6,155.5,136.3,153.4,136.3z M134.2,130.7c-1.1,0-1.9,0.9-1.9,1.9c0,1.1,0.9,1.9,1.9,1.9h19.2
					c1.1,0,1.9-0.9,1.9-1.9c0-1.1-0.9-1.9-1.9-1.9H134.2z"/>
			</g>
			<g id="XMLID_4633_">
				<path id="XMLID_4945_" class="st7" d="M153.4,146h-19.2c-1.6,0-2.8-1.3-2.8-2.8l0,0c0-1.6,1.3-2.8,2.8-2.8h19.2
					c1.6,0,2.8,1.3,2.8,2.8l0,0C156.2,144.7,155,146,153.4,146z"/>
				<path id="XMLID_4946_" class="st0" d="M153.4,146.9h-19.2c-2.1,0-3.7-1.7-3.7-3.7c0-2.1,1.7-3.7,3.7-3.7h19.2
					c2.1,0,3.7,1.7,3.7,3.7C157.1,145.2,155.5,146.9,153.4,146.9z M134.2,141.2c-1.1,0-1.9,0.9-1.9,1.9c0,1.1,0.9,1.9,1.9,1.9h19.2
					c1.1,0,1.9-0.9,1.9-1.9c0-1.1-0.9-1.9-1.9-1.9H134.2z"/>
			</g>
			<g id="XMLID_4632_">
				<circle id="XMLID_4937_" class="st2" cx="104.7" cy="148.6" r="16.1"/>
				<path id="XMLID_4942_" class="st0" d="M104.7,165.6c-9.4,0-17-7.6-17-17c0-9.4,7.6-17,17-17c9.4,0,17,7.6,17,17
					C121.6,158,114,165.6,104.7,165.6z M104.7,133.5c-8.4,0-15.2,6.8-15.2,15.2s6.8,15.2,15.2,15.2s15.2-6.8,15.2-15.2
					S113,133.5,104.7,133.5z"/>
			</g>
			<g id="XMLID_4631_">
				<path id="XMLID_4939_" class="st0" d="M104.7,157.5c-4.9,0-8.8-4-8.8-8.8c0-4.9,4-8.8,8.8-8.8c4.9,0,8.8,4,8.8,8.8
					C113.5,153.5,109.5,157.5,104.7,157.5z M104.7,141.6c-3.9,0-7,3.1-7,7s3.1,7,7,7c3.9,0,7-3.1,7-7S108.5,141.6,104.7,141.6z"/>
			</g>
			<g id="XMLID_4630_">
				<path id="XMLID_4938_" class="st0" d="M76.6,132.1c-0.5,0-0.9-0.4-0.9-0.9c0-0.5,0.4-0.9,0.9-0.9c3.2,0,5.9-2.6,5.9-5.9v-17.1
					c0-3.2-2.6-5.9-5.9-5.9c-0.5,0-0.9-0.4-0.9-0.9c0-0.5,0.4-0.9,0.9-0.9c4.2,0,7.7,3.4,7.7,7.7v17.1
					C84.3,128.6,80.9,132.1,76.6,132.1z"/>
			</g>
		</g>
		<g id="XMLID_4626_">
			<g id="XMLID_4628_">
				<path id="XMLID_4933_" class="st7" d="M93.1,183.9L93.1,183.9c-2.3,0-4.1-1.8-4.1-4.1v-3.2h8.2v3.2
					C97.2,182.1,95.4,183.9,93.1,183.9z"/>
				<path id="XMLID_4934_" class="st0" d="M93.1,184.8c-2.7,0-5-2.2-5-5v-3.2c0-0.5,0.4-0.9,0.9-0.9h8.2c0.5,0,0.9,0.4,0.9,0.9v3.2
					C98.1,182.6,95.9,184.8,93.1,184.8z M90,177.6v2.3c0,1.7,1.4,3.2,3.2,3.2c1.7,0,3.2-1.4,3.2-3.2v-2.3H90z"/>
			</g>
			<g id="XMLID_4627_">
				<path id="XMLID_4894_" class="st7" d="M148.3,183.9L148.3,183.9c-2.3,0-4.1-1.8-4.1-4.1v-3.2h8.1v3.2
					C152.4,182.1,150.6,183.9,148.3,183.9z"/>
				<path id="XMLID_4930_" class="st0" d="M148.3,184.8c-2.7,0-5-2.2-5-5v-3.2c0-0.5,0.4-0.9,0.9-0.9h8.2c0.5,0,0.9,0.4,0.9,0.9v3.2
					C153.3,182.6,151.1,184.8,148.3,184.8z M145.2,177.6v2.3c0,1.7,1.4,3.2,3.2,3.2c1.7,0,3.2-1.4,3.2-3.2v-2.3H145.2z"/>
			</g>
		</g>
		<g id="XMLID_4625_">
			<path id="XMLID_4929_" class="st3" d="M122.3,99.4H93c-0.7,0-1.4-0.6-1.4-1.4c0-0.7,0.6-1.4,1.4-1.4h29.3c0.7,0,1.4,0.6,1.4,1.4
				C123.7,98.8,123,99.4,122.3,99.4z"/>
		</g>
		<g id="XMLID_4624_">
			<path id="XMLID_4928_" class="st3" d="M113.3,109.1H96c-0.7,0-1.4-0.6-1.4-1.4s0.6-1.4,1.4-1.4h17.3c0.7,0,1.4,0.6,1.4,1.4
				S114,109.1,113.3,109.1z"/>
		</g>
		<g id="XMLID_4623_">
			<path id="XMLID_4927_" class="st3" d="M107.7,172.5H90.4c-0.7,0-1.4-0.6-1.4-1.4c0-0.7,0.6-1.4,1.4-1.4h17.3
				c0.7,0,1.4,0.6,1.4,1.4C109,171.9,108.4,172.5,107.7,172.5z"/>
		</g>
	</g>
	<g id="XMLID_4560_">
		<g id="XMLID_4590_">
			<g id="XMLID_4616_">
				<g id="XMLID_4621_">
					<rect id="XMLID_5530_" x="37" y="175.9" class="st2" width="11.9" height="2.7"/>
				</g>
				<g id="XMLID_4620_">
					<rect id="XMLID_5528_" x="40.1" y="175.9" class="st8" width="7.1" height="2.7"/>
				</g>
				<g id="XMLID_4619_">
					<path id="XMLID_4926_" class="st9" d="M42.9,178.8c-0.1,0-0.2-0.1-0.2-0.2v-2.7c0-0.1,0.1-0.2,0.2-0.2c0.1,0,0.2,0.1,0.2,0.2
						v2.7C43.1,178.7,43,178.8,42.9,178.8z"/>
				</g>
				<g id="XMLID_4618_">
					<path id="XMLID_4925_" class="st9" d="M43.7,178.8c-0.1,0-0.2-0.1-0.2-0.2v-2.7c0-0.1,0.1-0.2,0.2-0.2s0.2,0.1,0.2,0.2v2.7
						C43.9,178.7,43.8,178.8,43.7,178.8z"/>
				</g>
				<g id="XMLID_4617_">
					<path id="XMLID_4924_" class="st9" d="M44.8,178.8c-0.1,0-0.2-0.1-0.2-0.2v-2.7c0-0.1,0.1-0.2,0.2-0.2c0.1,0,0.2,0.1,0.2,0.2
						v2.7C45,178.7,44.9,178.8,44.8,178.8z"/>
				</g>
			</g>
			<g id="XMLID_4609_">
				<g id="XMLID_4615_">
					<rect id="XMLID_5519_" x="37.6" y="184" class="st2" width="11.9" height="2.7"/>
				</g>
				<g id="XMLID_4614_">
					<rect id="XMLID_5517_" x="42.1" y="184" class="st8" width="5.7" height="2.7"/>
				</g>
				<g id="XMLID_4613_">
					<path id="XMLID_4923_" class="st9" d="M43.5,187c-0.1,0-0.2-0.1-0.2-0.2V184c0-0.1,0.1-0.2,0.2-0.2c0.1,0,0.2,0.1,0.2,0.2v2.7
						C43.7,186.9,43.6,187,43.5,187z"/>
				</g>
				<g id="XMLID_4612_">
					<path id="XMLID_4922_" class="st9" d="M44.3,187c-0.1,0-0.2-0.1-0.2-0.2V184c0-0.1,0.1-0.2,0.2-0.2c0.1,0,0.2,0.1,0.2,0.2v2.7
						C44.5,186.9,44.4,187,44.3,187z"/>
				</g>
				<g id="XMLID_4611_">
					<path id="XMLID_4921_" class="st9" d="M45.4,187c-0.1,0-0.2-0.1-0.2-0.2V184c0-0.1,0.1-0.2,0.2-0.2s0.2,0.1,0.2,0.2v2.7
						C45.6,186.9,45.5,187,45.4,187z"/>
				</g>
				<g id="XMLID_4610_">
					<path id="XMLID_4920_" class="st9" d="M46.6,187c-0.1,0-0.2-0.1-0.2-0.2V184c0-0.1,0.1-0.2,0.2-0.2s0.2,0.1,0.2,0.2v2.7
						C46.9,186.9,46.8,187,46.6,187z"/>
				</g>
			</g>
			<g id="XMLID_4604_">
				<g id="XMLID_4608_">
					<rect id="XMLID_5506_" x="37.7" y="178.6" class="st2" width="11.9" height="2.7"/>
				</g>
				<g id="XMLID_4607_">
					<rect id="XMLID_5504_" x="42.4" y="178.6" class="st8" width="5.5" height="2.7"/>
				</g>
				<g id="XMLID_4606_">
					<path id="XMLID_4919_" class="st9" d="M44.6,181.5c-0.1,0-0.2-0.1-0.2-0.2v-2.7c0-0.1,0.1-0.2,0.2-0.2c0.1,0,0.2,0.1,0.2,0.2
						v2.7C44.8,181.4,44.7,181.5,44.6,181.5z"/>
				</g>
				<g id="XMLID_4605_">
					<path id="XMLID_4918_" class="st9" d="M45.3,181.5c-0.1,0-0.2-0.1-0.2-0.2v-2.7c0-0.1,0.1-0.2,0.2-0.2c0.1,0,0.2,0.1,0.2,0.2
						v2.7C45.5,181.4,45.4,181.5,45.3,181.5z"/>
				</g>
			</g>
			<g id="XMLID_4600_">
				<g id="XMLID_4603_">
					<rect id="XMLID_5497_" x="37" y="181.3" class="st2" width="11.9" height="2.7"/>
				</g>
				<g id="XMLID_4602_">
					<rect id="XMLID_5495_" x="41.7" y="181.3" class="st8" width="3.7" height="2.7"/>
				</g>
				<g id="XMLID_4601_">
					<path id="XMLID_4917_" class="st9" d="M43.8,184.3c-0.1,0-0.2-0.1-0.2-0.2v-2.7c0-0.1,0.1-0.2,0.2-0.2s0.2,0.1,0.2,0.2v2.7
						C44.1,184.2,44,184.3,43.8,184.3z"/>
				</g>
			</g>
			<g id="XMLID_4595_">
				<g id="XMLID_4599_">
					
						<rect id="XMLID_5490_" x="36.6" y="173.2" transform="matrix(-1 -1.224647e-016 1.224647e-016 -1 85.1103 349.0732)" class="st2" width="11.9" height="2.7"/>
				</g>
				<g id="XMLID_4598_">
					
						<rect id="XMLID_5488_" x="38.3" y="173.2" transform="matrix(-1 -1.224647e-016 1.224647e-016 -1 82.0566 349.0732)" class="st8" width="5.5" height="2.7"/>
				</g>
				<g id="XMLID_4597_">
					<path id="XMLID_4916_" class="st9" d="M41.6,176.1c-0.1,0-0.2-0.1-0.2-0.2v-2.7c0-0.1,0.1-0.2,0.2-0.2s0.2,0.1,0.2,0.2v2.7
						C41.9,176,41.8,176.1,41.6,176.1z"/>
				</g>
				<g id="XMLID_4596_">
					<path id="XMLID_4915_" class="st9" d="M40.9,176.1c-0.1,0-0.2-0.1-0.2-0.2v-2.7c0-0.1,0.1-0.2,0.2-0.2c0.1,0,0.2,0.1,0.2,0.2
						v2.7C41.1,176,41,176.1,40.9,176.1z"/>
				</g>
			</g>
			<g id="XMLID_4591_">
				<g id="XMLID_4594_">
					
						<rect id="XMLID_5481_" x="37.7" y="170.5" transform="matrix(-1 -1.224647e-016 1.224647e-016 -1 87.3159 343.6444)" class="st2" width="11.9" height="2.7"/>
				</g>
				<g id="XMLID_4593_">
					
						<rect id="XMLID_5479_" x="41.2" y="170.5" transform="matrix(-1 -1.224647e-016 1.224647e-016 -1 86.1471 343.6444)" class="st8" width="3.7" height="2.7"/>
				</g>
				<g id="XMLID_4592_">
					<path id="XMLID_4914_" class="st9" d="M42.8,173.4c-0.1,0-0.2-0.1-0.2-0.2v-2.7c0-0.1,0.1-0.2,0.2-0.2c0.1,0,0.2,0.1,0.2,0.2
						v2.7C43,173.3,42.9,173.4,42.8,173.4z"/>
				</g>
			</g>
		</g>
		<g id="XMLID_4573_">
			<g id="XMLID_4583_">
				<g id="XMLID_4589_">
					
						<rect id="XMLID_5473_" x="23.8" y="178.6" transform="matrix(-1 -1.224647e-016 1.224647e-016 -1 59.4515 359.9308)" class="st2" width="11.9" height="2.7"/>
				</g>
				<g id="XMLID_4588_">
					
						<rect id="XMLID_5471_" x="25.4" y="178.6" transform="matrix(-1 -1.224647e-016 1.224647e-016 -1 56.5485 359.9308)" class="st8" width="5.7" height="2.7"/>
				</g>
				<g id="XMLID_4587_">
					<path id="XMLID_4913_" class="st9" d="M29.7,181.5c-0.1,0-0.2-0.1-0.2-0.2v-2.7c0-0.1,0.1-0.2,0.2-0.2c0.1,0,0.2,0.1,0.2,0.2
						v2.7C30,181.4,29.9,181.5,29.7,181.5z"/>
				</g>
				<g id="XMLID_4586_">
					<path id="XMLID_4912_" class="st9" d="M29,181.5c-0.1,0-0.2-0.1-0.2-0.2v-2.7c0-0.1,0.1-0.2,0.2-0.2s0.2,0.1,0.2,0.2v2.7
						C29.2,181.4,29.1,181.5,29,181.5z"/>
				</g>
				<g id="XMLID_4585_">
					<path id="XMLID_4911_" class="st9" d="M27.9,181.5c-0.1,0-0.2-0.1-0.2-0.2v-2.7c0-0.1,0.1-0.2,0.2-0.2c0.1,0,0.2,0.1,0.2,0.2
						v2.7C28.1,181.4,28,181.5,27.9,181.5z"/>
				</g>
				<g id="XMLID_4584_">
					<path id="XMLID_4910_" class="st9" d="M26.6,181.5c-0.1,0-0.2-0.1-0.2-0.2v-2.7c0-0.1,0.1-0.2,0.2-0.2s0.2,0.1,0.2,0.2v2.7
						C26.8,181.4,26.7,181.5,26.6,181.5z"/>
				</g>
			</g>
			<g id="XMLID_4578_">
				<g id="XMLID_4582_">
					
						<rect id="XMLID_5460_" x="23.6" y="184" transform="matrix(-1 -1.224647e-016 1.224647e-016 -1 59.1497 370.7885)" class="st2" width="11.9" height="2.7"/>
				</g>
				<g id="XMLID_4581_">
					
						<rect id="XMLID_5458_" x="25.3" y="184" transform="matrix(-1 -1.224647e-016 1.224647e-016 -1 56.0961 370.7885)" class="st8" width="5.5" height="2.7"/>
				</g>
				<g id="XMLID_4580_">
					<path id="XMLID_4909_" class="st9" d="M28.7,187c-0.1,0-0.2-0.1-0.2-0.2V184c0-0.1,0.1-0.2,0.2-0.2s0.2,0.1,0.2,0.2v2.7
						C28.9,186.9,28.8,187,28.7,187z"/>
				</g>
				<g id="XMLID_4579_">
					<path id="XMLID_4908_" class="st9" d="M27.9,187c-0.1,0-0.2-0.1-0.2-0.2V184c0-0.1,0.1-0.2,0.2-0.2s0.2,0.1,0.2,0.2v2.7
						C28.1,186.9,28,187,27.9,187z"/>
				</g>
			</g>
			<g id="XMLID_4574_">
				<g id="XMLID_4577_">
					
						<rect id="XMLID_5451_" x="24.4" y="181.3" transform="matrix(-1 -1.224647e-016 1.224647e-016 -1 60.6201 365.3596)" class="st2" width="11.9" height="2.7"/>
				</g>
				<g id="XMLID_4576_">
					
						<rect id="XMLID_5449_" x="27.9" y="181.3" transform="matrix(-1 -1.224647e-016 1.224647e-016 -1 59.4515 365.3596)" class="st8" width="3.7" height="2.7"/>
				</g>
				<g id="XMLID_4575_">
					<path id="XMLID_4907_" class="st9" d="M29.4,184.3c-0.1,0-0.2-0.1-0.2-0.2v-2.7c0-0.1,0.1-0.2,0.2-0.2c0.1,0,0.2,0.1,0.2,0.2
						v2.7C29.6,184.2,29.5,184.3,29.4,184.3z"/>
				</g>
			</g>
		</g>
		<g id="XMLID_4565_">
			<g id="XMLID_4572_">
				<circle id="XMLID_5443_" class="st2" cx="45.5" cy="165.3" r="5.9"/>
			</g>
			<g id="XMLID_4571_">
				<path id="XMLID_4904_" class="st9" d="M45.5,170.1c-2.6,0-4.8-2.2-4.8-4.8c0-2.6,2.2-4.8,4.8-4.8c2.6,0,4.8,2.2,4.8,4.8
					C50.3,167.9,48.2,170.1,45.5,170.1z M45.5,160.9c-2.4,0-4.3,1.9-4.3,4.3c0,2.4,1.9,4.3,4.3,4.3s4.3-1.9,4.3-4.3
					C49.9,162.9,47.9,160.9,45.5,160.9z"/>
			</g>
			<g id="XMLID_4566_">
				<g id="XMLID_4567_">
					<path id="XMLID_5434_" class="st8" d="M45.1,168.1v-0.5c-0.4-0.1-0.8-0.2-1.2-0.5c-0.2-0.2-0.3-0.5-0.1-0.7l0,0
						c0.2-0.2,0.5-0.2,0.7-0.1c0.2,0.2,0.4,0.3,0.6,0.3v-1c-0.5-0.1-0.8-0.3-1.1-0.5c-0.2-0.2-0.3-0.5-0.3-0.9c0-0.4,0.1-0.7,0.4-1
						c0.3-0.3,0.6-0.4,1-0.5v-0.3h0.7v0.4c0.3,0,0.6,0.1,0.9,0.3c0.3,0.1,0.4,0.5,0.2,0.7l0,0c-0.1,0.2-0.4,0.3-0.6,0.2
						c-0.2-0.1-0.3-0.1-0.5-0.2v1c0.5,0.1,0.9,0.3,1.1,0.5c0.2,0.2,0.4,0.5,0.4,0.9c0,0.4-0.1,0.7-0.4,1c-0.3,0.3-0.6,0.4-1.1,0.5
						v0.5H45.1z M45.1,163.7c-0.2,0.1-0.3,0.2-0.3,0.4c0,0.2,0.1,0.3,0.3,0.4V163.7z M46.2,166.3c0-0.1,0-0.2-0.1-0.2
						c-0.1-0.1-0.1-0.1-0.3-0.2v0.9C46.1,166.6,46.2,166.5,46.2,166.3z"/>
				</g>
			</g>
		</g>
		<g id="XMLID_4561_">
			<g id="XMLID_4564_">
				<path id="XMLID_4901_" class="st0" d="M49.5,187.7H37.6c-0.5,0-0.9-0.4-0.9-0.9v-1.9c-0.3-0.1-0.6-0.5-0.6-0.8v-2.7
					c0-0.4,0.3-0.8,0.7-0.9v-0.9c-0.4-0.1-0.7-0.4-0.7-0.9v-2c-0.2-0.2-0.4-0.4-0.4-0.7v-2.7c0-0.5,0.4-0.9,0.9-0.9h0.2v-1.8
					c0-0.5,0.4-0.9,0.9-0.9h11.9c0.5,0,0.9,0.4,0.9,0.9v2.7c0,0.5-0.4,0.9-0.9,0.9h-0.2v1.1c0.2,0.2,0.4,0.4,0.4,0.7v1.8
					c0.4,0.1,0.7,0.4,0.7,0.9v2.7c0,0.4-0.3,0.8-0.7,0.9v1c0.3,0.1,0.6,0.5,0.6,0.8v2.7C50.4,187.3,50,187.7,49.5,187.7z
					 M38.5,185.8h10.1v-1c-0.3-0.1-0.6-0.5-0.6-0.8v-2.7c0-0.4,0.3-0.8,0.7-0.9v-0.9c-0.4-0.1-0.7-0.4-0.7-0.9v-2
					c-0.2-0.2-0.4-0.4-0.4-0.7v-2.7c0-0.5,0.4-0.9,0.9-0.9h0.2v-0.9H38.6v1.8c0,0.5-0.4,0.9-0.9,0.9h-0.2v1.1
					c0.2,0.2,0.4,0.4,0.4,0.7v1.8c0.4,0.1,0.7,0.4,0.7,0.9v2.7c0,0.4-0.3,0.8-0.7,0.9v1c0.3,0.1,0.6,0.5,0.6,0.8V185.8z"/>
			</g>
			<g id="XMLID_4563_">
				<path id="XMLID_4898_" class="st0" d="M35.5,187.7H23.6c-0.5,0-0.9-0.4-0.9-0.9V184c0-0.4,0.3-0.8,0.7-0.9v-1
					c-0.3-0.1-0.6-0.5-0.6-0.8v-2.7c0-0.5,0.4-0.9,0.9-0.9h11.9c0.5,0,0.9,0.4,0.9,0.9v1.9c0.3,0.1,0.6,0.5,0.6,0.8v2.7
					c0,0.4-0.3,0.8-0.7,0.9v1.8C36.4,187.3,36,187.7,35.5,187.7z M24.5,185.8h10.1V184c0-0.4,0.3-0.8,0.7-0.9v-1
					c-0.3-0.1-0.6-0.5-0.6-0.8v-1.8H24.7v1c0.3,0.1,0.6,0.5,0.6,0.8v2.7c0,0.4-0.3,0.8-0.7,0.9V185.8z"/>
			</g>
			<g id="XMLID_4562_">
				<path id="XMLID_4895_" class="st0" d="M45.9,171.3c-3.7,0-6.8-3.1-6.8-6.8s3.1-6.8,6.8-6.8s6.8,3.1,6.8,6.8
					S49.7,171.3,45.9,171.3z M45.9,159.5c-2.8,0-5,2.2-5,5s2.2,5,5,5s5-2.2,5-5S48.7,159.5,45.9,159.5z"/>
			</g>
		</g>
	</g>
	<g id="XMLID_4534_">
		<g id="XMLID_4559_">
			<path id="XMLID_4890_" class="st7" d="M260.9,186.7H134c-6.2,0-9.7-7-6.1-12l0,0H267l0,0C270.6,179.8,267,186.7,260.9,186.7z"/>
			<path id="XMLID_4891_" class="st0" d="M260.9,187.7H134c-3.2,0-6.1-1.8-7.5-4.6c-1.5-2.8-1.2-6.2,0.6-8.8
				c0.2-0.2,0.4-0.4,0.7-0.4H267c0.3,0,0.6,0.1,0.7,0.4c1.9,2.6,2.1,6,0.6,8.8C267,185.9,264.1,187.7,260.9,187.7z M128.3,175.7
				c-1.2,2-1.3,4.4-0.3,6.5c1.2,2.3,3.4,3.6,5.9,3.6h126.9c2.5,0,4.8-1.4,5.9-3.6c1.1-2.1,1-4.5-0.3-6.5H128.3z"/>
		</g>
		<g id="XMLID_4558_">
			<path id="XMLID_4886_" class="st10" d="M251.8,174.8H143v-63.6c0-5.7,4.6-10.3,10.3-10.3h88.2c5.7,0,10.3,4.6,10.3,10.3V174.8z"
				/>
			<path id="XMLID_4887_" class="st0" d="M251.8,175.7H143c-0.5,0-0.9-0.4-0.9-0.9v-63.4c0-6.3,5.1-11.4,11.4-11.4h87.8
				c6.3,0,11.4,5.1,11.4,11.4v63.4C252.7,175.3,252.3,175.7,251.8,175.7z M143.9,173.9h107v-62.5c0-5.3-4.3-9.6-9.6-9.6h-87.8
				c-5.3,0-9.6,4.3-9.6,9.6V173.9z"/>
		</g>
		<g id="XMLID_4557_">
			<path id="XMLID_4882_" class="st4" d="M147.1,170.7v-59.3c0-3.6,2.9-6.5,6.5-6.5h87.7c3.6,0,6.5,2.9,6.5,6.5v59.3H147.1z"/>
			<path id="XMLID_4883_" class="st0" d="M247.8,171.6H147.1c-0.5,0-0.9-0.4-0.9-0.9v-59.3c0-4,3.3-7.3,7.3-7.3h87.8
				c4,0,7.3,3.3,7.3,7.3v59.3C248.7,171.2,248.3,171.6,247.8,171.6z M148,169.8h98.8v-58.4c0-3-2.5-5.5-5.5-5.5h-87.8
				c-3,0-5.5,2.5-5.5,5.5V169.8z"/>
		</g>
		<g id="XMLID_4554_">
			<g id="XMLID_4556_">
				<path id="XMLID_4878_" class="st11" d="M165.9,144.8l2.1-10.4c-0.7-0.1-1.4-0.2-2.1-0.2c-5.8,0-10.6,4.7-10.6,10.6
					c0,5.8,4.7,10.6,10.6,10.6c5.8,0,10.6-4.7,10.6-10.6c0-0.7-0.1-1.4-0.2-2.1L165.9,144.8z"/>
				<path id="XMLID_4879_" class="st0" d="M165.9,156.3c-6.3,0-11.5-5.2-11.5-11.5c0-6.3,5.2-11.5,11.5-11.5c0.7,0,1.5,0.1,2.3,0.2
					c0.2,0,0.4,0.2,0.6,0.4c0.1,0.2,0.2,0.4,0.1,0.7l-1.8,9l9-1.8c0.2,0,0.5,0,0.7,0.1c0.2,0.1,0.3,0.3,0.4,0.6
					c0.1,0.7,0.2,1.5,0.2,2.3C177.4,151.2,172.2,156.3,165.9,156.3z M165.9,135.1c-5.3,0-9.7,4.3-9.7,9.7c0,5.3,4.3,9.7,9.7,9.7
					c5.3,0,9.7-4.3,9.7-9.7c0-0.3,0-0.7-0.1-1l-9.5,1.9c-0.3,0.1-0.6,0-0.8-0.2c-0.2-0.2-0.3-0.5-0.2-0.8l1.9-9.5
					C166.6,135.2,166.2,135.1,165.9,135.1z"/>
			</g>
			<g id="XMLID_4555_">
				<path id="XMLID_4871_" class="st6" d="M179.4,139.6c-0.8-4.2-4.1-7.5-8.3-8.3l-2.1,10.4L179.4,139.6z"/>
				<path id="XMLID_4875_" class="st0" d="M169,142.6c-0.2,0-0.5-0.1-0.6-0.3c-0.2-0.2-0.3-0.5-0.2-0.8l2.1-10.4
					c0.1-0.5,0.6-0.8,1.1-0.7c4.6,0.9,8.1,4.4,9,9c0.1,0.5-0.2,1-0.7,1.1l-10.4,2.1C169.2,142.6,169.1,142.6,169,142.6z
					 M171.8,132.4l-1.6,8.1l8.1-1.6C177.4,135.8,175,133.3,171.8,132.4z"/>
			</g>
		</g>
		<g id="XMLID_4551_">
			<g id="XMLID_4553_">
				<path id="XMLID_4874_" class="st0" d="M174.5,116h-17.3c-0.5,0-0.9-0.4-0.9-0.9c0-0.5,0.4-0.9,0.9-0.9h17.3
					c0.5,0,0.9,0.4,0.9,0.9C175.4,115.6,175,116,174.5,116z"/>
			</g>
			<g id="XMLID_4552_">
				<path id="XMLID_4873_" class="st0" d="M176.3,124.2h-20.7c-0.5,0-0.9-0.4-0.9-0.9c0-0.5,0.4-0.9,0.9-0.9h20.7
					c0.5,0,0.9,0.4,0.9,0.9C177.2,123.8,176.8,124.2,176.3,124.2z"/>
			</g>
		</g>
		<g id="XMLID_4537_">
			<g id="XMLID_4550_">
				<path id="XMLID_4872_" class="st0" d="M242.2,166h-49.3c-0.5,0-0.9-0.4-0.9-0.9v-46c0-0.5,0.4-0.9,0.9-0.9s0.9,0.4,0.9,0.9v45.1
					h48.4c0.5,0,0.9,0.4,0.9,0.9C243.1,165.6,242.7,166,242.2,166z"/>
			</g>
			<g id="XMLID_4546_">
				<g id="XMLID_4549_">
					<rect id="XMLID_4867_" x="198.7" y="140" class="st11" width="9.1" height="25.2"/>
					<path id="XMLID_4868_" class="st0" d="M207.8,166h-9.1c-0.5,0-0.9-0.4-0.9-0.9V140c0-0.5,0.4-0.9,0.9-0.9h9.1
						c0.5,0,0.9,0.4,0.9,0.9v25.2C208.7,165.6,208.3,166,207.8,166z M199.6,164.2h7.3v-23.4h-7.3V164.2z"/>
				</g>
				<g id="XMLID_4548_">
					<rect id="XMLID_4863_" x="213" y="147" class="st2" width="9.1" height="18.2"/>
					<path id="XMLID_4864_" class="st0" d="M222.1,166H213c-0.5,0-0.9-0.4-0.9-0.9V147c0-0.5,0.4-0.9,0.9-0.9h9.1
						c0.5,0,0.9,0.4,0.9,0.9v18.2C223,165.6,222.6,166,222.1,166z M213.9,164.2h7.3v-16.4h-7.3V164.2z"/>
				</g>
				<g id="XMLID_4547_">
					<rect id="XMLID_4850_" x="227.4" y="131.3" class="st6" width="9.1" height="33.8"/>
					<path id="XMLID_4860_" class="st0" d="M236.5,166h-9.1c-0.5,0-0.9-0.4-0.9-0.9v-33.8c0-0.5,0.4-0.9,0.9-0.9h9.1
						c0.5,0,0.9,0.4,0.9,0.9v33.8C237.4,165.6,237,166,236.5,166z M228.3,164.2h7.3v-32h-7.3V164.2z"/>
				</g>
			</g>
			<g id="XMLID_4545_">
				<path id="XMLID_4859_" class="st0" d="M197.6,138.2c-0.3,0-0.6-0.2-0.8-0.5c-0.2-0.4-0.1-1,0.3-1.2l12.2-7
					c0.4-0.2,0.9-0.1,1.2,0.2l4.5,6.1l16.1-17.3c0.3-0.4,0.9-0.4,1.3,0c0.4,0.3,0.4,0.9,0,1.3l-16.8,18.1c-0.2,0.2-0.4,0.3-0.7,0.3
					c-0.3,0-0.5-0.1-0.7-0.4l-4.7-6.3l-11.5,6.6C197.9,138.1,197.8,138.2,197.6,138.2z"/>
			</g>
			<g id="XMLID_4544_">
				<path id="XMLID_4858_" class="st0" d="M231.8,126.2c-0.5,0-0.9-0.4-0.9-0.9v-5.2h-5.2c-0.5,0-0.9-0.4-0.9-0.9
					c0-0.5,0.4-0.9,0.9-0.9h6.1c0.5,0,0.9,0.4,0.9,0.9v6.1C232.7,125.8,232.3,126.2,231.8,126.2z"/>
			</g>
			<g id="XMLID_4538_">
				<g id="XMLID_4543_">
					<path id="XMLID_4857_" class="st0" d="M192.9,159.6h-5.4c-0.5,0-0.9-0.4-0.9-0.9c0-0.5,0.4-0.9,0.9-0.9h5.4
						c0.5,0,0.9,0.4,0.9,0.9C193.9,159.2,193.4,159.6,192.9,159.6z"/>
				</g>
				<g id="XMLID_4542_">
					<path id="XMLID_4856_" class="st0" d="M192.9,150.8h-5.4c-0.5,0-0.9-0.4-0.9-0.9c0-0.5,0.4-0.9,0.9-0.9h5.4
						c0.5,0,0.9,0.4,0.9,0.9C193.9,150.4,193.4,150.8,192.9,150.8z"/>
				</g>
				<g id="XMLID_4541_">
					<path id="XMLID_4855_" class="st0" d="M192.9,142h-5.4c-0.5,0-0.9-0.4-0.9-0.9c0-0.5,0.4-0.9,0.9-0.9h5.4
						c0.5,0,0.9,0.4,0.9,0.9C193.9,141.6,193.4,142,192.9,142z"/>
				</g>
				<g id="XMLID_4540_">
					<path id="XMLID_4854_" class="st0" d="M192.9,133.2h-5.4c-0.5,0-0.9-0.4-0.9-0.9c0-0.5,0.4-0.9,0.9-0.9h5.4
						c0.5,0,0.9,0.4,0.9,0.9C193.9,132.8,193.4,133.2,192.9,133.2z"/>
				</g>
				<g id="XMLID_4539_">
					<path id="XMLID_4853_" class="st0" d="M192.9,124.5h-5.4c-0.5,0-0.9-0.4-0.9-0.9c0-0.5,0.4-0.9,0.9-0.9h5.4
						c0.5,0,0.9,0.4,0.9,0.9C193.9,124.1,193.4,124.5,192.9,124.5z"/>
				</g>
			</g>
		</g>
		<g id="XMLID_4536_">
			<path id="XMLID_4852_" class="st0" d="M204.7,178.9h-14.6c-0.5,0-0.9-0.4-0.9-0.9s0.4-0.9,0.9-0.9h14.6c0.5,0,0.9,0.4,0.9,0.9
				S205.2,178.9,204.7,178.9z"/>
		</g>
		<g id="XMLID_4535_">
			<path id="XMLID_4851_" class="st3" d="M256.6,183.8h-40.2c-0.7,0-1.4-0.6-1.4-1.4c0-0.7,0.6-1.4,1.4-1.4h40.2
				c0.7,0,1.4,0.6,1.4,1.4C257.9,183.2,257.3,183.8,256.6,183.8z"/>
		</g>
	</g>
	<g id="XMLID_4527_">
		<g id="XMLID_4533_">
			<path id="XMLID_4846_" class="st10" d="M225,71.6c0-4.1,3.3-7.4,7.4-7.4h13.9v36.7H225V71.6z"/>
			<path id="XMLID_4847_" class="st0" d="M246.2,101.8H225c-0.5,0-0.9-0.4-0.9-0.9V71.6c0-4.6,3.7-8.3,8.3-8.3h13.9
				c0.5,0,0.9,0.4,0.9,0.9v36.7C247.1,101.4,246.7,101.8,246.2,101.8z M225.9,100h19.4V65.1h-13c-3.6,0-6.5,2.9-6.5,6.5V100z"/>
		</g>
		<g id="XMLID_4532_">
			<path id="XMLID_4842_" class="st4" d="M246.5,148.8c-4.1,0-7.4-3.3-7.4-7.4l0.1-69.8c0-4.1-3.3-7.4-7.4-7.4h46
				c4.1,0,7.4,3.3,7.4,7.4v77.2H246.5z"/>
			<path id="XMLID_4843_" class="st0" d="M285.3,149.7h-38.7c-4.6,0-8.3-3.7-8.3-8.3l0.1-69.8c0-3.6-2.9-6.5-6.5-6.5
				c-0.5,0-0.9-0.4-0.9-0.9c0-0.5,0.4-0.9,0.9-0.9h46c4.6,0,8.3,3.7,8.3,8.3v77.2C286.2,149.3,285.8,149.7,285.3,149.7z M237.1,65.1
				c1.9,1.5,3.1,3.9,3.1,6.5l-0.1,69.8c0,3.6,2.9,6.5,6.5,6.5h37.8V71.6c0-3.6-2.9-6.5-6.5-6.5H237.1z"/>
		</g>
		<g id="XMLID_4531_">
			<path id="XMLID_4838_" class="st10" d="M274.7,148.8V99.3h-13.9c-4.1,0-7.4,3.3-7.4,7.4v4v30.7c0,4.1-3.3,7.4-7.4,7.4H274.7z"/>
			<path id="XMLID_4839_" class="st0" d="M274.7,149.7h-28.6c-0.5,0-0.9-0.4-0.9-0.9c0-0.5,0.4-0.9,0.9-0.9c3.6,0,6.5-2.9,6.5-6.5
				v-34.7c0-4.6,3.7-8.3,8.3-8.3h13.9c0.5,0,0.9,0.4,0.9,0.9v49.5C275.6,149.3,275.2,149.7,274.7,149.7z M251.3,147.9h22.6v-47.7
				h-13c-3.6,0-6.5,2.9-6.5,6.5v34.7C254.4,144,253.2,146.4,251.3,147.9z"/>
		</g>
		<g id="XMLID_4528_">
			<g id="XMLID_4530_">
				<path id="XMLID_4834_" class="st4" d="M260.3,99.3c4.1,0,7.4,3.3,7.4,7.4v72.7c0,4.1,3.3,7.4,7.4,7.4h38.6v-80.1
					c0-4.1-3.3-7.4-7.4-7.4H260.3z"/>
				<path id="XMLID_4835_" class="st0" d="M313.7,187.7h-38.6c-4.6,0-8.3-3.7-8.3-8.3v-72.7c0-3.6-2.9-6.5-6.5-6.5
					c-0.5,0-0.9-0.4-0.9-0.9c0-0.5,0.4-0.9,0.9-0.9h46c4.6,0,8.3,3.7,8.3,8.3v80.1C314.6,187.2,314.2,187.7,313.7,187.7z
					 M265.5,100.2c1.9,1.5,3.1,3.9,3.1,6.5v72.7c0,3.6,2.9,6.5,6.5,6.5h37.7v-79.2c0-3.6-2.9-6.5-6.5-6.5H265.5z"/>
			</g>
			<g id="XMLID_4529_">
				<path id="XMLID_4821_" class="st10" d="M328.1,175.4v4c0,4.1-3.3,7.4-7.4,7.4h-46c4.1,0,7.4-3.3,7.4-7.4v-4H328.1z"/>
				<path id="XMLID_4831_" class="st0" d="M320.7,187.7h-46c-0.5,0-0.9-0.4-0.9-0.9c0-0.5,0.4-0.9,0.9-0.9c3.6,0,6.5-2.9,6.5-6.5v-4
					c0-0.5,0.4-0.9,0.9-0.9h46c0.5,0,0.9,0.4,0.9,0.9v4C329,183.9,325.3,187.7,320.7,187.7z M279.9,185.8h40.8
					c3.6,0,6.5-2.9,6.5-6.5v-3.1H283v3.1C283,182,281.8,184.3,279.9,185.8z"/>
			</g>
		</g>
	</g>
	<g id="XMLID_4508_">
		<g id="XMLID_4525_">
			<g id="XMLID_4526_">
				<path id="XMLID_4830_" class="st0" d="M296.9,120.4h-23.7c-0.5,0-0.9-0.4-0.9-0.9s0.4-0.9,0.9-0.9h23.7c0.5,0,0.9,0.4,0.9,0.9
					S297.4,120.4,296.9,120.4z"/>
			</g>
		</g>
		<g id="XMLID_4523_">
			<g id="XMLID_4524_">
				<path id="XMLID_4829_" class="st0" d="M296.9,135.5h-23.7c-0.5,0-0.9-0.4-0.9-0.9s0.4-0.9,0.9-0.9h23.7c0.5,0,0.9,0.4,0.9,0.9
					S297.4,135.5,296.9,135.5z"/>
			</g>
		</g>
		<g id="XMLID_4521_">
			<g id="XMLID_4522_">
				<path id="XMLID_4828_" class="st0" d="M296.9,143.1h-23.7c-0.5,0-0.9-0.4-0.9-0.9s0.4-0.9,0.9-0.9h23.7c0.5,0,0.9,0.4,0.9,0.9
					S297.4,143.1,296.9,143.1z"/>
			</g>
		</g>
		<g id="XMLID_4519_">
			<g id="XMLID_4520_">
				<path id="XMLID_4827_" class="st0" d="M296.9,127.9h-23.7c-0.5,0-0.9-0.4-0.9-0.9c0-0.5,0.4-0.9,0.9-0.9h23.7
					c0.5,0,0.9,0.4,0.9,0.9C297.8,127.5,297.4,127.9,296.9,127.9z"/>
			</g>
		</g>
		<g id="XMLID_4517_">
			<g id="XMLID_4518_">
				<path id="XMLID_4826_" class="st0" d="M277.2,76.2h-23.7c-0.5,0-0.9-0.4-0.9-0.9c0-0.5,0.4-0.9,0.9-0.9h23.7
					c0.5,0,0.9,0.4,0.9,0.9C278.1,75.8,277.7,76.2,277.2,76.2z"/>
			</g>
		</g>
		<g id="XMLID_4515_">
			<g id="XMLID_4516_">
				<path id="XMLID_4825_" class="st0" d="M277.2,91.4h-23.7c-0.5,0-0.9-0.4-0.9-0.9c0-0.5,0.4-0.9,0.9-0.9h23.7
					c0.5,0,0.9,0.4,0.9,0.9C278.1,91,277.7,91.4,277.2,91.4z"/>
			</g>
		</g>
		<g id="XMLID_4513_">
			<g id="XMLID_4514_">
				<path id="XMLID_4824_" class="st0" d="M277.2,83.8h-23.7c-0.5,0-0.9-0.4-0.9-0.9s0.4-0.9,0.9-0.9h23.7c0.5,0,0.9,0.4,0.9,0.9
					S277.7,83.8,277.2,83.8z"/>
			</g>
		</g>
		<g id="XMLID_4511_">
			<g id="XMLID_4512_">
				<path id="XMLID_4823_" class="st0" d="M296.9,150.6h-23.7c-0.5,0-0.9-0.4-0.9-0.9c0-0.5,0.4-0.9,0.9-0.9h23.7
					c0.5,0,0.9,0.4,0.9,0.9C297.8,150.2,297.4,150.6,296.9,150.6z"/>
			</g>
		</g>
		<g id="XMLID_4509_">
			<g id="XMLID_4510_">
				<path id="XMLID_4822_" class="st0" d="M296.9,158.2h-23.7c-0.5,0-0.9-0.4-0.9-0.9c0-0.5,0.4-0.9,0.9-0.9h23.7
					c0.5,0,0.9,0.4,0.9,0.9C297.8,157.8,297.4,158.2,296.9,158.2z"/>
			</g>
		</g>
	</g>
	<g id="XMLID_4503_">
		<g id="XMLID_4507_">
			<circle id="XMLID_4815_" class="st2" cx="302.3" cy="109.7" r="5"/>
			<path id="XMLID_4818_" class="st0" d="M302.3,115.6c-3.3,0-5.9-2.7-5.9-5.9c0-3.3,2.7-5.9,5.9-5.9c3.3,0,5.9,2.7,5.9,5.9
				C308.2,113,305.5,115.6,302.3,115.6z M302.3,105.6c-2.3,0-4.1,1.8-4.1,4.1c0,2.3,1.8,4.1,4.1,4.1c2.3,0,4.1-1.8,4.1-4.1
				C306.4,107.4,304.5,105.6,302.3,105.6z"/>
		</g>
		<g id="XMLID_4504_">
			<g id="XMLID_4506_">
				<path id="XMLID_4817_" class="st0" d="M304.4,110.6h-4.2c-0.5,0-0.9-0.4-0.9-0.9s0.4-0.9,0.9-0.9h4.2c0.5,0,0.9,0.4,0.9,0.9
					S304.9,110.6,304.4,110.6z"/>
			</g>
			<g id="XMLID_4505_">
				<path id="XMLID_4816_" class="st0" d="M302.3,112.7c-0.5,0-0.9-0.4-0.9-0.9v-4.2c0-0.5,0.4-0.9,0.9-0.9c0.5,0,0.9,0.4,0.9,0.9
					v4.2C303.2,112.3,302.8,112.7,302.3,112.7z"/>
			</g>
		</g>
	</g>
	<g id="XMLID_4499_">
		<g id="XMLID_4502_">
			<circle id="XMLID_4810_" class="st11" cx="279.3" cy="167.7" r="5"/>
			<path id="XMLID_4812_" class="st0" d="M279.3,173.6c-3.3,0-5.9-2.7-5.9-5.9c0-3.3,2.7-5.9,5.9-5.9c3.3,0,5.9,2.7,5.9,5.9
				C285.2,170.9,282.6,173.6,279.3,173.6z M279.3,163.6c-2.3,0-4.1,1.8-4.1,4.1c0,2.3,1.8,4.1,4.1,4.1s4.1-1.8,4.1-4.1
				C283.4,165.4,281.6,163.6,279.3,163.6z"/>
		</g>
		<g id="XMLID_4500_">
			<g id="XMLID_4501_">
				<path id="XMLID_4811_" class="st0" d="M281.4,168.6h-4.2c-0.5,0-0.9-0.4-0.9-0.9s0.4-0.9,0.9-0.9h4.2c0.5,0,0.9,0.4,0.9,0.9
					S281.9,168.6,281.4,168.6z"/>
			</g>
		</g>
	</g>
	<g id="XMLID_4475_">
		<g id="XMLID_4498_">
			<path id="XMLID_4806_" class="st7" d="M338.3,170.6h-35c-1.1,0-2-0.9-2-2V121c0-1.1,0.9-2,2-2h35c1.1,0,2,0.9,2,2v47.6
				C340.2,169.7,339.4,170.6,338.3,170.6z"/>
			<path id="XMLID_4807_" class="st0" d="M337.8,171.5h-34.1c-1.8,0-3.3-1.5-3.3-3.3v-46.7c0-1.8,1.5-3.3,3.3-3.3h34.1
				c1.8,0,3.3,1.5,3.3,3.3v46.7C341.1,170,339.7,171.5,337.8,171.5z M303.8,120c-0.8,0-1.5,0.7-1.5,1.5v46.7c0,0.8,0.7,1.5,1.5,1.5
				h34.1c0.8,0,1.5-0.7,1.5-1.5v-46.7c0-0.8-0.7-1.5-1.5-1.5H303.8z"/>
		</g>
		<g id="XMLID_4476_">
			<g id="XMLID_4497_">
				<path id="XMLID_5266_" class="st4" d="M333.1,132.7h-24.7c-1.8,0-3.2-1.4-3.2-3.2v-3.2c0-1.8,1.4-3.2,3.2-3.2h24.7
					c1.8,0,3.2,1.4,3.2,3.2v3.2C336.4,131.3,334.9,132.7,333.1,132.7z"/>
			</g>
			<g id="XMLID_4492_">
				<g id="XMLID_4496_">
					<path id="XMLID_5264_" class="st11" d="M309.2,142.3h-2c-1.1,0-2-0.9-2-2v-2c0-1.1,0.9-2,2-2h2c1.1,0,2,0.9,2,2v2
						C311.3,141.4,310.4,142.3,309.2,142.3z"/>
				</g>
				<g id="XMLID_4495_">
					<path id="XMLID_5262_" class="st11" d="M317.6,142.3h-2c-1.1,0-2-0.9-2-2v-2c0-1.1,0.9-2,2-2h2c1.1,0,2,0.9,2,2v2
						C319.6,141.4,318.7,142.3,317.6,142.3z"/>
				</g>
				<g id="XMLID_4494_">
					<path id="XMLID_5260_" class="st11" d="M326,142.3h-2c-1.1,0-2-0.9-2-2v-2c0-1.1,0.9-2,2-2h2c1.1,0,2,0.9,2,2v2
						C328,141.4,327.1,142.3,326,142.3z"/>
				</g>
				<g id="XMLID_4493_">
					<path id="XMLID_5258_" class="st2" d="M334.3,142.3h-2c-1.1,0-2-0.9-2-2v-2c0-1.1,0.9-2,2-2h2c1.1,0,2,0.9,2,2v2
						C336.4,141.4,335.5,142.3,334.3,142.3z"/>
				</g>
			</g>
			<g id="XMLID_4487_">
				<g id="XMLID_4491_">
					<path id="XMLID_5255_" class="st12" d="M309.2,150.3h-2c-1.1,0-2-0.9-2-2v-2c0-1.1,0.9-2,2-2h2c1.1,0,2,0.9,2,2v2
						C311.3,149.4,310.4,150.3,309.2,150.3z"/>
				</g>
				<g id="XMLID_4490_">
					<path id="XMLID_5253_" class="st12" d="M317.6,150.3h-2c-1.1,0-2-0.9-2-2v-2c0-1.1,0.9-2,2-2h2c1.1,0,2,0.9,2,2v2
						C319.6,149.4,318.7,150.3,317.6,150.3z"/>
				</g>
				<g id="XMLID_4489_">
					<path id="XMLID_5251_" class="st12" d="M326,150.3h-2c-1.1,0-2-0.9-2-2v-2c0-1.1,0.9-2,2-2h2c1.1,0,2,0.9,2,2v2
						C328,149.4,327.1,150.3,326,150.3z"/>
				</g>
				<g id="XMLID_4488_">
					<path id="XMLID_5249_" class="st11" d="M334.3,150.3h-2c-1.1,0-2-0.9-2-2v-2c0-1.1,0.9-2,2-2h2c1.1,0,2,0.9,2,2v2
						C336.4,149.4,335.5,150.3,334.3,150.3z"/>
				</g>
			</g>
			<g id="XMLID_4482_">
				<g id="XMLID_4486_">
					<path id="XMLID_5246_" class="st12" d="M309.2,158.4h-2c-1.1,0-2-0.9-2-2v-2c0-1.1,0.9-2,2-2h2c1.1,0,2,0.9,2,2v2
						C311.3,157.5,310.4,158.4,309.2,158.4z"/>
				</g>
				<g id="XMLID_4485_">
					<path id="XMLID_5244_" class="st12" d="M317.6,158.4h-2c-1.1,0-2-0.9-2-2v-2c0-1.1,0.9-2,2-2h2c1.1,0,2,0.9,2,2v2
						C319.6,157.5,318.7,158.4,317.6,158.4z"/>
				</g>
				<g id="XMLID_4484_">
					<path id="XMLID_5242_" class="st12" d="M326,158.4h-2c-1.1,0-2-0.9-2-2v-2c0-1.1,0.9-2,2-2h2c1.1,0,2,0.9,2,2v2
						C328,157.5,327.1,158.4,326,158.4z"/>
				</g>
				<g id="XMLID_4483_">
					<path id="XMLID_5240_" class="st11" d="M334.3,158.4h-2c-1.1,0-2-0.9-2-2v-2c0-1.1,0.9-2,2-2h2c1.1,0,2,0.9,2,2v2
						C336.4,157.5,335.5,158.4,334.3,158.4z"/>
				</g>
			</g>
			<g id="XMLID_4477_">
				<g id="XMLID_4481_">
					<path id="XMLID_5237_" class="st12" d="M309.2,166.5h-2c-1.1,0-2-0.9-2-2v-2c0-1.1,0.9-2,2-2h2c1.1,0,2,0.9,2,2v2
						C311.3,165.6,310.4,166.5,309.2,166.5z"/>
				</g>
				<g id="XMLID_4480_">
					<path id="XMLID_5235_" class="st12" d="M317.6,166.5h-2c-1.1,0-2-0.9-2-2v-2c0-1.1,0.9-2,2-2h2c1.1,0,2,0.9,2,2v2
						C319.6,165.6,318.7,166.5,317.6,166.5z"/>
				</g>
				<g id="XMLID_4479_">
					<path id="XMLID_5233_" class="st12" d="M326,166.5h-2c-1.1,0-2-0.9-2-2v-2c0-1.1,0.9-2,2-2h2c1.1,0,2,0.9,2,2v2
						C328,165.6,327.1,166.5,326,166.5z"/>
				</g>
				<g id="XMLID_4478_">
					<path id="XMLID_5231_" class="st11" d="M334.3,166.5h-2c-1.1,0-2-0.9-2-2v-2c0-1.1,0.9-2,2-2h2c1.1,0,2,0.9,2,2v2
						C336.4,165.6,335.5,166.5,334.3,166.5z"/>
				</g>
			</g>
		</g>
	</g>
	<g id="XMLID_4468_">
		<g id="XMLID_4474_">
			<path id="XMLID_4459_" class="st6" d="M376.4,131.7l5.4-9.1c-2.4-3.6-3.8-8-3.8-12.6c0-12.6,10.2-22.7,22.7-22.7
				c12.6,0,22.7,10.2,22.7,22.7s-10.2,22.7-22.7,22.7c-4.7,0-9.1-1.4-12.8-3.9l-9.7,4.8C376.9,134.2,375.7,132.8,376.4,131.7z"/>
			<path id="XMLID_4803_" class="st0" d="M377.5,134.6c-0.6,0-1.2-0.2-1.6-0.7c-0.7-0.7-0.8-1.8-0.3-2.7l5.1-8.6
				c-2.4-3.8-3.7-8.2-3.7-12.7c0-13,10.6-23.6,23.6-23.6c13,0,23.6,10.6,23.6,23.6s-10.6,23.6-23.6,23.6c-4.6,0-9-1.3-12.8-3.8
				l-9.3,4.6C378.2,134.5,377.9,134.6,377.5,134.6z M400.6,88.1c-12,0-21.8,9.8-21.8,21.8c0,4.3,1.3,8.5,3.7,12.1
				c0.2,0.3,0.2,0.7,0,1l-5.4,9.1l0,0c-0.1,0.3,0,0.4,0.1,0.5c0.1,0.1,0.3,0.2,0.5,0.1l9.7-4.8c0.3-0.1,0.6-0.1,0.9,0.1
				c3.6,2.5,7.9,3.8,12.3,3.8c12,0,21.8-9.8,21.8-21.8S412.7,88.1,400.6,88.1z"/>
		</g>
		<g id="XMLID_4469_">
			<g id="XMLID_4470_">
				<path id="XMLID_5218_" class="st3" d="M399.1,125.7V123c-2.3-0.4-4.4-1.2-6.4-2.5c-1.3-0.9-1.5-2.7-0.5-3.9l0,0
					c0.9-1.1,2.4-1.3,3.6-0.5c1.2,0.8,2.3,1.4,3.3,1.7v-5.5c-2.6-0.7-4.5-1.6-5.7-2.7c-1.2-1.1-1.8-2.7-1.8-4.8
					c0-2.1,0.7-3.9,2.1-5.2c1.4-1.4,3.2-2.2,5.4-2.5v-1.8h3.9v1.9c1.6,0.2,3.1,0.7,4.7,1.5c1.5,0.7,2,2.6,1.1,3.9l0,0
					c-0.8,1.1-2.2,1.5-3.4,0.8c-0.8-0.5-1.6-0.8-2.4-1v5.3c2.7,0.7,4.6,1.6,5.9,2.8c1.3,1.2,1.9,2.8,1.9,4.9c0,2.1-0.7,3.9-2.1,5.3
					c-1.4,1.4-3.3,2.2-5.7,2.5v2.6H399.1z M399.1,102.2c-1.1,0.4-1.6,1-1.6,2c0,1,0.5,1.7,1.6,2.3V102.2z M405,115.7
					c0-0.5-0.1-0.9-0.4-1.3c-0.3-0.3-0.8-0.7-1.5-1v4.6C404.3,117.6,405,116.8,405,115.7z"/>
			</g>
		</g>
	</g>
	<g id="XMLID_4461_">
		<g id="XMLID_4465_">
			<g id="XMLID_4467_">
				<path id="XMLID_4802_" class="st0" d="M16.2,100.9c-0.2,0-0.5-0.1-0.6-0.3c-0.4-0.4-0.4-0.9,0-1.3l4.3-4.3
					c0.2-0.2,0.4-0.3,0.6-0.3l0,0c0.2,0,0.5,0.1,0.6,0.3l4.3,4.3c0.4,0.4,0.4,0.9,0,1.3c-0.4,0.4-0.9,0.4-1.3,0l-3.7-3.7l-3.7,3.7
					C16.7,100.8,16.5,100.9,16.2,100.9z"/>
			</g>
			<g id="XMLID_4466_">
				<path id="XMLID_4801_" class="st0" d="M20.5,120.9c-0.5,0-0.9-0.4-0.9-0.9V95.6c0-0.5,0.4-0.9,0.9-0.9c0.5,0,0.9,0.4,0.9,0.9
					V120C21.5,120.5,21,120.9,20.5,120.9z"/>
			</g>
		</g>
		<g id="XMLID_4462_">
			<g id="XMLID_4464_">
				<path id="XMLID_4800_" class="st0" d="M30.3,119.6c-0.2,0-0.5-0.1-0.6-0.3l-4.3-4.3c-0.4-0.4-0.4-0.9,0-1.3
					c0.4-0.4,0.9-0.4,1.3,0l3.7,3.7l3.7-3.7c0.4-0.4,0.9-0.4,1.3,0c0.4,0.4,0.4,0.9,0,1.3l-4.3,4.3
					C30.8,119.5,30.5,119.6,30.3,119.6z"/>
			</g>
			<g id="XMLID_4463_">
				<path id="XMLID_4460_" class="st0" d="M30.3,119.6c-0.5,0-0.9-0.4-0.9-0.9V94.3c0-0.5,0.4-0.9,0.9-0.9c0.5,0,0.9,0.4,0.9,0.9
					v24.4C31.2,119.2,30.8,119.6,30.3,119.6z"/>
			</g>
		</g>
	</g>
	<g id="XMLID_4457_">
		<g id="XMLID_4458_">
			<path id="XMLID_4455_" class="st2" d="M84.7,32.4l1.8,1.8c0.7,0.7,1.8,0.9,2.7,0.4c0.5-0.2,0.9-0.4,1.4-0.6
				c1-0.3,1.6-1.2,1.6-2.2l0-2.5c0-1.3,1.1-2.4,2.4-2.4l0,0c1.3,0,2.4,1.1,2.4,2.4v2.5c0,1,0.7,1.9,1.6,2.2c0.5,0.2,1,0.4,1.4,0.6
				c0.9,0.4,2,0.3,2.7-0.4l1.8-1.8c0.9-0.9,2.4-0.9,3.3,0l0,0c0.9,0.9,0.9,2.4,0,3.3l-1.8,1.8c-0.7,0.7-0.9,1.8-0.4,2.7
				c0.2,0.5,0.4,0.9,0.6,1.4c0.3,1,1.2,1.6,2.2,1.6h2.5c1.3,0,2.4,1.1,2.4,2.4l0,0c0,1.3-1.1,2.4-2.4,2.4h-2.5c-1,0-1.9,0.7-2.2,1.6
				c-0.2,0.5-0.4,1-0.6,1.4c-0.4,0.9-0.3,2,0.4,2.7l1.8,1.8c0.9,0.9,0.9,2.4,0,3.3v0c-0.9,0.9-2.4,0.9-3.3,0l-1.8-1.8
				c-0.7-0.7-1.8-0.9-2.7-0.4c-0.5,0.2-0.9,0.4-1.4,0.6c-1,0.3-1.6,1.2-1.6,2.2V62c0,1.3-1.1,2.4-2.4,2.4h0c-1.3,0-2.4-1.1-2.4-2.4
				v-2.5c0-1-0.7-1.9-1.6-2.2c-0.5-0.2-1-0.4-1.4-0.6c-0.9-0.4-2-0.3-2.7,0.4l-1.8,1.8c-0.9,0.9-2.4,0.9-3.3,0h0
				c-0.9-0.9-0.9-2.4,0-3.3l1.8-1.8c0.7-0.7,0.9-1.8,0.4-2.7c-0.2-0.5-0.4-0.9-0.6-1.4c-0.3-1-1.2-1.6-2.2-1.6h-2.5
				c-1.3,0-2.4-1.1-2.4-2.4v0c0-1.3,1.1-2.4,2.4-2.4l2.5,0c1,0,1.9-0.7,2.2-1.6c0.2-0.5,0.4-1,0.6-1.4c0.4-0.9,0.3-2-0.4-2.7
				l-1.8-1.8c-0.9-0.9-0.9-2.4,0-3.3h0C82.3,31.4,83.8,31.4,84.7,32.4z M89.4,50.9c2.9,2.9,7.6,2.9,10.5,0c2.9-2.9,2.9-7.6,0-10.5
				s-7.6-2.9-10.5,0S86.5,48,89.4,50.9z"/>
			<path id="XMLID_4795_" class="st0" d="M94.6,65.2c-1.8,0-3.3-1.5-3.3-3.3v-2.5c0-0.6-0.4-1.2-1-1.4c-0.5-0.2-1-0.4-1.5-0.6
				c-0.6-0.3-1.3-0.2-1.7,0.3l-1.8,1.8c-1.3,1.3-3.3,1.3-4.6,0c-0.6-0.6-1-1.4-1-2.3s0.3-1.7,1-2.3l1.8-1.8c0.4-0.4,0.5-1.1,0.3-1.7
				c-0.2-0.5-0.5-1-0.6-1.5c-0.2-0.6-0.8-1-1.4-1h-2.5c-1.8,0-3.3-1.5-3.3-3.3c0-1.8,1.5-3.3,3.3-3.3h2.5c0.6,0,1.2-0.4,1.4-1
				c0.2-0.5,0.4-1,0.6-1.5c0.3-0.6,0.2-1.3-0.3-1.7l-1.8-1.8c-1.3-1.3-1.3-3.3,0-4.6c1.3-1.3,3.3-1.3,4.6,0v0l1.8,1.8
				c0.4,0.4,1.1,0.5,1.7,0.3c0.5-0.2,1-0.5,1.5-0.6c0.6-0.2,1-0.8,1-1.4v-2.5c0-1.8,1.5-3.3,3.3-3.3s3.3,1.5,3.3,3.3v2.5
				c0,0.6,0.4,1.2,1,1.4c0.5,0.2,1,0.4,1.5,0.6c0.6,0.3,1.3,0.2,1.7-0.3l1.8-1.8c1.3-1.3,3.3-1.3,4.6,0c0.6,0.6,1,1.4,1,2.3
				s-0.3,1.7-1,2.3l-1.8,1.8c-0.4,0.4-0.5,1.1-0.3,1.7c0.2,0.5,0.5,1,0.6,1.5c0.2,0.6,0.8,1,1.4,1h2.5c1.8,0,3.3,1.5,3.3,3.3
				c0,1.8-1.5,3.3-3.3,3.3h-2.5c-0.6,0-1.2,0.4-1.4,1c-0.2,0.5-0.4,1-0.6,1.5c-0.3,0.6-0.2,1.3,0.3,1.7l1.8,1.8c0.6,0.6,1,1.4,1,2.3
				s-0.3,1.7-1,2.3c-1.3,1.3-3.3,1.3-4.6,0l-1.8-1.8c-0.4-0.4-1.1-0.5-1.7-0.3c-0.5,0.2-1,0.5-1.5,0.6c-0.6,0.2-1,0.8-1,1.4l0,2.5
				C97.9,63.8,96.4,65.2,94.6,65.2z M88.2,55.5c0.5,0,1,0.1,1.5,0.3c0.4,0.2,0.9,0.4,1.3,0.5c1.3,0.5,2.2,1.7,2.2,3.1V62
				c0,0.8,0.6,1.4,1.4,1.4c0.8,0,1.4-0.6,1.4-1.4l0-2.5c0-1.4,0.9-2.6,2.2-3.1c0.4-0.2,0.9-0.3,1.3-0.5c1.3-0.6,2.8-0.4,3.8,0.6
				l1.8,1.8c0.6,0.6,1.5,0.6,2,0c0.3-0.3,0.4-0.6,0.4-1s-0.2-0.8-0.4-1l-1.8-1.8c-1-1-1.2-2.5-0.6-3.8c0.2-0.4,0.4-0.9,0.5-1.3
				c0.5-1.3,1.7-2.2,3.1-2.2h2.5c0.8,0,1.4-0.6,1.4-1.4s-0.6-1.4-1.4-1.4h-2.5c-1.4,0-2.6-0.9-3.1-2.2c-0.2-0.4-0.3-0.9-0.5-1.3
				c-0.6-1.3-0.4-2.8,0.6-3.8l1.8-1.8c0.3-0.3,0.4-0.6,0.4-1c0-0.4-0.2-0.8-0.4-1c-0.6-0.6-1.5-0.6-2,0l-1.8,1.8
				c-1,1-2.5,1.2-3.8,0.6c-0.4-0.2-0.9-0.4-1.3-0.5c-1.3-0.5-2.2-1.7-2.2-3.1v-2.5c0-0.8-0.6-1.4-1.4-1.4c-0.8,0-1.4,0.6-1.4,1.4
				v2.5c0,1.4-0.9,2.6-2.2,3.1c-0.4,0.2-0.9,0.3-1.3,0.5c-1.3,0.6-2.8,0.4-3.8-0.6L84.1,33c-0.6-0.6-1.5-0.6-2,0
				c-0.6,0.6-0.6,1.5,0,2l1.8,1.8c1,1,1.2,2.5,0.6,3.8c-0.2,0.4-0.4,0.9-0.5,1.3c-0.5,1.3-1.7,2.2-3.1,2.2h-2.5
				c-0.8,0-1.4,0.6-1.4,1.4c0,0.8,0.6,1.4,1.4,1.4h2.5c1.4,0,2.6,0.9,3.1,2.2c0.2,0.4,0.3,0.9,0.5,1.3c0.6,1.3,0.4,2.8-0.6,3.8
				L82,56.1c-0.3,0.3-0.4,0.6-0.4,1s0.2,0.8,0.4,1c0.6,0.6,1.5,0.6,2,0l1.8-1.8C86.5,55.8,87.3,55.5,88.2,55.5z M94.6,53.9
				c-2.1,0-4.3-0.8-5.9-2.4c-3.3-3.3-3.3-8.6,0-11.8c3.3-3.3,8.6-3.3,11.8,0c3.3,3.3,3.3,8.6,0,11.8C98.9,53.1,96.8,53.9,94.6,53.9z
				 M94.6,39.1c-1.7,0-3.4,0.6-4.6,1.9c-2.6,2.6-2.6,6.7,0,9.3c2.6,2.6,6.7,2.6,9.3,0c2.6-2.6,2.6-6.7,0-9.3
				C98,39.7,96.3,39.1,94.6,39.1z"/>
		</g>
	</g>
	<g id="XMLID_4453_">
		<g id="XMLID_4454_">
			<path id="XMLID_4785_" class="st6" d="M111.3,55.2l0.8,1.7c0.3,0.7,1.1,1.1,1.9,1c0.4,0,0.8-0.1,1.2-0.1c0.8,0,1.5-0.4,1.8-1.2
				l0.7-1.8c0.3-0.9,1.4-1.4,2.3-1.1l0,0c0.9,0.3,1.4,1.4,1.1,2.3l-0.7,1.8c-0.3,0.7,0,1.5,0.6,2c0.3,0.2,0.6,0.5,0.9,0.8
				c0.5,0.6,1.4,0.7,2.1,0.4l1.7-0.8c0.9-0.4,2,0,2.4,0.9v0c0.4,0.9,0,2-0.9,2.4l-1.7,0.8c-0.7,0.3-1.1,1.1-1,1.9
				c0,0.4,0.1,0.8,0.1,1.2c0,0.8,0.4,1.5,1.2,1.8l1.8,0.7c0.9,0.3,1.4,1.4,1.1,2.3v0c-0.3,0.9-1.4,1.4-2.3,1.1l-1.8-0.7
				c-0.7-0.3-1.5,0-2,0.6c-0.2,0.3-0.5,0.6-0.8,0.9c-0.6,0.5-0.7,1.4-0.4,2.1l0.8,1.7c0.4,0.9,0,2-0.9,2.4h0c-0.9,0.4-2,0-2.4-0.9
				l-0.8-1.7c-0.3-0.7-1.1-1.1-1.9-1c-0.4,0-0.8,0.1-1.2,0.1c-0.8,0-1.5,0.4-1.8,1.2l-0.7,1.8c-0.3,0.9-1.4,1.4-2.3,1.1h0
				c-0.9-0.3-1.4-1.4-1.1-2.3l0.7-1.8c0.3-0.7,0-1.5-0.6-2c-0.3-0.2-0.6-0.5-0.9-0.8c-0.5-0.6-1.4-0.7-2.1-0.4l-1.7,0.8
				c-0.9,0.4-2,0-2.4-0.9l0,0c-0.4-0.9,0-2,0.9-2.4l1.7-0.8c0.7-0.3,1.1-1.1,1-1.9c0-0.4-0.1-0.8-0.1-1.2c0-0.8-0.4-1.5-1.2-1.8
				l-1.8-0.7c-0.9-0.3-1.4-1.4-1.1-2.3v0c0.3-0.9,1.4-1.4,2.3-1.1l1.8,0.7c0.7,0.3,1.5,0,2-0.6c0.2-0.3,0.5-0.6,0.8-0.9
				c0.6-0.5,0.7-1.4,0.4-2.1l-0.8-1.7c-0.4-0.9,0-2,0.9-2.4h0C109.8,53.9,110.9,54.3,111.3,55.2z M109.9,69.7
				c1.3,2.8,4.7,4.1,7.6,2.7c2.8-1.3,4.1-4.7,2.7-7.6c-1.3-2.8-4.7-4.1-7.6-2.7C109.8,63.5,108.5,66.9,109.9,69.7z"/>
			<path id="XMLID_4789_" class="st0" d="M110.8,81.8c-0.3,0-0.6-0.1-0.9-0.2c-0.7-0.2-1.2-0.7-1.5-1.4c-0.3-0.7-0.3-1.4-0.1-2.1
				l0.7-1.8c0.1-0.4,0-0.8-0.3-1c-0.3-0.3-0.7-0.6-0.9-0.9c-0.3-0.3-0.7-0.4-1-0.2l-1.7,0.8c-0.7,0.3-1.4,0.3-2.1,0.1
				c-0.7-0.2-1.2-0.7-1.5-1.4c-0.6-1.3-0.1-3,1.3-3.6l1.7-0.8c0.3-0.2,0.5-0.5,0.5-0.9c0-0.4-0.1-0.9-0.1-1.3c0-0.4-0.2-0.8-0.6-0.9
				l-1.8-0.7c-0.7-0.2-1.2-0.7-1.5-1.4c-0.3-0.7-0.3-1.4-0.1-2.1c0.2-0.7,0.7-1.2,1.4-1.5c0.7-0.3,1.4-0.3,2.1-0.1l1.8,0.7
				c0.4,0.1,0.8,0,1-0.3c0.3-0.3,0.6-0.7,0.9-0.9c0.3-0.3,0.4-0.7,0.2-1l-0.8-1.7c-0.3-0.7-0.3-1.4-0.1-2.1c0.2-0.7,0.7-1.2,1.4-1.5
				c1.3-0.6,3-0.1,3.6,1.3l0.8,1.7c0.2,0.3,0.5,0.5,0.9,0.5c0.4,0,0.9-0.1,1.3-0.1c0.4,0,0.8-0.2,0.9-0.6l0.7-1.8
				c0.2-0.7,0.7-1.2,1.4-1.5c0.7-0.3,1.4-0.3,2.1-0.1c1.4,0.5,2.1,2.1,1.6,3.5l-0.7,1.8c-0.1,0.4,0,0.8,0.3,1
				c0.3,0.3,0.7,0.6,0.9,0.9c0.3,0.3,0.7,0.4,1,0.2l1.7-0.8c0.7-0.3,1.4-0.3,2.1-0.1c0.7,0.2,1.2,0.7,1.5,1.4c0.6,1.3,0.1,3-1.3,3.6
				l-1.7,0.8c-0.3,0.2-0.5,0.5-0.5,0.9c0,0.4,0.1,0.9,0.1,1.3c0,0.4,0.2,0.8,0.6,0.9l1.8,0.7c1.4,0.5,2.1,2.1,1.6,3.5
				c-0.5,1.4-2.1,2.1-3.5,1.6l-1.8-0.7c-0.4-0.1-0.8,0-1,0.3c-0.3,0.3-0.6,0.7-0.9,0.9c-0.3,0.3-0.4,0.7-0.2,1l0.8,1.7
				c0.6,1.3,0.1,3-1.3,3.6c-1.3,0.6-3,0.1-3.6-1.3l-0.8-1.7c-0.2-0.3-0.5-0.5-0.9-0.5c-0.4,0-0.9,0.1-1.3,0.1
				c-0.4,0-0.8,0.2-0.9,0.6l-0.7,1.8C112.9,81.1,111.9,81.8,110.8,81.8z M107,72.4c0.7,0,1.4,0.3,2,0.8c0.2,0.3,0.5,0.5,0.8,0.7
				c0.9,0.7,1.3,2,0.9,3l-0.7,1.8c-0.1,0.2-0.1,0.5,0,0.7c0.1,0.2,0.3,0.4,0.5,0.5c0.5,0.2,1-0.1,1.1-0.5l0.7-1.8
				c0.4-1.1,1.5-1.8,2.6-1.8c0.4,0,0.7,0,1.1-0.1c1.2-0.1,2.3,0.5,2.8,1.5l0.8,1.7c0.1,0.2,0.3,0.4,0.5,0.5c0.2,0.1,0.5,0.1,0.7,0
				c0.2-0.1,0.4-0.3,0.5-0.5c0.1-0.2,0.1-0.5,0-0.7l-0.8-1.7c-0.5-1-0.3-2.3,0.6-3.1c0.3-0.2,0.5-0.5,0.7-0.8c0.7-0.9,2-1.3,3-0.9
				l1.8,0.7c0.5,0.2,1-0.1,1.1-0.5c0.2-0.5-0.1-1-0.5-1.1l-1.8-0.7c-1.1-0.4-1.8-1.4-1.8-2.6c0-0.4,0-0.7-0.1-1.1
				c-0.1-1.2,0.5-2.3,1.5-2.8l1.7-0.8c0.4-0.2,0.6-0.7,0.4-1.2c-0.1-0.2-0.3-0.4-0.5-0.5c-0.2-0.1-0.5-0.1-0.7,0l-1.7,0.8
				c-1,0.5-2.3,0.3-3.1-0.6c-0.2-0.3-0.5-0.5-0.8-0.7c-0.9-0.7-1.3-2-0.9-3l0.7-1.8c0.2-0.5-0.1-1-0.5-1.1c-0.2-0.1-0.5-0.1-0.7,0
				c-0.2,0.1-0.4,0.3-0.5,0.5l-0.7,1.8c-0.4,1.1-1.5,1.8-2.6,1.8c-0.3,0-0.7,0-1.1,0.1c-1.2,0.1-2.3-0.5-2.8-1.5l-0.8-1.7l0,0
				c-0.1-0.2-0.3-0.4-0.5-0.5c-0.2-0.1-0.5-0.1-0.7,0c-0.2,0.1-0.4,0.3-0.5,0.5c-0.1,0.2-0.1,0.5,0,0.7l0.8,1.7
				c0.5,1,0.3,2.3-0.6,3.1c-0.3,0.2-0.5,0.5-0.7,0.8c-0.7,0.9-2,1.3-3,0.9l-1.8-0.7c-0.5-0.2-1,0.1-1.1,0.5c-0.1,0.2-0.1,0.5,0,0.7
				c0.1,0.2,0.3,0.4,0.5,0.5l1.8,0.7c1.1,0.4,1.8,1.4,1.8,2.6c0,0.4,0,0.7,0.1,1.1c0.1,1.2-0.5,2.3-1.5,2.8l-1.7,0.8
				c-0.2,0.1-0.4,0.3-0.5,0.5c-0.1,0.2-0.1,0.5,0,0.7c0.1,0.2,0.3,0.4,0.5,0.5c0.2,0.1,0.5,0.1,0.7,0l1.7-0.8
				C106.2,72.4,106.6,72.4,107,72.4z M115,73.9c-0.8,0-1.5-0.1-2.2-0.4c-1.7-0.6-3-1.8-3.7-3.4c-0.7-1.6-0.8-3.4-0.2-5
				c0.6-1.7,1.8-3,3.4-3.7c1.6-0.8,3.4-0.8,5-0.2c1.7,0.6,3,1.8,3.7,3.4c0.8,1.6,0.8,3.4,0.2,5c-0.6,1.7-1.8,3-3.4,3.7
				C116.9,73.7,116,73.9,115,73.9z M115,62.5c-0.7,0-1.4,0.2-2,0.5c-1.2,0.5-2,1.5-2.5,2.7c-0.4,1.2-0.4,2.5,0.2,3.7v0
				c0.5,1.2,1.5,2,2.7,2.5c1.2,0.4,2.5,0.4,3.7-0.2c1.2-0.5,2-1.5,2.5-2.7c0.4-1.2,0.4-2.5-0.2-3.7c-0.5-1.2-1.5-2-2.7-2.5
				C116.1,62.6,115.6,62.5,115,62.5z"/>
		</g>
	</g>
	<g id="XMLID_4452_">
		<path id="XMLID_4786_" class="st0" d="M405.8,187.6H14.4c-0.5,0-0.9-0.4-0.9-0.9c0-0.5,0.4-0.9,0.9-0.9h391.4
			c0.5,0,0.9,0.4,0.9,0.9C406.7,187.2,406.3,187.6,405.8,187.6z"/>
	</g>
	<g id="XMLID_4451_">
		<circle id="XMLID_4781_" class="st4" cx="210.1" cy="87" r="3.4"/>
		<path id="XMLID_4782_" class="st0" d="M210.1,91.3c-2.3,0-4.3-1.9-4.3-4.3c0-2.3,1.9-4.3,4.3-4.3c2.3,0,4.3,1.9,4.3,4.3
			C214.4,89.4,212.5,91.3,210.1,91.3z M210.1,84.6c-1.3,0-2.4,1.1-2.4,2.4c0,1.3,1.1,2.4,2.4,2.4c1.3,0,2.4-1.1,2.4-2.4
			C212.6,85.7,211.5,84.6,210.1,84.6z"/>
	</g>
	<g id="XMLID_4450_">
		<circle id="XMLID_4777_" class="st4" cx="31.6" cy="152.7" r="3.4"/>
		<path id="XMLID_4778_" class="st0" d="M31.6,156.9c-2.3,0-4.3-1.9-4.3-4.3s1.9-4.3,4.3-4.3c2.3,0,4.3,1.9,4.3,4.3
			S33.9,156.9,31.6,156.9z M31.6,150.2c-1.3,0-2.4,1.1-2.4,2.4s1.1,2.4,2.4,2.4c1.3,0,2.4-1.1,2.4-2.4S32.9,150.2,31.6,150.2z"/>
	</g>
	<g id="XMLID_4449_">
		<circle id="XMLID_4773_" class="st4" cx="157.3" cy="53.7" r="3.4"/>
		<path id="XMLID_4774_" class="st0" d="M157.3,58c-2.3,0-4.3-1.9-4.3-4.3c0-2.3,1.9-4.3,4.3-4.3c2.3,0,4.3,1.9,4.3,4.3
			C161.5,56.1,159.6,58,157.3,58z M157.3,51.3c-1.3,0-2.4,1.1-2.4,2.4c0,1.3,1.1,2.4,2.4,2.4c1.3,0,2.4-1.1,2.4-2.4
			C159.7,52.4,158.6,51.3,157.3,51.3z"/>
	</g>
	<g id="XMLID_4448_">
		<circle id="XMLID_4769_" class="st4" cx="368" cy="67.3" r="3.4"/>
		<path id="XMLID_4770_" class="st0" d="M368,71.5c-2.3,0-4.3-1.9-4.3-4.3c0-2.3,1.9-4.3,4.3-4.3c2.3,0,4.3,1.9,4.3,4.3
			C372.3,69.6,370.4,71.5,368,71.5z M368,64.8c-1.3,0-2.4,1.1-2.4,2.4c0,1.3,1.1,2.4,2.4,2.4c1.3,0,2.4-1.1,2.4-2.4
			C370.5,65.9,369.4,64.8,368,64.8z"/>
	</g>
	<g id="XMLID_5013_">
		<circle id="XMLID_5017_" class="st4" cx="339.1" cy="26" r="3.4"/>
		<path id="XMLID_5014_" class="st0" d="M339.1,30.2c-2.3,0-4.3-1.9-4.3-4.3c0-2.3,1.9-4.3,4.3-4.3c2.3,0,4.3,1.9,4.3,4.3
			C343.4,28.3,341.4,30.2,339.1,30.2z M339.1,23.5c-1.3,0-2.4,1.1-2.4,2.4c0,1.3,1.1,2.4,2.4,2.4c1.3,0,2.4-1.1,2.4-2.4
			C341.5,24.6,340.4,23.5,339.1,23.5z"/>
	</g>
	<g id="XMLID_5018_">
		<circle id="XMLID_5022_" class="st4" cx="260.7" cy="4.3" r="3.4"/>
		<path id="XMLID_5019_" class="st0" d="M260.7,8.5c-2.3,0-4.3-1.9-4.3-4.3c0-2.3,1.9-4.3,4.3-4.3c2.3,0,4.3,1.9,4.3,4.3
			C265,6.6,263.1,8.5,260.7,8.5z M260.7,1.8c-1.3,0-2.4,1.1-2.4,2.4c0,1.3,1.1,2.4,2.4,2.4c1.3,0,2.4-1.1,2.4-2.4
			C263.2,2.9,262.1,1.8,260.7,1.8z"/>
	</g>
	<g id="XMLID_4447_">
		<circle id="XMLID_4745_" class="st4" cx="459" cy="123.1" r="3.4"/>
		<path id="XMLID_4766_" class="st0" d="M459,127.4c-2.3,0-4.3-1.9-4.3-4.3c0-2.3,1.9-4.3,4.3-4.3c2.3,0,4.3,1.9,4.3,4.3
			C463.3,125.5,461.4,127.4,459,127.4z M459,120.7c-1.3,0-2.4,1.1-2.4,2.4c0,1.3,1.1,2.4,2.4,2.4c1.3,0,2.4-1.1,2.4-2.4
			C461.5,121.8,460.4,120.7,459,120.7z"/>
	</g>
	<g id="XMLID_4444_">
		<g id="XMLID_4446_">
			<path id="XMLID_4765_" class="st0" d="M288.3,44.7h-4.2c-0.5,0-0.9-0.4-0.9-0.9s0.4-0.9,0.9-0.9h4.2c0.5,0,0.9,0.4,0.9,0.9
				S288.8,44.7,288.3,44.7z"/>
		</g>
		<g id="XMLID_4445_">
			<path id="XMLID_4764_" class="st0" d="M286.2,46.8c-0.5,0-0.9-0.4-0.9-0.9v-4.2c0-0.5,0.4-0.9,0.9-0.9s0.9,0.4,0.9,0.9v4.2
				C287.1,46.4,286.7,46.8,286.2,46.8z"/>
		</g>
	</g>
	<g id="XMLID_5023_">
		<g id="XMLID_5026_">
			<path id="XMLID_5027_" class="st0" d="M393.2,49.3H389c-0.5,0-0.9-0.4-0.9-0.9c0-0.5,0.4-0.9,0.9-0.9h4.2c0.5,0,0.9,0.4,0.9,0.9
				C394.1,48.9,393.7,49.3,393.2,49.3z"/>
		</g>
		<g id="XMLID_5024_">
			<path id="XMLID_5025_" class="st0" d="M391.1,51.4c-0.5,0-0.9-0.4-0.9-0.9v-4.2c0-0.5,0.4-0.9,0.9-0.9c0.5,0,0.9,0.4,0.9,0.9v4.2
				C392,51,391.6,51.4,391.1,51.4z"/>
		</g>
	</g>
	<g id="XMLID_4441_">
		<g id="XMLID_4443_">
			<path id="XMLID_4763_" class="st0" d="M452.2,83.5H448c-0.5,0-0.9-0.4-0.9-0.9c0-0.5,0.4-0.9,0.9-0.9h4.2c0.5,0,0.9,0.4,0.9,0.9
				C453.1,83,452.7,83.5,452.2,83.5z"/>
		</g>
		<g id="XMLID_4442_">
			<path id="XMLID_4762_" class="st0" d="M450.1,85.6c-0.5,0-0.9-0.4-0.9-0.9v-4.2c0-0.5,0.4-0.9,0.9-0.9c0.5,0,0.9,0.4,0.9,0.9v4.2
				C451,85.1,450.6,85.6,450.1,85.6z"/>
		</g>
	</g>
	<g id="XMLID_4438_">
		<g id="XMLID_4440_">
			<path id="XMLID_4761_" class="st0" d="M208.9,55.6h-4.2c-0.5,0-0.9-0.4-0.9-0.9c0-0.5,0.4-0.9,0.9-0.9h4.2c0.5,0,0.9,0.4,0.9,0.9
				C209.8,55.2,209.4,55.6,208.9,55.6z"/>
		</g>
		<g id="XMLID_4439_">
			<path id="XMLID_4760_" class="st0" d="M206.8,57.7c-0.5,0-0.9-0.4-0.9-0.9v-4.2c0-0.5,0.4-0.9,0.9-0.9c0.5,0,0.9,0.4,0.9,0.9v4.2
				C207.7,57.3,207.3,57.7,206.8,57.7z"/>
		</g>
	</g>
	<g id="XMLID_4435_">
		<g id="XMLID_4437_">
			<path id="XMLID_4759_" class="st0" d="M398,142.4h-4.2c-0.5,0-0.9-0.4-0.9-0.9s0.4-0.9,0.9-0.9h4.2c0.5,0,0.9,0.4,0.9,0.9
				S398.5,142.4,398,142.4z"/>
		</g>
		<g id="XMLID_4436_">
			<path id="XMLID_4758_" class="st0" d="M395.9,144.5c-0.5,0-0.9-0.4-0.9-0.9v-4.2c0-0.5,0.4-0.9,0.9-0.9c0.5,0,0.9,0.4,0.9,0.9
				v4.2C396.8,144.1,396.4,144.5,395.9,144.5z"/>
		</g>
	</g>
	<g id="XMLID_4432_">
		<g id="XMLID_4434_">
			<path id="XMLID_4757_" class="st0" d="M171.1,86.1h-4.2c-0.5,0-0.9-0.4-0.9-0.9c0-0.5,0.4-0.9,0.9-0.9h4.2c0.5,0,0.9,0.4,0.9,0.9
				C172,85.7,171.6,86.1,171.1,86.1z"/>
		</g>
		<g id="XMLID_4433_">
			<path id="XMLID_4756_" class="st0" d="M169,88.2c-0.5,0-0.9-0.4-0.9-0.9v-4.2c0-0.5,0.4-0.9,0.9-0.9c0.5,0,0.9,0.4,0.9,0.9v4.2
				C169.9,87.8,169.5,88.2,169,88.2z"/>
		</g>
	</g>
	<g id="XMLID_4429_">
		<g id="XMLID_4431_">
			<path id="XMLID_4755_" class="st0" d="M16.5,162.5h-4.2c-0.5,0-0.9-0.4-0.9-0.9c0-0.5,0.4-0.9,0.9-0.9h4.2c0.5,0,0.9,0.4,0.9,0.9
				C17.5,162.1,17,162.5,16.5,162.5z"/>
		</g>
		<g id="XMLID_4430_">
			<path id="XMLID_4754_" class="st0" d="M14.4,164.6c-0.5,0-0.9-0.4-0.9-0.9v-4.2c0-0.5,0.4-0.9,0.9-0.9c0.5,0,0.9,0.4,0.9,0.9v4.2
				C15.4,164.2,14.9,164.6,14.4,164.6z"/>
		</g>
	</g>
	<g id="XMLID_4426_">
		<g id="XMLID_4428_">
			<path id="XMLID_4753_" class="st0" d="M128.5,45.6h-4.2c-0.5,0-0.9-0.4-0.9-0.9s0.4-0.9,0.9-0.9h4.2c0.5,0,0.9,0.4,0.9,0.9
				S129,45.6,128.5,45.6z"/>
		</g>
		<g id="XMLID_4427_">
			<path id="XMLID_4752_" class="st0" d="M126.4,47.7c-0.5,0-0.9-0.4-0.9-0.9v-4.2c0-0.5,0.4-0.9,0.9-0.9c0.5,0,0.9,0.4,0.9,0.9v4.2
				C127.3,47.3,126.9,47.7,126.4,47.7z"/>
		</g>
	</g>
	<g id="XMLID_4423_">
		<g id="XMLID_4425_">
			<path id="XMLID_4751_" class="st0" d="M47.6,135.5h-4.2c-0.5,0-0.9-0.4-0.9-0.9s0.4-0.9,0.9-0.9h4.2c0.5,0,0.9,0.4,0.9,0.9
				S48.1,135.5,47.6,135.5z"/>
		</g>
		<g id="XMLID_4424_">
			<path id="XMLID_4750_" class="st0" d="M45.5,137.6c-0.5,0-0.9-0.4-0.9-0.9v-4.2c0-0.5,0.4-0.9,0.9-0.9c0.5,0,0.9,0.4,0.9,0.9v4.2
				C46.4,137.2,46,137.6,45.5,137.6z"/>
		</g>
	</g>
	<g id="XMLID_4422_">
		<path id="XMLID_4749_" class="st0" d="M10,187.7h-9c-0.5,0-0.9-0.4-0.9-0.9c0-0.5,0.4-0.9,0.9-0.9h9c0.5,0,0.9,0.4,0.9,0.9
			C10.9,187.3,10.5,187.7,10,187.7z"/>
	</g>
	<g id="XMLID_4421_">
		<path id="XMLID_4748_" class="st0" d="M432.9,187.6h-22c-0.5,0-0.9-0.4-0.9-0.9c0-0.5,0.4-0.9,0.9-0.9h22c0.5,0,0.9,0.4,0.9,0.9
			C433.8,187.2,433.4,187.6,432.9,187.6z"/>
	</g>
	<g id="XMLID_4420_">
		<path id="XMLID_4747_" class="st0" d="M449.5,187.7h-9c-0.5,0-0.9-0.4-0.9-0.9c0-0.5,0.4-0.9,0.9-0.9h9c0.5,0,0.9,0.4,0.9,0.9
			C450.4,187.2,450,187.7,449.5,187.7z"/>
	</g>
	<g id="XMLID_4419_">
		<path id="XMLID_4746_" class="st0" d="M462,187.6h-5.9c-0.5,0-0.9-0.4-0.9-0.9c0-0.5,0.4-0.9,0.9-0.9h5.9c0.5,0,0.9,0.4,0.9,0.9
			C462.9,187.2,462.5,187.6,462,187.6z"/>
	</g>
	<g id="XMLID_4418_">
		<line id="XMLID_4743_" class="st11" x1="402.7" y1="162.9" x2="408.2" y2="162.9"/>
		<path id="XMLID_4744_" class="st0" d="M408.2,163.8h-5.5c-0.5,0-0.9-0.4-0.9-0.9c0-0.5,0.4-0.9,0.9-0.9h5.5c0.5,0,0.9,0.4,0.9,0.9
			C409.1,163.4,408.7,163.8,408.2,163.8z"/>
	</g>
	<g id="XMLID_4417_">
		<line id="XMLID_4741_" class="st11" x1="417" y1="177.4" x2="417" y2="174.2"/>
		<path id="XMLID_4742_" class="st0" d="M417,178.3c-0.5,0-0.9-0.4-0.9-0.9v-3.2c0-0.5,0.4-0.9,0.9-0.9c0.5,0,0.9,0.4,0.9,0.9v3.2
			C417.9,177.9,417.5,178.3,417,178.3z"/>
	</g>
	<g id="XMLID_4408_">
		<g id="XMLID_4412_">
			<g id="XMLID_4416_">
				<path id="XMLID_4730_" class="st11" d="M462,158.3c0-12.2-13.4-22.1-30-22.1c-4,0-7.8,0.6-11.2,1.6v0l-7.3-6.7
					c-1-0.9-2.5-0.2-2.5,1.1c0.1,4.1,0.1,10.3-0.1,10.4l0,0c-4.1,3-7,6.8-8.2,11.1h-4.9c-1.4,0-2.6,1.2-2.6,2.6v4.1
					c0,1.4,1.2,2.6,2.6,2.6h4.9c1.8,6.2,7.1,11.4,14.3,14.5v5.9c0,1.9,1.5,3.4,3.4,3.4h0.7c1.9,0,3.4-1.5,3.4-3.4v-3.6
					c2.4,0.5,4.9,0.7,7.5,0.7s5.1-0.2,7.5-0.7v3.6c0,1.9,1.5,3.4,3.4,3.4h0.7c1.9,0,3.4-1.5,3.4-3.4v-5.9
					C456,173.6,462,166.5,462,158.3z"/>
				<path id="XMLID_4738_" class="st0" d="M443.6,187.7h-0.7c-2.4,0-4.3-1.9-4.3-4.3v-2.5c-4.3,0.7-8.9,0.7-13.2,0v2.5
					c0,2.4-1.9,4.3-4.3,4.3h-0.7c-2.4,0-4.3-1.9-4.3-4.3V178c-7-3.2-12.1-8.3-14.1-14.2h-4.2c-1.9,0-3.5-1.6-3.5-3.5v-4.1
					c0-1.9,1.6-3.5,3.5-3.5h4.2c1.3-4,4.1-7.7,8-10.7c0-0.7,0.1-2.8,0-9.9c0-1,0.5-1.8,1.4-2.2c0.9-0.4,1.9-0.2,2.6,0.4l6.9,6.4
					c3.5-1,7.2-1.5,11-1.5c17,0,30.9,10.3,30.9,23c0,8.1-5.7,15.6-15,19.8v5.3C447.9,185.7,446,187.7,443.6,187.7z M439.5,178.8
					c0.2,0,0.4,0.1,0.6,0.2c0.2,0.2,0.3,0.4,0.3,0.7v3.6c0,1.4,1.1,2.5,2.5,2.5h0.7c1.4,0,2.5-1.1,2.5-2.5v-5.9
					c0-0.4,0.2-0.7,0.5-0.8c8.9-3.8,14.4-10.8,14.4-18.3c0-11.7-13-21.2-29.1-21.2c-3.8,0-7.5,0.5-11,1.6c-0.3,0.1-0.6,0-0.9-0.2
					l-7.3-6.7c-0.3-0.2-0.5-0.2-0.6-0.1c-0.1,0-0.4,0.2-0.3,0.5c0.2,10.7,0.1,10.8-0.4,11.2c-4,2.9-6.7,6.6-7.9,10.6
					c-0.1,0.4-0.5,0.7-0.9,0.7h-4.9c-0.9,0-1.7,0.8-1.7,1.7v4.1c0,0.9,0.8,1.7,1.7,1.7h4.9c0.4,0,0.8,0.3,0.9,0.7
					c1.7,5.8,6.7,10.9,13.8,13.9c0.3,0.1,0.5,0.5,0.5,0.8v5.9c0,1.4,1.1,2.5,2.5,2.5h0.7c1.4,0,2.5-1.1,2.5-2.5v-3.6
					c0-0.3,0.1-0.5,0.3-0.7c0.2-0.2,0.5-0.2,0.7-0.2c4.8,0.9,9.9,0.9,14.7,0C439.4,178.8,439.4,178.8,439.5,178.8z"/>
			</g>
			<g id="XMLID_4415_">
				<path id="XMLID_4737_" class="st0" d="M446.3,144.6c-0.1,0-0.2,0-0.4-0.1c-4.5-2-9.6-3-14.9-3c-0.5,0-0.9-0.4-0.9-0.9
					c0-0.5,0.4-0.9,0.9-0.9c5.5,0,10.9,1.1,15.6,3.1c0.5,0.2,0.7,0.7,0.5,1.2C447,144.4,446.7,144.6,446.3,144.6z"/>
			</g>
			<g id="XMLID_4414_">
				<path id="XMLID_4736_" class="st0" d="M420.6,151.6c-2.6,0-4.8-2.1-4.8-4.8c0-0.5,0.4-0.9,0.9-0.9c0.5,0,0.9,0.4,0.9,0.9
					c0,1.6,1.3,2.9,2.9,2.9c1.6,0,2.9-1.3,2.9-2.9c0-0.5,0.4-0.9,0.9-0.9c0.5,0,0.9,0.4,0.9,0.9
					C425.3,149.4,423.2,151.6,420.6,151.6z"/>
			</g>
			<g id="XMLID_4413_">
				<path id="XMLID_4735_" class="st0" d="M465.8,162.5c-2.6,0-4.8-2.1-4.8-4.8c0-0.5,0.4-0.9,0.9-0.9c0.5,0,0.9,0.4,0.9,0.9
					c0,1.6,1.3,2.9,2.9,2.9c1.6,0,2.9-1.3,2.9-2.9c0-0.5,0.4-0.9,0.9-0.9c0.5,0,0.9,0.4,0.9,0.9
					C470.6,160.4,468.5,162.5,465.8,162.5z"/>
			</g>
		</g>
		<g id="XMLID_4409_">
			<g id="XMLID_4411_">
				<path id="XMLID_4734_" class="st3" d="M446,174.4c-0.5,0-1-0.3-1.2-0.8c-0.3-0.7,0-1.5,0.7-1.8c6.8-2.9,11-8.2,11-13.9
					c0-0.7,0.6-1.4,1.4-1.4c0.7,0,1.4,0.6,1.4,1.4c0,6.8-4.8,13-12.6,16.4C446.4,174.4,446.2,174.4,446,174.4z"/>
			</g>
			<g id="XMLID_4410_">
				<path id="XMLID_4733_" class="st3" d="M405.8,160.2h-6c-0.7,0-1.4-0.6-1.4-1.4s0.6-1.4,1.4-1.4h6c0.7,0,1.4,0.6,1.4,1.4
					S406.6,160.2,405.8,160.2z"/>
			</g>
		</g>
	</g>
	<g id="XMLID_4405_">
		<g id="XMLID_4407_">
			<path id="XMLID_4732_" class="st0" d="M442.1,115.7c-0.2,0-0.5-0.1-0.6-0.3l-4.3-4.3c-0.4-0.4-0.4-0.9,0-1.3
				c0.4-0.4,0.9-0.4,1.3,0l3.7,3.7l3.7-3.7c0.4-0.4,0.9-0.4,1.3,0c0.4,0.4,0.4,0.9,0,1.3l-4.3,4.3
				C442.6,115.6,442.4,115.7,442.1,115.7z"/>
		</g>
		<g id="XMLID_4406_">
			<path id="XMLID_4731_" class="st0" d="M442.1,115.7c-0.5,0-0.9-0.4-0.9-0.9V90.4c0-0.5,0.4-0.9,0.9-0.9c0.5,0,0.9,0.4,0.9,0.9
				v24.4C443,115.3,442.6,115.7,442.1,115.7z"/>
		</g>
	</g>
	<g id="XMLID_4397_">
		<g id="XMLID_4404_">
			<circle id="XMLID_4722_" class="st2" cx="440.4" cy="129.4" r="9.7"/>
			<path id="XMLID_4727_" class="st0" d="M440.4,140c-5.9,0-10.6-4.8-10.6-10.6c0-5.9,4.8-10.6,10.6-10.6c5.9,0,10.6,4.8,10.6,10.6
				C451,135.3,446.3,140,440.4,140z M440.4,120.6c-4.9,0-8.8,4-8.8,8.8c0,4.9,4,8.8,8.8,8.8c4.9,0,8.8-4,8.8-8.8
				C449.2,124.5,445.3,120.6,440.4,120.6z"/>
		</g>
		<g id="XMLID_4403_">
			<path id="XMLID_4724_" class="st9" d="M440.4,137.2c-4.3,0-7.8-3.5-7.8-7.8c0-4.3,3.5-7.8,7.8-7.8c4.3,0,7.8,3.5,7.8,7.8
				C448.2,133.7,444.7,137.2,440.4,137.2z M440.4,122.1c-4,0-7.3,3.3-7.3,7.3c0,4,3.3,7.3,7.3,7.3c4,0,7.3-3.3,7.3-7.3
				C447.7,125.4,444.4,122.1,440.4,122.1z"/>
		</g>
		<g id="XMLID_4398_">
			<g id="XMLID_4399_">
				<path id="XMLID_5067_" class="st8" d="M439.8,134.1v-0.8c-0.7-0.1-1.4-0.4-2-0.8c-0.4-0.3-0.5-0.8-0.2-1.2l0,0
					c0.3-0.3,0.8-0.4,1.1-0.2c0.4,0.3,0.7,0.4,1,0.5V130c-0.8-0.2-1.4-0.5-1.8-0.8c-0.4-0.3-0.6-0.9-0.6-1.5s0.2-1.2,0.6-1.6
					c0.4-0.4,1-0.7,1.7-0.8v-0.6h1.2v0.6c0.5,0.1,1,0.2,1.5,0.5c0.5,0.2,0.6,0.8,0.3,1.2l0,0c-0.2,0.3-0.7,0.5-1,0.3
					c-0.3-0.1-0.5-0.2-0.7-0.3v1.7c0.8,0.2,1.4,0.5,1.8,0.9c0.4,0.4,0.6,0.9,0.6,1.5c0,0.7-0.2,1.2-0.7,1.6c-0.4,0.4-1,0.7-1.8,0.8
					v0.8H439.8z M439.8,126.8c-0.3,0.1-0.5,0.3-0.5,0.6c0,0.3,0.2,0.5,0.5,0.7V126.8z M441.6,131c0-0.2,0-0.3-0.1-0.4
					c-0.1-0.1-0.2-0.2-0.5-0.3v1.4C441.4,131.6,441.6,131.4,441.6,131z"/>
			</g>
		</g>
	</g>
	<g id="XMLID_4396_">
		<path id="XMLID_4723_" class="st3" d="M92.7,150c-0.7,0-1.4-0.6-1.4-1.4c0-7.8,6.3-14.1,14.1-14.1c0.7,0,1.4,0.6,1.4,1.4
			s-0.6,1.4-1.4,1.4c-6.3,0-11.4,5.1-11.4,11.4C94,149.4,93.4,150,92.7,150z"/>
	</g>
	<g id="XMLID_4390_">
		<g id="XMLID_4395_">
			<path id="XMLID_4718_" class="st6" d="M385.7,186.7h-1.9c-5.6,0-10.2-4.6-10.2-10.2v0c0-5.6,4.6-10.2,10.2-10.2h1.9
				c5.6,0,10.2,4.6,10.2,10.2v0C395.9,182.2,391.4,186.7,385.7,186.7z"/>
			<path id="XMLID_4719_" class="st0" d="M388.8,187.7h-8.1c-4.4,0-8-3.6-8-8v-6.2c0-4.4,3.6-8,8-8h8.1c4.4,0,8,3.6,8,8v6.2
				C396.8,184.1,393.2,187.7,388.8,187.7z M380.7,167.2c-3.4,0-6.2,2.8-6.2,6.2v6.2c0,3.4,2.8,6.2,6.2,6.2h8.1
				c3.4,0,6.2-2.8,6.2-6.2v-6.2c0-3.4-2.8-6.2-6.2-6.2H380.7z"/>
		</g>
		<g id="XMLID_4393_">
			<g id="XMLID_4394_">
				<path id="XMLID_4714_" class="st6" d="M392.1,166.3H389v-5.5c0-2.4-1.9-4.3-4.3-4.3c-2.4,0-4.3,1.9-4.3,4.3v5.5h-3.1v-5.5
					c0-4.1,3.3-7.4,7.4-7.4c4.1,0,7.4,3.3,7.4,7.4V166.3z"/>
				<path id="XMLID_4715_" class="st0" d="M392.1,167.2H389c-0.5,0-0.9-0.4-0.9-0.9v-5.5c0-1.9-1.5-3.4-3.4-3.4
					c-1.9,0-3.4,1.5-3.4,3.4v5.5c0,0.5-0.4,0.9-0.9,0.9h-3.1c-0.5,0-0.9-0.4-0.9-0.9v-5.5c0-4.6,3.7-8.3,8.3-8.3s8.3,3.7,8.3,8.3
					v5.5C393,166.8,392.6,167.2,392.1,167.2z M389.9,165.4h1.3v-4.6c0-3.6-2.9-6.5-6.5-6.5s-6.5,2.9-6.5,6.5v4.6h1.3v-4.6
					c0-2.9,2.3-5.2,5.2-5.2c2.9,0,5.2,2.3,5.2,5.2V165.4z"/>
			</g>
		</g>
		<g id="XMLID_4392_">
			<path id="XMLID_4388_" class="st2" d="M387.6,174.2c0-1.6-1.3-2.8-2.8-2.8s-2.8,1.3-2.8,2.8c0,0.9,0.4,1.6,1,2.1l-0.4,5.4h4.5
				l-0.4-5.4C387.2,175.8,387.6,175,387.6,174.2z"/>
			<path id="XMLID_4711_" class="st0" d="M387,182.6h-4.5c-0.3,0-0.5-0.1-0.7-0.3c-0.2-0.2-0.3-0.4-0.2-0.7l0.3-5
				c-0.6-0.7-1-1.6-1-2.5c0-2.1,1.7-3.7,3.7-3.7c2.1,0,3.7,1.7,3.7,3.7c0,0.9-0.3,1.8-1,2.5l0.4,5c0,0.3-0.1,0.5-0.2,0.7
				C387.5,182.5,387.3,182.6,387,182.6z M383.5,180.8h2.5l-0.3-4.4c0-0.3,0.1-0.6,0.3-0.7c0.4-0.4,0.7-0.9,0.7-1.5
				c0-1.1-0.9-1.9-1.9-1.9c-1.1,0-1.9,0.9-1.9,1.9c0,0.6,0.2,1.1,0.7,1.5c0.2,0.2,0.3,0.5,0.3,0.7L383.5,180.8z"/>
		</g>
		<g id="XMLID_4391_">
			<path id="XMLID_4389_" class="st3" d="M389.5,184.3c-0.7,0-1.4-0.6-1.4-1.4c0-0.7,0.6-1.4,1.4-1.4c1,0,1.9-0.8,1.9-1.9v-4.4
				c0-0.7,0.6-1.4,1.4-1.4c0.7,0,1.4,0.6,1.4,1.4v4.4C394.1,182.3,392,184.3,389.5,184.3z"/>
		</g>
	</g>
	<g id="XMLID_4381_">
		<g id="XMLID_4386_">
			<g id="XMLID_4387_">
				<path id="XMLID_4384_" class="st2" d="M452.2,43.6L452.2,43.6c0.8,0.8,0.8,2,0,2.8l-1.5,1.5c-0.6,0.6-0.7,1.5-0.4,2.3
					c0.2,0.4,0.4,0.8,0.5,1.2c0.3,0.8,1,1.4,1.9,1.4h2.1c1.1,0,2,0.9,2,2v0c0,1.1-0.9,2-2,2h-2.1c-0.9,0-1.6,0.6-1.9,1.4
					c-0.1,0.4-0.3,0.8-0.5,1.2c-0.4,0.8-0.2,1.7,0.4,2.3l1.5,1.5c0.8,0.8,0.8,2,0,2.8l0,0c-0.8,0.8-2,0.8-2.8,0l-1.5-1.5
					c-0.6-0.6-1.5-0.7-2.3-0.4c-0.4,0.2-0.8,0.4-1.2,0.5c-0.8,0.3-1.4,1-1.4,1.9v2.1c0,1.1-0.9,2-2,2h0c-1.1,0-2-0.9-2-2v-2.1
					c0-0.9-0.6-1.6-1.4-1.9c-0.4-0.1-0.8-0.3-1.2-0.5c-0.8-0.4-1.7-0.2-2.3,0.4l-1.5,1.5c-0.8,0.8-2,0.8-2.8,0v0
					c-0.8-0.8-0.8-2,0-2.8l1.5-1.5c0.6-0.6,0.7-1.5,0.4-2.3c-0.2-0.4-0.4-0.8-0.5-1.2c-0.3-0.8-1-1.4-1.9-1.4h-2.1c-1.1,0-2-0.9-2-2
					l0,0c0-1.1,0.9-2,2-2h2.1c0.9,0,1.6-0.6,1.9-1.4c0.1-0.4,0.3-0.8,0.5-1.2c0.4-0.8,0.2-1.7-0.4-2.3l-1.5-1.5
					c-0.8-0.8-0.8-2,0-2.8l0,0c0.8-0.8,2-0.8,2.8,0l1.5,1.5c0.6,0.6,1.5,0.7,2.3,0.4c0.4-0.2,0.8-0.4,1.2-0.5c0.8-0.3,1.4-1,1.4-1.9
					V41c0-1.1,0.9-2,2-2l0,0c1.1,0,2,0.9,2,2v2.1c0,0.9,0.6,1.6,1.4,1.9c0.4,0.1,0.8,0.3,1.2,0.5c0.8,0.4,1.7,0.2,2.3-0.4l1.5-1.5
					C450.2,42.8,451.4,42.8,452.2,43.6z M445.5,50.3c-2.4-2.4-6.4-2.4-8.8,0c-2.4,2.4-2.4,6.4,0,8.8c2.4,2.4,6.4,2.4,8.8,0
					C448,56.6,448,52.7,445.5,50.3z"/>
				<path id="XMLID_4706_" class="st0" d="M441.1,71.2c-1.6,0-2.9-1.3-2.9-2.9v-2.1c0-0.5-0.3-0.9-0.8-1c-0.4-0.2-0.9-0.3-1.3-0.5
					c-0.4-0.2-0.9-0.1-1.2,0.2l-1.5,1.5c-0.5,0.5-1.3,0.8-2,0.8s-1.5-0.3-2-0.8c-0.5-0.5-0.8-1.3-0.8-2c0-0.8,0.3-1.5,0.8-2l1.5-1.5
					c0.3-0.3,0.4-0.8,0.2-1.2c-0.2-0.4-0.4-0.8-0.5-1.3c-0.2-0.5-0.6-0.8-1-0.8h-2.1c-1.6,0-2.9-1.3-2.9-2.9c0-1.6,1.3-2.9,2.9-2.9
					h2.1c0.5,0,0.9-0.3,1-0.8c0.2-0.4,0.3-0.9,0.5-1.3c0.2-0.4,0.1-0.9-0.2-1.2l-1.5-1.5c-1.1-1.1-1.1-2.9,0-4.1
					c1.1-1.1,2.9-1.1,4.1,0l1.5,1.5c0.3,0.3,0.8,0.4,1.2,0.2c0.4-0.2,0.8-0.4,1.3-0.5c0.5-0.2,0.8-0.6,0.8-1V41
					c0-1.6,1.3-2.9,2.9-2.9c1.6,0,2.9,1.3,2.9,2.9v2.1c0,0.5,0.3,0.9,0.8,1c0.4,0.1,0.9,0.3,1.3,0.5c0.4,0.2,0.9,0.1,1.2-0.2
					l1.5-1.5c1.1-1.1,2.9-1.1,4.1,0c1.1,1.1,1.1,2.9,0,4.1l-1.5,1.5c-0.3,0.3-0.4,0.8-0.2,1.2c0.2,0.4,0.4,0.8,0.5,1.3
					c0.2,0.5,0.6,0.8,1,0.8h2.1c1.6,0,2.9,1.3,2.9,2.9c0,1.6-1.3,2.9-2.9,2.9h-2.1c-0.5,0-0.9,0.3-1,0.8c-0.1,0.4-0.3,0.9-0.5,1.3
					c-0.2,0.4-0.1,0.9,0.2,1.2l1.5,1.5c0.5,0.5,0.8,1.3,0.8,2c0,0.8-0.3,1.5-0.8,2c-1.1,1.1-2.9,1.1-4.1,0l-1.5-1.5
					c-0.3-0.3-0.8-0.4-1.2-0.2c-0.4,0.2-0.8,0.4-1.3,0.5c-0.5,0.2-0.8,0.6-0.8,1v2.1C444,69.9,442.7,71.2,441.1,71.2z M435.7,62.8
					c0.4,0,0.9,0.1,1.3,0.3c0.3,0.2,0.7,0.3,1.1,0.4c1.2,0.4,2,1.5,2,2.7v2.1c0,0.6,0.5,1.1,1.1,1.1c0.6,0,1.1-0.5,1.1-1.1v-2.1
					c0-1.2,0.8-2.3,2-2.7c0.4-0.1,0.7-0.3,1.1-0.4c1.1-0.6,2.5-0.3,3.3,0.5l1.5,1.5c0.4,0.4,1.1,0.4,1.5,0c0.2-0.2,0.3-0.5,0.3-0.8
					c0-0.3-0.1-0.6-0.3-0.8l-1.5-1.5c-0.9-0.9-1.1-2.2-0.5-3.3c0.2-0.3,0.3-0.7,0.4-1.1c0.4-1.2,1.5-2,2.7-2h2.1
					c0.6,0,1.1-0.5,1.1-1.1c0-0.6-0.5-1.1-1.1-1.1h-2.1c-1.2,0-2.3-0.8-2.7-2c-0.1-0.4-0.3-0.7-0.4-1.1c-0.6-1.1-0.3-2.5,0.5-3.3
					l1.5-1.5c0.4-0.4,0.4-1.1,0-1.5c-0.4-0.4-1.1-0.4-1.5,0l-1.5,1.5c-0.9,0.9-2.2,1.1-3.3,0.5c-0.3-0.2-0.7-0.3-1.1-0.4
					c-1.2-0.4-2-1.5-2-2.7V41c0-0.6-0.5-1.1-1.1-1.1c-0.6,0-1.1,0.5-1.1,1.1v2.1c0,1.2-0.8,2.3-2,2.7c-0.4,0.1-0.7,0.3-1.1,0.4
					c-1.1,0.6-2.5,0.3-3.3-0.5l-1.5-1.5c-0.4-0.4-1.1-0.4-1.5,0c-0.4,0.4-0.4,1.1,0,1.5l1.5,1.5c0.9,0.9,1.1,2.2,0.5,3.3
					c-0.2,0.3-0.3,0.7-0.4,1.1c-0.4,1.2-1.5,2-2.7,2h-2.1c-0.6,0-1.1,0.5-1.1,1.1c0,0.6,0.5,1.1,1.1,1.1h2.1c1.2,0,2.3,0.8,2.7,2
					c0.1,0.4,0.3,0.7,0.4,1.1c0.6,1.1,0.3,2.5-0.5,3.3l-1.5,1.5c-0.2,0.2-0.3,0.5-0.3,0.8c0,0.3,0.1,0.6,0.3,0.8
					c0.2,0.2,0.5,0.3,0.8,0.3h0c0.3,0,0.6-0.1,0.8-0.3l1.5-1.5C434.2,63.1,435,62.8,435.7,62.8z M441.1,61.8c-1.8,0-3.7-0.7-5-2.1
					c-1.3-1.3-2.1-3.1-2.1-5c0-1.9,0.7-3.7,2.1-5c2.8-2.8,7.3-2.8,10.1,0l0,0l0,0c1.3,1.3,2.1,3.1,2.1,5c0,1.9-0.7,3.7-2.1,5
					C444.8,61.1,442.9,61.8,441.1,61.8z M441.1,49.3c-1.4,0-2.7,0.5-3.8,1.6c-1,1-1.6,2.3-1.6,3.8c0,1.4,0.6,2.8,1.6,3.8
					c2.1,2.1,5.5,2.1,7.5,0c1-1,1.6-2.3,1.6-3.8c0-1.4-0.6-2.8-1.6-3.8l0,0C443.9,49.9,442.5,49.3,441.1,49.3z"/>
			</g>
		</g>
		<g id="XMLID_4382_">
			<g id="XMLID_4383_">
				<path id="XMLID_4376_" class="st6" d="M429.2,62L429.2,62c0.8,0.4,1.1,1.3,0.7,2l-0.7,1.5c-0.3,0.6-0.1,1.3,0.3,1.7
					c0.2,0.2,0.5,0.5,0.7,0.7c0.4,0.5,1.1,0.7,1.7,0.5l1.5-0.5c0.8-0.3,1.6,0.1,1.9,0.9l0,0c0.3,0.8-0.1,1.6-0.9,1.9l-1.5,0.5
					c-0.6,0.2-1,0.8-1,1.5c0,0.3,0,0.7,0,1c-0.1,0.6,0.3,1.3,0.8,1.6l1.5,0.7c0.8,0.4,1.1,1.3,0.7,2l0,0c-0.4,0.8-1.3,1.1-2,0.7
					l-1.5-0.7c-0.6-0.3-1.3-0.1-1.7,0.3c-0.2,0.2-0.5,0.5-0.7,0.7c-0.5,0.4-0.7,1.1-0.5,1.7l0.5,1.5c0.3,0.8-0.1,1.6-0.9,1.9h0
					c-0.8,0.3-1.6-0.1-1.9-0.9l-0.5-1.5c-0.2-0.6-0.8-1-1.5-1c-0.3,0-0.7,0-1,0c-0.6-0.1-1.3,0.3-1.6,0.8l-0.7,1.5
					c-0.4,0.8-1.3,1.1-2,0.7v0c-0.8-0.4-1.1-1.3-0.7-2l0.7-1.5c0.3-0.6,0.1-1.3-0.3-1.7c-0.2-0.2-0.5-0.5-0.7-0.7
					c-0.4-0.5-1.1-0.7-1.7-0.5l-1.5,0.5c-0.8,0.3-1.6-0.1-1.9-0.9h0c-0.3-0.8,0.1-1.6,0.9-1.9l1.5-0.5c0.6-0.2,1-0.8,1-1.5
					c0-0.3,0-0.7,0-1c0.1-0.6-0.3-1.3-0.8-1.6l-1.5-0.7c-0.8-0.4-1.1-1.3-0.7-2l0,0c0.4-0.8,1.3-1.1,2-0.7l1.5,0.7
					c0.6,0.3,1.3,0.1,1.7-0.3c0.2-0.2,0.5-0.5,0.7-0.7c0.5-0.4,0.7-1.1,0.5-1.7l-0.5-1.5c-0.3-0.8,0.1-1.6,0.9-1.9l0,0
					c0.8-0.3,1.6,0.1,1.9,0.9l0.5,1.5c0.2,0.6,0.8,1,1.5,1c0.3,0,0.7,0,1,0c0.6,0.1,1.3-0.3,1.6-0.8l0.7-1.5
					C427.5,62,428.4,61.6,429.2,62z M426.1,68.5c-2.4-1.1-5.2-0.1-6.3,2.3c-1.1,2.4-0.1,5.2,2.3,6.3c2.4,1.1,5.2,0.1,6.3-2.3
					C429.5,72.5,428.5,69.6,426.1,68.5z"/>
				<path id="XMLID_4700_" class="st0" d="M427.6,85.1c-1,0-1.9-0.6-2.3-1.6l-0.5-1.5c-0.1-0.2-0.3-0.4-0.6-0.4
					c-0.4,0-0.7,0-1.1-0.1c-0.3,0-0.5,0.1-0.6,0.3l-0.7,1.5c-0.3,0.6-0.8,1-1.4,1.2c-0.6,0.2-1.3,0.2-1.8-0.1
					c-0.6-0.3-1-0.8-1.2-1.4c-0.2-0.6-0.2-1.3,0.1-1.8l0.7-1.5c0.1-0.2,0.1-0.5-0.1-0.7c-0.3-0.3-0.5-0.5-0.7-0.8
					c-0.2-0.2-0.4-0.3-0.7-0.2l-1.5,0.5c-1.3,0.5-2.6-0.2-3.1-1.4c-0.2-0.6-0.2-1.3,0.1-1.8c0.3-0.6,0.8-1,1.4-1.2l1.5-0.5
					c0.2-0.1,0.4-0.3,0.4-0.6c0-0.4,0-0.7,0.1-1.1c0-0.3-0.1-0.5-0.3-0.6l-1.5-0.7c-0.6-0.3-1-0.8-1.2-1.4c-0.2-0.6-0.2-1.3,0.1-1.8
					c0.6-1.2,2-1.7,3.2-1.2l1.5,0.7c0.2,0.1,0.5,0.1,0.7-0.1c0.3-0.3,0.5-0.5,0.8-0.7c0.2-0.2,0.3-0.4,0.2-0.7l-0.5-1.5
					c-0.5-1.2,0.2-2.6,1.4-3.1c0.6-0.2,1.3-0.2,1.8,0.1c0.6,0.3,1,0.8,1.2,1.4l0.5,1.5c0.1,0.2,0.3,0.4,0.6,0.4c0.4,0,0.7,0,1.1,0.1
					c0.3,0,0.5-0.1,0.6-0.3l0.7-1.5c0.3-0.6,0.8-1,1.4-1.2c0.6-0.2,1.3-0.2,1.8,0.1c1.2,0.6,1.7,2,1.2,3.2l-0.7,1.5
					c-0.1,0.2-0.1,0.5,0.1,0.7c0.3,0.3,0.5,0.5,0.7,0.8c0.2,0.2,0.4,0.3,0.7,0.2l1.5-0.5c0.6-0.2,1.3-0.2,1.8,0.1
					c0.6,0.3,1,0.8,1.2,1.4c0.2,0.6,0.2,1.3-0.1,1.8c-0.3,0.6-0.8,1-1.4,1.2l-1.5,0.5c-0.2,0.1-0.4,0.3-0.4,0.6c0,0.4,0,0.7-0.1,1.1
					c0,0.3,0.1,0.5,0.3,0.6l1.5,0.7c1.2,0.6,1.7,2,1.2,3.2c-0.3,0.6-0.8,1-1.4,1.2c-0.6,0.2-1.3,0.2-1.8-0.1l-1.5-0.7
					c-0.2-0.1-0.5-0.1-0.7,0.1c-0.3,0.3-0.5,0.5-0.8,0.7c-0.2,0.2-0.3,0.4-0.2,0.7l0.5,1.5c0.2,0.6,0.2,1.3-0.1,1.8
					c-0.3,0.6-0.8,1-1.4,1.2C428.2,85,427.9,85.1,427.6,85.1z M424.2,79.8c1,0,1.9,0.6,2.3,1.6l0.5,1.5c0.1,0.3,0.5,0.5,0.8,0.4
					c0.2-0.1,0.3-0.2,0.3-0.3c0.1-0.1,0.1-0.3,0-0.5l-0.5-1.5c-0.3-1,0-2.1,0.8-2.7c0.2-0.2,0.4-0.4,0.6-0.6c0.7-0.8,1.8-1,2.8-0.5
					l1.5,0.7c0.3,0.1,0.7,0,0.8-0.3c0.1-0.3,0-0.7-0.3-0.8l-1.5-0.7c-0.9-0.4-1.5-1.4-1.4-2.5c0-0.3,0-0.6,0-0.9c0-1,0.6-2,1.6-2.3
					l1.5-0.5c0.3-0.1,0.5-0.5,0.4-0.8c-0.1-0.2-0.2-0.3-0.3-0.3c-0.1-0.1-0.3-0.1-0.5,0l-1.5,0.5c-1,0.3-2.1,0-2.7-0.8
					c-0.2-0.2-0.4-0.4-0.6-0.6c-0.8-0.7-1-1.8-0.5-2.8l0.7-1.5c0.1-0.3,0-0.7-0.3-0.8h0c-0.1-0.1-0.3-0.1-0.5,0
					c-0.2,0.1-0.3,0.2-0.3,0.3l-0.7,1.5c-0.4,0.9-1.4,1.5-2.5,1.4c-0.3,0-0.6,0-0.9,0c0,0,0,0,0,0c-1,0-1.9-0.6-2.3-1.6l-0.5-1.5
					c-0.1-0.2-0.2-0.3-0.3-0.3c-0.1-0.1-0.3-0.1-0.5,0c-0.3,0.1-0.5,0.5-0.4,0.8l0.5,1.5c0.3,1,0,2.1-0.8,2.7
					c-0.2,0.2-0.4,0.4-0.6,0.6c-0.7,0.8-1.8,1-2.8,0.5l-1.5-0.7c-0.3-0.1-0.7,0-0.8,0.3c-0.1,0.3,0,0.7,0.3,0.8l1.5,0.7
					c0.9,0.4,1.5,1.4,1.4,2.5c0,0.3,0,0.6,0,0.9c0,1-0.6,2-1.6,2.3l-1.5,0.5c-0.3,0.1-0.5,0.5-0.4,0.8c0.1,0.2,0.2,0.3,0.3,0.3
					c0.1,0.1,0.3,0.1,0.5,0l1.5-0.5c1-0.3,2.1,0,2.7,0.8c0.2,0.2,0.4,0.4,0.6,0.6c0.8,0.7,1,1.8,0.5,2.8l-0.7,1.5
					c-0.1,0.3,0,0.7,0.3,0.8c0.3,0.1,0.7,0,0.8-0.3l0.7-1.5c0.4-0.9,1.4-1.5,2.5-1.4C423.6,79.8,423.9,79.8,424.2,79.8
					C424.2,79.8,424.2,79.8,424.2,79.8z M424.1,78.5c-0.8,0-1.6-0.2-2.4-0.5c-2.8-1.3-4-4.7-2.7-7.5c0.6-1.4,1.8-2.4,3.2-2.9
					c1.4-0.5,3-0.4,4.3,0.2c1.4,0.6,2.4,1.8,2.9,3.2c0.5,1.4,0.4,3-0.2,4.3c-0.6,1.4-1.8,2.4-3.2,2.9
					C425.4,78.4,424.7,78.5,424.1,78.5z M424.1,69c-0.4,0-0.9,0.1-1.3,0.2c-1,0.3-1.7,1.1-2.2,2c-0.9,1.9-0.1,4.2,1.9,5.1
					c0.9,0.4,2,0.5,3,0.1c1-0.3,1.7-1.1,2.2-2c0.4-0.9,0.5-2,0.1-3c-0.3-1-1.1-1.7-2-2.2C425.2,69.1,424.6,69,424.1,69z"/>
			</g>
		</g>
	</g>
	<g id="XMLID_4380_">
		<path id="XMLID_4697_" class="st0" d="M316.6,200.7H190.2c-0.5,0-0.9-0.4-0.9-0.9c0-0.5,0.4-0.9,0.9-0.9h126.5
			c0.5,0,0.9,0.4,0.9,0.9C317.5,200.3,317.1,200.7,316.6,200.7z"/>
	</g>
	<g id="XMLID_4379_">
		<path id="XMLID_4696_" class="st0" d="M347.7,200.7h-24.1c-0.5,0-0.9-0.4-0.9-0.9c0-0.5,0.4-0.9,0.9-0.9h24.1
			c0.5,0,0.9,0.4,0.9,0.9C348.6,200.3,348.2,200.7,347.7,200.7z"/>
	</g>
	<g id="XMLID_4378_">
		<path id="XMLID_4695_" class="st0" d="M374.3,200.7h-18c-0.5,0-0.9-0.4-0.9-0.9c0-0.5,0.4-0.9,0.9-0.9h18c0.5,0,0.9,0.4,0.9,0.9
			C375.2,200.3,374.8,200.7,374.3,200.7z"/>
	</g>
	<g id="XMLID_4377_">
		<path id="XMLID_4694_" class="st0" d="M387.1,200.7h-4.7c-0.5,0-0.9-0.4-0.9-0.9c0-0.5,0.4-0.9,0.9-0.9h4.7c0.5,0,0.9,0.4,0.9,0.9
			C388,200.3,387.6,200.7,387.1,200.7z"/>
	</g>
	<g id="XMLID_4373_">
		<path id="XMLID_4693_" class="st0" d="M206.8,193.9h-69.3c-0.5,0-0.9-0.4-0.9-0.9c0-0.5,0.4-0.9,0.9-0.9h69.3
			c0.5,0,0.9,0.4,0.9,0.9C207.7,193.5,207.3,193.9,206.8,193.9z"/>
	</g>
	<g id="XMLID_4375_">
		<path id="XMLID_4692_" class="st0" d="M88.6,200.7H52.5c-0.5,0-0.9-0.4-0.9-0.9c0-0.5,0.4-0.9,0.9-0.9h36.1c0.5,0,0.9,0.4,0.9,0.9
			C89.5,200.3,89.1,200.7,88.6,200.7z"/>
	</g>
	<g id="XMLID_4374_">
		<path id="XMLID_4691_" class="st0" d="M117.7,200.7h-15.6c-0.5,0-0.9-0.4-0.9-0.9c0-0.5,0.4-0.9,0.9-0.9h15.6
			c0.5,0,0.9,0.4,0.9,0.9C118.6,200.3,118.2,200.7,117.7,200.7z"/>
	</g>
	<g id="XMLID_4688_">
		<path id="XMLID_4690_" class="st0" d="M408.2,193.9h-60.5c-0.5,0-0.9-0.4-0.9-0.9c0-0.5,0.4-0.9,0.9-0.9h60.5
			c0.5,0,0.9,0.4,0.9,0.9C409.1,193.5,408.7,193.9,408.2,193.9z"/>
	</g>
	<g id="XMLID_4689_">
		<path id="XMLID_4960_" class="st0" d="M439.8,193.9h-9.1c-0.5,0-0.9-0.4-0.9-0.9c0-0.5,0.4-0.9,0.9-0.9h9.1c0.5,0,0.9,0.4,0.9,0.9
			C440.7,193.5,440.3,193.9,439.8,193.9z"/>
	</g>
	<g id="XMLID_4962_">
		<path id="XMLID_4988_" class="st0" d="M73,193.9H37c-0.5,0-0.9-0.4-0.9-0.9c0-0.5,0.4-0.9,0.9-0.9H73c0.5,0,0.9,0.4,0.9,0.9
			C73.9,193.5,73.5,193.9,73,193.9z"/>
	</g>
	<g id="XMLID_5001_">
		<g id="XMLID_5005_">
			<g id="XMLID_5010_">
				<path id="XMLID_5011_" class="st0" d="M325.4,71.7c0-0.2,0.1-0.5,0.3-0.6c0.4-0.4,0.9-0.4,1.3,0l4.3,4.3
					c0.2,0.2,0.3,0.4,0.3,0.6l0,0c0,0.2-0.1,0.5-0.3,0.6l-4.3,4.3c-0.4,0.4-0.9,0.4-1.3,0c-0.4-0.4-0.4-0.9,0-1.3l3.7-3.7l-3.7-3.7
					C325.5,72.1,325.4,71.9,325.4,71.7z"/>
			</g>
			<g id="XMLID_5007_">
				<path id="XMLID_5009_" class="st0" d="M305.4,76c0-0.5,0.4-0.9,0.9-0.9h24.4c0.5,0,0.9,0.4,0.9,0.9s-0.4,0.9-0.9,0.9h-24.4
					C305.8,76.9,305.4,76.5,305.4,76z"/>
			</g>
		</g>
		<g id="XMLID_5002_">
			<g id="XMLID_5003_">
				<path id="XMLID_5004_" class="st0" d="M306.7,85.7c0-0.2,0.1-0.5,0.3-0.6l4.3-4.3c0.4-0.4,0.9-0.4,1.3,0c0.4,0.4,0.4,0.9,0,1.3
					l-3.7,3.7l3.7,3.7c0.4,0.4,0.4,0.9,0,1.3c-0.4,0.4-0.9,0.4-1.3,0l-4.3-4.3C306.8,86.2,306.7,86,306.7,85.7z"/>
			</g>
			<g id="XMLID_5006_">
				<path id="XMLID_5008_" class="st0" d="M306.7,85.7c0-0.5,0.4-0.9,0.9-0.9h24.4c0.5,0,0.9,0.4,0.9,0.9c0,0.5-0.4,0.9-0.9,0.9
					h-24.4C307.1,86.6,306.7,86.2,306.7,85.7z"/>
			</g>
		</g>
	</g>
</g>
</svg>
