<?xml version="1.0" encoding="utf-8"?>
<!-- Generator: Adobe Illustrator 15.0.0, SVG Export Plug-In . SVG Version: 6.00 Build 0)  -->
<!DOCTYPE svg PUBLIC "-//W3C//DTD SVG 1.1//EN" "http://www.w3.org/Graphics/SVG/1.1/DTD/svg11.dtd">
<svg version="1.1" id="Слой_1" xmlns="http://www.w3.org/2000/svg" xmlns:xlink="http://www.w3.org/1999/xlink" x="0px" y="0px"
	 width="595.279px" height="841.891px" viewBox="0 0 595.279 841.891" enable-background="new 0 0 595.279 841.891"
	 xml:space="preserve">
<g>
	<path fill="#293A4C" d="M320.089,442.494c0,2-1.6,3.601-3.6,3.601H278.49c-2,0-3.6-1.601-3.6-3.601v-43.599c0-2,1.6-3.6,3.6-3.6
		h37.999c2,0,3.6,1.6,3.6,3.6V442.494z"/>
	<g>
		<path fill="#FFFFFF" d="M289.89,425.295c0,1.8-1.499,3.3-3.3,3.3h-5.6c-1.8,0-3.3-1.5-3.3-3.3v-5.6c0-1.8,1.5-3.3,3.3-3.3h5.6
			c1.801,0,3.3,1.5,3.3,3.3V425.295z"/>
	</g>
	<g>
		<path fill="#FFFFFF" d="M303.49,425.295c0,1.8-1.5,3.3-3.3,3.3h-5.6c-1.8,0-3.3-1.5-3.3-3.3v-5.6c0-1.8,1.5-3.3,3.3-3.3h5.6
			c1.8,0,3.3,1.5,3.3,3.3V425.295z"/>
	</g>
	<g>
		<g>
			<path fill="#D8674B" d="M317.089,438.595c0,1.8-1.5,3.3-3.3,3.3h-5.6c-1.8,0-3.3-1.5-3.3-3.3v-18.899c0-1.8,1.5-3.3,3.3-3.3h5.6
				c1.8,0,3.3,1.5,3.3,3.3V438.595z"/>
		</g>
	</g>
	<g>
		<path fill="#FFFFFF" d="M289.89,438.595c0,1.8-1.499,3.3-3.3,3.3h-5.6c-1.8,0-3.3-1.5-3.3-3.3v-5.6c0-1.801,1.5-3.301,3.3-3.301
			h5.6c1.801,0,3.3,1.5,3.3,3.301V438.595z"/>
	</g>
	<g>
		<path fill="#FFFFFF" d="M303.49,438.595c0,1.8-1.5,3.3-3.3,3.3h-5.6c-1.8,0-3.3-1.5-3.3-3.3v-5.6c0-1.801,1.5-3.301,3.3-3.301h5.6
			c1.8,0,3.3,1.5,3.3,3.301V438.595z"/>
	</g>
	<path fill="#62B7C9" d="M316.69,406.495c0,2-1.601,3.601-3.601,3.601H281.79c-2,0-3.6-1.601-3.6-3.601v-3.499
		c0-2,1.6-3.601,3.6-3.601h31.199c2,0,3.6,1.601,3.6,3.601v3.499H316.69z"/>
	<g>
		<g>
			<path fill="#D8674B" d="M280.49,421.396h2.2v-2.2h2.1v2.2h2.2v2.1h-2.2v2.2h-2.1v-2.2h-2.2V421.396z"/>
		</g>
	</g>
	<g>
		<g>
			<path fill="#D8674B" d="M280.79,437.295l1.5-1.5l-1.5-1.5l1.5-1.5l1.5,1.5l1.5-1.5l1.5,1.5l-1.5,1.5l1.5,1.5l-1.5,1.5l-1.5-1.5
				l-1.5,1.5L280.79,437.295z"/>
		</g>
	</g>
	<g>
		<g>
			<path fill="#D8674B" d="M294.29,421.396h6.2v2.1h-6.2V421.396z"/>
		</g>
	</g>
	<g>
		<g>
			<path fill="#D8674B" d="M294.29,434.694h6.2v2.101h-6.2V434.694z"/>
		</g>
	</g>
	<g>
		<path fill="#FFFFFF" d="M308.19,426.795h5.6v1.8h-5.6V426.795z M308.19,429.595h5.6v1.8h-5.6V429.595z"/>
	</g>
	<g>
		<circle fill="#D8674B" cx="297.39" cy="432.995" r="1"/>
		<circle fill="#D8674B" cx="297.39" cy="438.494" r="1"/>
	</g>
</g>
</svg>
