<?xml version="1.0" encoding="utf-8"?>
<!-- Generator: Adobe Illustrator 15.0.0, SVG Export Plug-In . SVG Version: 6.00 Build 0)  -->
<!DOCTYPE svg PUBLIC "-//W3C//DTD SVG 1.1//EN" "http://www.w3.org/Graphics/SVG/1.1/DTD/svg11.dtd">
<svg version="1.1" id="Слой_1" xmlns="http://www.w3.org/2000/svg" xmlns:xlink="http://www.w3.org/1999/xlink" x="0px" y="0px"
	 width="595.279px" height="841.891px" viewBox="0 0 595.279 841.891" enable-background="new 0 0 595.279 841.891"
	 xml:space="preserve">
<g>
	<rect x="275.191" y="434.694" fill="#FFFFFF" width="43.299" height="3.3"/>
	<g>
		<rect x="278.49" y="405.195" fill="#D8674B" width="9.5" height="29.499"/>
		<g>
			<circle fill="#C8C8C9" cx="283.29" cy="427.795" r="2.6"/>
			<circle fill="#4C4C4D" cx="283.29" cy="427.795" r="2.2"/>
			<rect x="279.691" y="408.096" fill="#FFFFFF" width="7" height="15.899"/>
			<g>
				<rect x="279.99" y="410.896" fill="#C8C8C9" width="6.3" height="0.6"/>
				<rect x="279.99" y="414.096" fill="#C8C8C9" width="6.3" height="0.6"/>
				<rect x="279.99" y="417.396" fill="#C8C8C9" width="6.3" height="0.6"/>
				<rect x="279.99" y="420.595" fill="#C8C8C9" width="6.3" height="0.601"/>
			</g>
		</g>
	</g>
	<g>
		<rect x="290.59" y="405.195" fill="#334C5B" width="9.5" height="29.499"/>
		<g>
			<circle fill="#C8C8C9" cx="295.29" cy="427.795" r="2.6"/>
			<circle fill="#4C4C4D" cx="295.29" cy="427.795" r="2.2"/>
			<rect x="291.691" y="408.096" fill="#FFFFFF" width="6.999" height="15.899"/>
			<g>
				<rect x="291.99" y="410.896" fill="#C8C8C9" width="6.3" height="0.6"/>
				<rect x="291.99" y="414.096" fill="#C8C8C9" width="6.3" height="0.6"/>
				<rect x="291.99" y="417.396" fill="#C8C8C9" width="6.3" height="0.6"/>
				<rect x="291.99" y="420.595" fill="#C8C8C9" width="6.3" height="0.601"/>
			</g>
		</g>
	</g>
	<g>
		
			<rect x="305.504" y="404.103" transform="matrix(-0.9563 0.2924 -0.2924 -0.9563 729.4142 728.6899)" fill="#62B7C9" width="9.499" height="29.498"/>
		<g>
			<ellipse fill="#C8C8C9" cx="312.579" cy="426.291" rx="2.6" ry="2.6"/>
			<ellipse fill="#4C4C4D" cx="312.574" cy="426.297" rx="2.2" ry="2.2"/>
			
				<rect x="305.598" y="407.18" transform="matrix(-0.9563 0.2924 -0.2924 -0.9563 726.0823 721.7202)" fill="#FFFFFF" width="6.999" height="15.9"/>
			<g>
				
					<rect x="304.384" y="410.209" transform="matrix(-0.9563 0.2924 -0.2924 -0.9563 721.6478 713.1685)" fill="#C8C8C9" width="6.3" height="0.599"/>
				
					<rect x="305.386" y="413.294" transform="matrix(-0.9563 0.2924 -0.2924 -0.9563 724.5112 718.9134)" fill="#C8C8C9" width="6.3" height="0.601"/>
				
					<rect x="306.298" y="416.404" transform="matrix(-0.9563 0.2924 -0.2924 -0.9563 727.2037 724.7297)" fill="#C8C8C9" width="6.3" height="0.6"/>
				
					<rect x="307.277" y="419.387" transform="matrix(-0.9563 0.2925 -0.2925 -0.9563 730.037 730.2169)" fill="#C8C8C9" width="6.3" height="0.601"/>
			</g>
		</g>
	</g>
</g>
</svg>
