<?xml version="1.0" encoding="utf-8"?>
<!-- Generator: Adobe Illustrator 15.0.0, SVG Export Plug-In . SVG Version: 6.00 Build 0)  -->
<!DOCTYPE svg PUBLIC "-//W3C//DTD SVG 1.1//EN" "http://www.w3.org/Graphics/SVG/1.1/DTD/svg11.dtd">
<svg version="1.1" id="Слой_1" xmlns="http://www.w3.org/2000/svg" xmlns:xlink="http://www.w3.org/1999/xlink" x="0px" y="0px"
	 width="595.279px" height="841.891px" viewBox="0 0 595.279 841.891" enable-background="new 0 0 595.279 841.891"
	 xml:space="preserve">
<g>
	<g>
		<rect x="275.591" y="429.595" fill="#F1BE44" width="13.1" height="14.399"/>
		<rect x="291.191" y="426.695" fill="#D8674B" width="13.1" height="17.299"/>
		<rect x="306.789" y="419.695" fill="#334C5B" width="13.1" height="24.299"/>
		<path fill="#F1BE44" d="M321.089,411.295l-2.7-14.099l-12.999,6.1l5.3,2.699c0,0.101-0.101,0.101-0.101,0.2
			c-0.1,0.2-0.199,0.4-0.399,0.601c-0.101,0.199-0.3,0.399-0.4,0.6c-0.3,0.4-0.6,0.8-0.899,1.2c-0.7,0.8-1.4,1.7-2.3,2.6
			c-0.2,0.2-0.4,0.4-0.7,0.7c-0.1,0.1-0.2,0.2-0.3,0.3c-0.101,0.1-0.2,0.2-0.4,0.3c-0.5,0.4-1,0.9-1.5,1.3c-0.3,0.2-0.5,0.4-0.8,0.7
			c-0.3,0.2-0.6,0.4-0.8,0.601c-0.3,0.199-0.6,0.399-0.9,0.6c-0.3,0.2-0.6,0.4-0.899,0.6c-0.3,0.2-0.601,0.4-0.9,0.601
			s-0.6,0.399-0.899,0.6c-0.601,0.4-1.3,0.7-1.9,1.101c-1.3,0.699-2.6,1.399-4,1.899c-0.2,0.1-0.3,0.1-0.5,0.2
			c-0.2,0.1-0.3,0.1-0.5,0.2c-0.3,0.1-0.699,0.3-1,0.399l-0.3,0.101h-0.1h-0.101l0,0l0,0l0,0c-0.199,0.1-0.3,0.1-0.5,0.199
			c-0.3,0.101-0.699,0.2-1,0.301c-0.199,0.1-0.3,0.1-0.5,0.199c-0.199,0.101-0.3,0.101-0.5,0.101c-0.3,0.1-0.699,0.2-1,0.3
			c-0.6,0.2-1.3,0.3-1.899,0.5c-0.3,0.1-0.6,0.2-0.9,0.2c-0.3,0.1-0.6,0.1-0.899,0.2c-0.601,0.1-1.2,0.199-1.7,0.3
			c-0.6,0.1-1.1,0.2-1.6,0.2c-0.5,0.1-1,0.1-1.5,0.199c-0.5,0.101-0.9,0.101-1.3,0.101c-0.4,0-0.801,0-1.101,0.1c-0.7,0-1.2,0-1.6,0
			c-0.4,0-0.6,0-0.6,0s0.199,0,0.499,0.101c0.4,0,0.9,0.1,1.601,0.199c0.3,0,0.7,0,1.1,0.101c0.4,0,0.8,0.1,1.3,0.1s1,0,1.5,0
			s1.101,0,1.7,0s1.2-0.1,1.8-0.1c0.3,0,0.601,0,1-0.101c0.3,0,0.601-0.1,1-0.1c0.7-0.1,1.3-0.1,2-0.3c0.3-0.101,0.7-0.101,1.1-0.2
			c0.2,0,0.4-0.1,0.5-0.1c0.2,0,0.301-0.101,0.5-0.101c0.4-0.1,0.7-0.1,1.101-0.2c0.2,0,0.399-0.1,0.5-0.1c0.2,0,0.399-0.1,0.6-0.1
			c0.4-0.101,0.7-0.2,1.1-0.301c0.2,0,0.4-0.1,0.601-0.1c0.2-0.1,0.399-0.1,0.6-0.2c1.5-0.399,3-0.899,4.4-1.5
			c0.7-0.3,1.5-0.6,2.199-0.899c0.4-0.2,0.7-0.3,1.101-0.5c0.399-0.2,0.7-0.4,1-0.5c0.3-0.2,0.7-0.4,1-0.5c0.3-0.2,0.7-0.4,1-0.601
			c0.3-0.199,0.7-0.399,1-0.6s0.6-0.4,1-0.6c0.6-0.4,1.199-0.801,1.8-1.301c0.1-0.1,0.3-0.199,0.399-0.3c0.101-0.1,0.3-0.2,0.4-0.3
			c0.3-0.2,0.6-0.399,0.8-0.7c1.1-0.899,2.1-1.8,2.899-2.6c0.5-0.4,0.801-0.9,1.2-1.3c0.2-0.2,0.4-0.4,0.601-0.601
			c0.199-0.199,0.3-0.399,0.499-0.6c0.2-0.2,0.301-0.399,0.5-0.6c0.101-0.101,0.2-0.2,0.301-0.3L321.089,411.295z"/>
	</g>
</g>
</svg>
