<?xml version="1.0" encoding="utf-8"?>
<!-- Generator: Adobe Illustrator 19.2.1, SVG Export Plug-In . SVG Version: 6.00 Build 0)  -->
<svg version="1.1" id="Слой_1" xmlns="http://www.w3.org/2000/svg" xmlns:xlink="http://www.w3.org/1999/xlink" x="0px" y="0px"
	 viewBox="0 0 595.3 841.9" style="enable-background:new 0 0 595.3 841.9;" xml:space="preserve">
<style type="text/css">
	.st0{fill:#FFFFFF;}
	.st1{fill:#D8674B;}
	.st2{fill:#C8C8C9;}
	.st3{fill:#4C4C4D;}
	.st4{fill:#334C5B;}
	.st5{fill:#62B7C9;}
</style>
<g>
	<rect x="275.2" y="434.7" class="st0" width="43.3" height="3.3"/>
	<g>
		<rect x="278.5" y="405.2" class="st1" width="9.5" height="29.5"/>
		<g>
			<circle class="st2" cx="283.3" cy="427.8" r="2.6"/>
			<circle class="st3" cx="283.3" cy="427.8" r="2.2"/>
			<rect x="279.7" y="408.1" class="st0" width="7" height="15.9"/>
			<g>
				<rect x="280" y="410.9" class="st2" width="6.3" height="0.6"/>
				<rect x="280" y="414.1" class="st2" width="6.3" height="0.6"/>
				<rect x="280" y="417.4" class="st2" width="6.3" height="0.6"/>
				<rect x="280" y="420.6" class="st2" width="6.3" height="0.6"/>
			</g>
		</g>
	</g>
	<g>
		<rect x="290.6" y="405.2" class="st4" width="9.5" height="29.5"/>
		<g>
			<circle class="st2" cx="295.3" cy="427.8" r="2.6"/>
			<circle class="st3" cx="295.3" cy="427.8" r="2.2"/>
			<rect x="291.7" y="408.1" class="st0" width="7" height="15.9"/>
			<g>
				<rect x="292" y="410.9" class="st2" width="6.3" height="0.6"/>
				<rect x="292" y="414.1" class="st2" width="6.3" height="0.6"/>
				<rect x="292" y="417.4" class="st2" width="6.3" height="0.6"/>
				<rect x="292" y="420.6" class="st2" width="6.3" height="0.6"/>
			</g>
		</g>
	</g>
	<g>
		
			<rect x="305.5" y="404.1" transform="matrix(0.9563 -0.2924 0.2924 0.9563 -108.9001 109.0284)" class="st5" width="9.5" height="29.5"/>
		<g>
			
				<ellipse transform="matrix(0.9563 -0.2924 0.2924 0.9563 -110.9999 110.0301)" class="st2" cx="312.6" cy="426.3" rx="2.6" ry="2.6"/>
			
				<ellipse transform="matrix(0.9563 -0.2924 0.2924 0.9563 -111.0045 110.0363)" class="st3" cx="312.6" cy="426.3" rx="2.2" ry="2.2"/>
			
				<rect x="305.6" y="407.2" transform="matrix(0.9563 -0.2924 0.2924 0.9563 -107.8743 108.5072)" class="st0" width="7" height="15.9"/>
			<g>
				
					<rect x="304.4" y="410.2" transform="matrix(0.9563 -0.2924 0.2924 0.9563 -106.5965 107.8793)" class="st2" width="6.3" height="0.6"/>
				
					<rect x="305.4" y="413.3" transform="matrix(0.9563 -0.2924 0.2924 0.9563 -107.4567 108.2937)" class="st2" width="6.3" height="0.6"/>
				
					<rect x="306.3" y="416.4" transform="matrix(0.9563 -0.2924 0.2924 0.9563 -108.3122 108.7017)" class="st2" width="6.3" height="0.6"/>
				
					<rect x="307.3" y="419.4" transform="matrix(0.9563 -0.2924 0.2924 0.9563 -109.1664 109.1081)" class="st2" width="6.3" height="0.6"/>
			</g>
		</g>
	</g>
</g>
</svg>
