<?xml version="1.0" encoding="utf-8"?>
<!-- Generator: Adobe Illustrator 15.0.0, SVG Export Plug-In . SVG Version: 6.00 Build 0)  -->
<!DOCTYPE svg PUBLIC "-//W3C//DTD SVG 1.1//EN" "http://www.w3.org/Graphics/SVG/1.1/DTD/svg11.dtd">
<svg version="1.1" id="Слой_1" xmlns="http://www.w3.org/2000/svg" xmlns:xlink="http://www.w3.org/1999/xlink" x="0px" y="0px"
	 width="595.279px" height="841.891px" viewBox="0 0 595.279 841.891" enable-background="new 0 0 595.279 841.891"
	 xml:space="preserve">
<g>
	<path fill="#F8FCFF" d="M279.29,403.096h37.199c2.399,0,4.399,1.9,4.399,4.399v9.9v15.299v9.9c0,2.399-1.899,4.399-4.399,4.399
		H279.29c-2.399,0-4.399-1.899-4.399-4.399v-9.9v-15.299v-9.9C274.99,404.996,276.891,403.096,279.29,403.096z"/>
	<rect x="278.79" y="408.396" fill="#DC7A6E" width="39.898" height="1.899"/>
	<g>
		<rect x="278.891" y="435.994" fill="#DC7A6E" width="3.1" height="4"/>
		<rect x="282.691" y="434.295" fill="#DC7A6E" width="3.1" height="5.699"/>
		<rect x="286.49" y="432.595" fill="#DC7A6E" width="3.1" height="7.399"/>
		<rect x="290.29" y="430.595" fill="#DC7A6E" width="3.1" height="9.3"/>
		<rect x="294.09" y="429.195" fill="#DC7A6E" width="3.1" height="10.699"/>
		<path fill="#DC7A6E" d="M289.09,428.595l-1.699,0.9l0.6,0.399c-2.2,2.5-5.3,2.3-5.3,2.3c-0.1,0-0.2,0.101-0.2,0.2
			c0,0.101,0.101,0.2,0.2,0.2c0,0,0.1,0,0.3,0c0.9,0,3.5-0.2,5.4-2.5l0.699,0.4V428.595z"/>
	</g>
	<rect x="278.79" y="419.295" fill="#436478" width="18.3" height="1.601"/>
	<rect x="278.79" y="416.195" fill="#436478" width="18.3" height="1.6"/>
	<rect x="278.79" y="412.995" fill="#436478" width="18.3" height="1.601"/>
	<rect x="278.79" y="422.395" fill="#436478" width="18.3" height="1.601"/>
	<rect x="278.79" y="425.595" fill="#436478" width="18.3" height="1.601"/>
	<rect x="300.39" y="431.395" fill="#E18F47" width="18.299" height="1.601"/>
	<rect x="300.39" y="434.895" fill="#E18F47" width="18.299" height="1.6"/>
	<rect x="300.39" y="438.395" fill="#E18F47" width="18.299" height="1.6"/>
	<g>
		<path fill="#DC7A6E" d="M303.69,415.495c1.5-1.5,3.6-2.5,5.899-2.5v8.4l0,0l-7.299,3.6c-0.601-1.101-0.9-2.3-0.9-3.6v-0.101
			C301.29,418.995,302.19,416.995,303.69,415.495z"/>
		<path fill="#F4C644" d="M309.49,421.396L309.49,421.396l5.8,5.8c-1.5,1.499-3.5,2.399-5.8,2.399c-3.199,0-6-1.8-7.3-4.5
			L309.49,421.396z"/>
		<path fill="#4CB2B8" d="M316.99,417.695c0.5,1.1,0.8,2.3,0.8,3.5v0.1c0,2.3-1,4.3-2.5,5.8l-5.8-5.8v-8.3
			C312.789,412.995,315.69,414.995,316.99,417.695z"/>
	</g>
</g>
</svg>
