<?xml version="1.0" encoding="utf-8"?>
<!-- Generator: Adobe Illustrator 19.2.1, SVG Export Plug-In . SVG Version: 6.00 Build 0)  -->
<svg version="1.1" id="Слой_1" xmlns="http://www.w3.org/2000/svg" xmlns:xlink="http://www.w3.org/1999/xlink" x="0px" y="0px"
	 viewBox="0 0 595.3 841.9" style="enable-background:new 0 0 595.3 841.9;" xml:space="preserve">
<style type="text/css">
	.st0{fill:#343F4C;}
	.st1{fill:#E59C44;}
	.st2{fill:#D8665E;}
	.st3{fill:#F8FCFF;}
	.st4{fill:#D0DBE5;}
</style>
<g id="document_1_">
	<g>
		<rect x="93.3" y="259.5" class="st0" width="3" height="1.3"/>
		<rect x="93.3" y="235.2" class="st1" width="3" height="16.8"/>
		<rect x="93.3" y="235.2" class="st1" width="3" height="16.8"/>
		<polygon class="st0" points="96.8,243.1 92.9,243.1 93.3,242.8 96.4,242.8 		"/>
		<rect x="92.9" y="243.1" class="st2" width="3.9" height="16.8"/>
		<polygon class="st0" points="93.3,235.2 94.8,232.3 96.4,235.2 		"/>
		<path class="st0" d="M92.6,257.1v-0.3v-4.1v-0.2c0,0,0-0.5-0.1-0.9c-0.2-0.7-0.9-1.3-1.3-0.8c-0.4,0.5,0.5,0.9,0.4,1.5v0.5v4.1
			v0.9c0,0.2,0.2,0.5,0.5,0.5h0.1h4.7v-1H92.6z"/>
	</g>
	<g>
		<polygon class="st3" points="123.5,217.3 98,217.3 98,260.8 133.2,260.8 133.2,227.1 		"/>
		<polygon class="st4" points="123.5,227.1 133.2,227.1 123.5,217.3 		"/>
		<rect x="100.9" y="230.1" class="st0" width="30.2" height="3.3"/>
		<rect x="100.9" y="236.4" class="st0" width="30.2" height="3.3"/>
		<rect x="100.9" y="242.5" class="st0" width="30.2" height="3.3"/>
		<rect x="100.9" y="249.3" class="st0" width="21.3" height="3.3"/>
		<circle class="st2" cx="126.5" cy="254.9" r="4.3"/>
	</g>
</g>
</svg>
