<?xml version="1.0" encoding="utf-8"?>
<!-- Generator: Adobe Illustrator 19.2.1, SVG Export Plug-In . SVG Version: 6.00 Build 0)  -->
<svg version="1.1" id="Слой_1" xmlns="http://www.w3.org/2000/svg" xmlns:xlink="http://www.w3.org/1999/xlink" x="0px" y="0px"
	 viewBox="0 0 595.3 841.9" style="enable-background:new 0 0 595.3 841.9;" xml:space="preserve">
<style type="text/css">
	.st0{fill:#293A4C;}
	.st1{fill:#FFFFFF;}
	.st2{fill:#D8674B;}
	.st3{fill:#62B7C9;}
</style>
<g>
	<path class="st0" d="M320.1,442.5c0,2-1.6,3.6-3.6,3.6h-38c-2,0-3.6-1.6-3.6-3.6v-43.6c0-2,1.6-3.6,3.6-3.6h38c2,0,3.6,1.6,3.6,3.6
		V442.5z"/>
	<g>
		<path class="st1" d="M289.9,425.3c0,1.8-1.5,3.3-3.3,3.3h-5.6c-1.8,0-3.3-1.5-3.3-3.3v-5.6c0-1.8,1.5-3.3,3.3-3.3h5.6
			c1.8,0,3.3,1.5,3.3,3.3V425.3z"/>
	</g>
	<g>
		<path class="st1" d="M303.5,425.3c0,1.8-1.5,3.3-3.3,3.3h-5.6c-1.8,0-3.3-1.5-3.3-3.3v-5.6c0-1.8,1.5-3.3,3.3-3.3h5.6
			c1.8,0,3.3,1.5,3.3,3.3V425.3z"/>
	</g>
	<g>
		<g>
			<path class="st2" d="M317.1,438.6c0,1.8-1.5,3.3-3.3,3.3h-5.6c-1.8,0-3.3-1.5-3.3-3.3v-18.9c0-1.8,1.5-3.3,3.3-3.3h5.6
				c1.8,0,3.3,1.5,3.3,3.3V438.6z"/>
		</g>
	</g>
	<g>
		<path class="st1" d="M289.9,438.6c0,1.8-1.5,3.3-3.3,3.3h-5.6c-1.8,0-3.3-1.5-3.3-3.3v-5.6c0-1.8,1.5-3.3,3.3-3.3h5.6
			c1.8,0,3.3,1.5,3.3,3.3V438.6z"/>
	</g>
	<g>
		<path class="st1" d="M303.5,438.6c0,1.8-1.5,3.3-3.3,3.3h-5.6c-1.8,0-3.3-1.5-3.3-3.3v-5.6c0-1.8,1.5-3.3,3.3-3.3h5.6
			c1.8,0,3.3,1.5,3.3,3.3V438.6z"/>
	</g>
	<path class="st3" d="M316.7,406.5c0,2-1.6,3.6-3.6,3.6h-31.3c-2,0-3.6-1.6-3.6-3.6V403c0-2,1.6-3.6,3.6-3.6H313
		c2,0,3.6,1.6,3.6,3.6V406.5z"/>
	<g>
		<g>
			<path class="st2" d="M280.5,421.4h2.2v-2.2h2.1v2.2h2.2v2.1h-2.2v2.2h-2.1v-2.2h-2.2V421.4z"/>
		</g>
	</g>
	<g>
		<g>
			<path class="st2" d="M280.8,437.3l1.5-1.5l-1.5-1.5l1.5-1.5l1.5,1.5l1.5-1.5l1.5,1.5l-1.5,1.5l1.5,1.5l-1.5,1.5l-1.5-1.5
				l-1.5,1.5L280.8,437.3z"/>
		</g>
	</g>
	<g>
		<g>
			<path class="st2" d="M294.3,421.4h6.2v2.1h-6.2V421.4z"/>
		</g>
	</g>
	<g>
		<g>
			<path class="st2" d="M294.3,434.7h6.2v2.1h-6.2V434.7z"/>
		</g>
	</g>
	<g>
		<path class="st1" d="M308.2,426.8h5.6v1.8h-5.6V426.8z M308.2,429.6h5.6v1.8h-5.6V429.6z"/>
	</g>
	<g>
		<circle class="st2" cx="297.4" cy="433" r="1"/>
		<circle class="st2" cx="297.4" cy="438.5" r="1"/>
	</g>
</g>
</svg>
