<?xml version="1.0" encoding="utf-8"?>
<!-- Generator: Adobe Illustrator 19.2.1, SVG Export Plug-In . SVG Version: 6.00 Build 0)  -->
<svg version="1.1" id="Слой_1" xmlns="http://www.w3.org/2000/svg" xmlns:xlink="http://www.w3.org/1999/xlink" x="0px" y="0px"
	 viewBox="0 0 595.3 841.9" style="enable-background:new 0 0 595.3 841.9;" xml:space="preserve">
<style type="text/css">
	.st0{fill:#F1BE44;}
	.st1{fill:#D8674B;}
	.st2{fill:#334C5B;}
</style>
<g>
	<g>
		<rect x="275.6" y="429.6" class="st0" width="13.1" height="14.4"/>
		<rect x="291.2" y="426.7" class="st1" width="13.1" height="17.3"/>
		<rect x="306.8" y="419.7" class="st2" width="13.1" height="24.3"/>
		<path class="st0" d="M321.1,411.3l-2.7-14.1l-13,6.1l5.3,2.7c0,0.1-0.1,0.1-0.1,0.2c-0.1,0.2-0.2,0.4-0.4,0.6
			c-0.1,0.2-0.3,0.4-0.4,0.6c-0.3,0.4-0.6,0.8-0.9,1.2c-0.7,0.8-1.4,1.7-2.3,2.6c-0.2,0.2-0.4,0.4-0.7,0.7c-0.1,0.1-0.2,0.2-0.3,0.3
			c-0.1,0.1-0.2,0.2-0.4,0.3c-0.5,0.4-1,0.9-1.5,1.3c-0.3,0.2-0.5,0.4-0.8,0.7c-0.3,0.2-0.6,0.4-0.8,0.6c-0.3,0.2-0.6,0.4-0.9,0.6
			c-0.3,0.2-0.6,0.4-0.9,0.6c-0.3,0.2-0.6,0.4-0.9,0.6c-0.3,0.2-0.6,0.4-0.9,0.6c-0.6,0.4-1.3,0.7-1.9,1.1c-1.3,0.7-2.6,1.4-4,1.9
			c-0.2,0.1-0.3,0.1-0.5,0.2c-0.2,0.1-0.3,0.1-0.5,0.2c-0.3,0.1-0.7,0.3-1,0.4l-0.3,0.1l-0.1,0l-0.1,0l0,0l0,0c0,0,0,0,0,0
			c-0.2,0.1-0.3,0.1-0.5,0.2c-0.3,0.1-0.7,0.2-1,0.3c-0.2,0.1-0.3,0.1-0.5,0.2c-0.2,0.1-0.3,0.1-0.5,0.1c-0.3,0.1-0.7,0.2-1,0.3
			c-0.6,0.2-1.3,0.3-1.9,0.5c-0.3,0.1-0.6,0.2-0.9,0.2c-0.3,0.1-0.6,0.1-0.9,0.2c-0.6,0.1-1.2,0.2-1.7,0.3c-0.6,0.1-1.1,0.2-1.6,0.2
			c-0.5,0.1-1,0.1-1.5,0.2c-0.5,0.1-0.9,0.1-1.3,0.1c-0.4,0-0.8,0-1.1,0.1c-0.7,0-1.2,0-1.6,0c-0.4,0-0.6,0-0.6,0s0.2,0,0.5,0.1
			c0.4,0,0.9,0.1,1.6,0.2c0.3,0,0.7,0,1.1,0.1c0.4,0,0.8,0.1,1.3,0.1c0.5,0,1,0,1.5,0c0.5,0,1.1,0,1.7,0c0.6,0,1.2-0.1,1.8-0.1
			c0.3,0,0.6,0,1-0.1c0.3,0,0.6-0.1,1-0.1c0.7-0.1,1.3-0.1,2-0.3c0.3-0.1,0.7-0.1,1.1-0.2c0.2,0,0.4-0.1,0.5-0.1
			c0.2,0,0.3-0.1,0.5-0.1c0.4-0.1,0.7-0.1,1.1-0.2c0.2,0,0.4-0.1,0.5-0.1c0.2,0,0.4-0.1,0.6-0.1c0.4-0.1,0.7-0.2,1.1-0.3
			c0.2,0,0.4-0.1,0.6-0.1c0.2-0.1,0.4-0.1,0.6-0.2c1.5-0.4,3-0.9,4.4-1.5c0.7-0.3,1.5-0.6,2.2-0.9c0.4-0.2,0.7-0.3,1.1-0.5
			c0.4-0.2,0.7-0.4,1-0.5c0.3-0.2,0.7-0.4,1-0.5c0.3-0.2,0.7-0.4,1-0.6c0.3-0.2,0.7-0.4,1-0.6c0.3-0.2,0.6-0.4,1-0.6
			c0.6-0.4,1.2-0.8,1.8-1.3c0.1-0.1,0.3-0.2,0.4-0.3c0.1-0.1,0.3-0.2,0.4-0.3c0.3-0.2,0.6-0.4,0.8-0.7c1.1-0.9,2.1-1.8,2.9-2.6
			c0.5-0.4,0.8-0.9,1.2-1.3c0.2-0.2,0.4-0.4,0.6-0.6c0.2-0.2,0.3-0.4,0.5-0.6c0.2-0.2,0.3-0.4,0.5-0.6c0.1-0.1,0.2-0.2,0.3-0.3
			L321.1,411.3z"/>
	</g>
</g>
</svg>
